solid Potentiometer test 1
facet normal 0.0 0.0 -1.0
  outer loop
    vertex 2.3392006187815895 2.611311582191395 0.0
    vertex 2.339200618781589 2.352492537088874 0.0
    vertex 2.3221635319261233 2.4819020596401344 0.0
  endloop
endfacet
facet normal 0.0 0.0 -1.0
  outer loop
    vertex 2.339200618781589 2.352492537088874 0.0
    vertex 2.3392006187815895 2.611311582191395 0.0
    vertex 2.3891508300339037 2.2319020596401344 0.0
  endloop
endfacet
facet normal 0.0 0.0 -1.0
  outer loop
    vertex 2.3891508300339037 2.2319020596401344 0.0
    vertex 2.3392006187815895 2.611311582191395 0.0
    vertex 2.389150830033904 2.7319020596401344 0.0
  endloop
endfacet
facet normal 0.0 0.0 -1.0
  outer loop
    vertex 2.3891508300339037 2.2319020596401344 0.0
    vertex 2.389150830033904 2.7319020596401344 0.0
    vertex 2.4686101413328494 2.1283486690468605 0.0
  endloop
endfacet
facet normal 0.0 0.0 -1.0
  outer loop
    vertex 2.4686101413328494 2.1283486690468605 0.0
    vertex 2.389150830033904 2.7319020596401344 0.0
    vertex 2.4686101413328494 2.835455450233408 0.0
  endloop
endfacet
facet normal 0.0 0.0 -1.0
  outer loop
    vertex 2.4686101413328494 2.1283486690468605 0.0
    vertex 2.4686101413328494 2.835455450233408 0.0
    vertex 2.5721635319261233 2.9149147615323536 0.0
  endloop
endfacet
facet normal 0.0 0.0 -1.0
  outer loop
    vertex 2.4686101413328494 2.1283486690468605 0.0
    vertex 2.5721635319261233 2.9149147615323536 0.0
    vertex 2.5721635319261233 2.048889357747915 0.0
  endloop
endfacet
facet normal 0.0 0.0 -1.0
  outer loop
    vertex 2.5721635319261233 2.048889357747915 0.0
    vertex 2.5721635319261233 2.9149147615323536 0.0
    vertex 2.692754009374863 2.9648649727846683 0.0
  endloop
endfacet
facet normal 0.0 0.0 -1.0
  outer loop
    vertex 2.5721635319261233 2.048889357747915 0.0
    vertex 2.692754009374863 2.9648649727846683 0.0
    vertex 2.6927540093748625 1.9989391464956001 0.0
  endloop
endfacet
facet normal 0.0 0.0 -1.0
  outer loop
    vertex 2.6927540093748625 1.9989391464956001 0.0
    vertex 2.692754009374863 2.9648649727846683 0.0
    vertex 2.8221635319261233 1.9819020596401342 0.0
  endloop
endfacet
facet normal 0.0 0.0 -1.0
  outer loop
    vertex 2.8221635319261233 1.9819020596401342 0.0
    vertex 2.692754009374863 2.9648649727846683 0.0
    vertex 2.8221635319261233 2.9819020596401344 0.0
  endloop
endfacet
facet normal 0.0 0.0 -1.0
  outer loop
    vertex 2.8221635319261233 1.9819020596401342 0.0
    vertex 2.8221635319261233 2.9819020596401344 0.0
    vertex 2.9515730544773837 2.9648649727846683 0.0
  endloop
endfacet
facet normal 0.0 0.0 -1.0
  outer loop
    vertex 2.8221635319261233 1.9819020596401342 0.0
    vertex 2.9515730544773837 2.9648649727846683 0.0
    vertex 2.9515730544773833 1.9989391464956001 0.0
  endloop
endfacet
facet normal 0.0 0.0 -1.0
  outer loop
    vertex 2.9515730544773833 1.9989391464956001 0.0
    vertex 2.9515730544773837 2.9648649727846683 0.0
    vertex 3.072163531926123 2.048889357747915 0.0
  endloop
endfacet
facet normal 0.0 0.0 -1.0
  outer loop
    vertex 3.072163531926123 2.048889357747915 0.0
    vertex 2.9515730544773837 2.9648649727846683 0.0
    vertex 3.0721635319261233 2.9149147615323536 0.0
  endloop
endfacet
facet normal 0.0 0.0 -1.0
  outer loop
    vertex 3.072163531926123 2.048889357747915 0.0
    vertex 3.0721635319261233 2.9149147615323536 0.0
    vertex 3.1757169225193973 2.1283486690468605 0.0
  endloop
endfacet
facet normal 0.0 0.0 -1.0
  outer loop
    vertex 3.1757169225193973 2.1283486690468605 0.0
    vertex 3.0721635319261233 2.9149147615323536 0.0
    vertex 3.1757169225193973 2.835455450233408 0.0
  endloop
endfacet
facet normal 0.0 0.0 -1.0
  outer loop
    vertex 3.1757169225193973 2.1283486690468605 0.0
    vertex 3.1757169225193973 2.835455450233408 0.0
    vertex 3.255176233818343 2.7319020596401344 0.0
  endloop
endfacet
facet normal 0.0 0.0 -1.0
  outer loop
    vertex 3.1757169225193973 2.1283486690468605 0.0
    vertex 3.255176233818343 2.7319020596401344 0.0
    vertex 3.2551762338183425 2.231902059640134 0.0
  endloop
endfacet
facet normal 0.0 0.0 -1.0
  outer loop
    vertex 3.2551762338183425 2.231902059640134 0.0
    vertex 3.255176233818343 2.7319020596401344 0.0
    vertex 3.3051264450706572 2.3524925370888736 0.0
  endloop
endfacet
facet normal 0.0 0.0 -1.0
  outer loop
    vertex 3.3051264450706572 2.3524925370888736 0.0
    vertex 3.255176233818343 2.7319020596401344 0.0
    vertex 3.3051264450706572 2.6113115821913944 0.0
  endloop
endfacet
facet normal 0.0 0.0 -1.0
  outer loop
    vertex 3.3051264450706572 2.3524925370888736 0.0
    vertex 3.3051264450706572 2.6113115821913944 0.0
    vertex 3.3221635319261233 2.4819020596401344 0.0
  endloop
endfacet
facet normal 0.0 0.0 1.0
  outer loop
    vertex 2.5728416405397914 2.40299734483312 1.0
    vertex 3.080283730375746 2.4573855187496365 1.0
    vertex 2.5631914340525874 2.457385518749637 1.0
  endloop
endfacet
facet normal 0.0 0.0 1.0
  outer loop
    vertex 3.080283730375746 2.4573855187496365 1.0
    vertex 2.5728416405397914 2.40299734483312 1.0
    vertex 2.6017591209172655 2.3411567039403005 1.0
  endloop
endfacet
facet normal 0.0 0.0 1.0
  outer loop
    vertex 3.080283730375746 2.4573855187496365 1.0
    vertex 2.6017591209172655 2.3411567039403005 1.0
    vertex 2.645696797669484 2.288907626445727 1.0
  endloop
endfacet
facet normal 0.0 0.0 1.0
  outer loop
    vertex 3.080283730375746 2.4573855187496365 1.0
    vertex 2.645696797669484 2.288907626445727 1.0
    vertex 2.7016603907362238 2.249810800634972 1.0
  endloop
endfacet
facet normal 0.0 0.0 1.0
  outer loop
    vertex 3.080283730375746 2.4573855187496365 1.0
    vertex 2.7016603907362238 2.249810800634972 1.0
    vertex 2.765836073734199 2.2265306105764795 1.0
  endloop
endfacet
facet normal 0.0 0.0 1.0
  outer loop
    vertex 3.080283730375746 2.4573855187496365 1.0
    vertex 2.765836073734199 2.2265306105764795 1.0
    vertex 2.8338503799224286 2.220653562750401 1.0
  endloop
endfacet
facet normal 0.0 0.0 1.0
  outer loop
    vertex 3.080283730375746 2.4573855187496365 1.0
    vertex 2.8338503799224286 2.220653562750401 1.0
    vertex 2.9010682467331392 2.2325801682538033 1.0
  endloop
endfacet
facet normal 0.0 0.0 1.0
  outer loop
    vertex 3.080283730375746 2.4573855187496365 1.0
    vertex 2.9010682467331392 2.2325801682538033 1.0
    vertex 2.9629088876259577 2.261497648631278 1.0
  endloop
endfacet
facet normal 0.0 0.0 1.0
  outer loop
    vertex 3.080283730375746 2.4573855187496365 1.0
    vertex 2.9629088876259577 2.261497648631278 1.0
    vertex 3.0151579651205305 2.3054353253834945 1.0
  endloop
endfacet
facet normal 0.0 0.0 1.0
  outer loop
    vertex 3.080283730375746 2.4573855187496365 1.0
    vertex 3.0151579651205305 2.3054353253834945 1.0
    vertex 3.054254790931285 2.361398918450235 1.0
  endloop
endfacet
facet normal 0.0 0.0 1.0
  outer loop
    vertex 3.080283730375746 2.4573855187496365 1.0
    vertex 3.054254790931285 2.361398918450235 1.0
    vertex 3.077534980989779 2.4255746014482096 1.0
  endloop
endfacet
facet normal 0.0 0.0 1.0
  outer loop
    vertex 3.0811356297996593 2.5064186005306333 1.0
    vertex 2.5667920828624675 2.5382295178320593 1.0
    vertex 2.5640433334765 2.506418600530634 1.0
  endloop
endfacet
facet normal 0.0 0.0 1.0
  outer loop
    vertex 2.5667920828624675 2.5382295178320593 1.0
    vertex 3.0811356297996593 2.5064186005306333 1.0
    vertex 2.5900722729209606 2.6024052008300345 1.0
  endloop
endfacet
facet normal 0.0 0.0 1.0
  outer loop
    vertex 2.5900722729209606 2.6024052008300345 1.0
    vertex 3.0811356297996593 2.5064186005306333 1.0
    vertex 2.629169098731716 2.658368793896775 1.0
  endloop
endfacet
facet normal 0.0 0.0 1.0
  outer loop
    vertex 2.629169098731716 2.658368793896775 1.0
    vertex 3.0811356297996593 2.5064186005306333 1.0
    vertex 2.681418176226289 2.702306470648992 1.0
  endloop
endfacet
facet normal 0.0 0.0 1.0
  outer loop
    vertex 2.681418176226289 2.702306470648992 1.0
    vertex 3.0811356297996593 2.5064186005306333 1.0
    vertex 2.7432588171191084 2.731223951026467 1.0
  endloop
endfacet
facet normal 0.0 0.0 1.0
  outer loop
    vertex 2.7432588171191084 2.731223951026467 1.0
    vertex 3.0811356297996593 2.5064186005306333 1.0
    vertex 2.8104766839298176 2.743150556529869 1.0
  endloop
endfacet
facet normal 0.0 0.0 1.0
  outer loop
    vertex 2.8104766839298176 2.743150556529869 1.0
    vertex 3.0811356297996593 2.5064186005306333 1.0
    vertex 2.878490990118048 2.7372735087037903 1.0
  endloop
endfacet
facet normal 0.0 0.0 1.0
  outer loop
    vertex 2.878490990118048 2.7372735087037903 1.0
    vertex 3.0811356297996593 2.5064186005306333 1.0
    vertex 2.942666673116023 2.7139933186452967 1.0
  endloop
endfacet
facet normal 0.0 0.0 1.0
  outer loop
    vertex 2.942666673116023 2.7139933186452967 1.0
    vertex 3.0811356297996593 2.5064186005306333 1.0
    vertex 2.9986302661827624 2.6748964928345433 1.0
  endloop
endfacet
facet normal 0.0 0.0 1.0
  outer loop
    vertex 2.9986302661827624 2.6748964928345433 1.0
    vertex 3.0811356297996593 2.5064186005306333 1.0
    vertex 3.0425679429349795 2.62264741533997 1.0
  endloop
endfacet
facet normal 0.0 0.0 1.0
  outer loop
    vertex 3.0425679429349795 2.62264741533997 1.0
    vertex 3.0811356297996593 2.5064186005306333 1.0
    vertex 3.0714854233124544 2.56080677444715 1.0
  endloop
endfacet
facet normal 0.3826834323650897 -0.9238795325112867 2.259096514165786e-16
  outer loop
    vertex 3.0721635319261225 2.0488893577479153 1.5
    vertex 2.9515730544773833 1.9989391464956001 0.0
    vertex 3.072163531926123 2.048889357747915 0.0
  endloop
endfacet
facet normal 0.3826834323650897 -0.9238795325112867 2.259096514165786e-16
  outer loop
    vertex 2.9515730544773833 1.9989391464956001 0.0
    vertex 3.0721635319261225 2.0488893577479153 1.5
    vertex 2.9515730544773833 1.9989391464956003 1.5
  endloop
endfacet
facet normal 0.7933533402912345 0.6087614290087217 1.2513543375684959e-16
  outer loop
    vertex 3.1757169225193973 2.835455450233408 0.0
    vertex 3.2551762338183425 2.7319020596401344 1.5
    vertex 3.255176233818343 2.7319020596401344 0.0
  endloop
endfacet
facet normal 0.7933533402912345 0.6087614290087217 1.2513543375684959e-16
  outer loop
    vertex 3.2551762338183425 2.7319020596401344 1.5
    vertex 3.1757169225193973 2.835455450233408 0.0
    vertex 3.175716922519397 2.8354554502334084 1.5
  endloop
endfacet
facet normal -0.9238795325112867 -0.3826834323650899 -1.889591146747174e-17
  outer loop
    vertex 2.3891508300339037 2.231902059640135 1.5
    vertex 2.339200618781589 2.352492537088874 0.0
    vertex 2.3891508300339037 2.2319020596401344 0.0
  endloop
endfacet
facet normal -0.9238795325112867 -0.3826834323650899 -1.889591146747174e-17
  outer loop
    vertex 2.339200618781589 2.352492537088874 0.0
    vertex 2.3891508300339037 2.231902059640135 1.5
    vertex 2.3392006187815886 2.3524925370888745 1.5
  endloop
endfacet
facet normal 0.6087614290087204 0.7933533402912355 -5.019895948163011e-17
  outer loop
    vertex 3.072163531926123 2.914914761532354 1.5
    vertex 3.1757169225193973 2.835455450233408 0.0
    vertex 3.0721635319261233 2.9149147615323536 0.0
  endloop
endfacet
facet normal 0.6087614290087204 0.7933533402912355 -5.019895948163011e-17
  outer loop
    vertex 3.1757169225193973 2.835455450233408 0.0
    vertex 3.072163531926123 2.914914761532354 1.5
    vertex 3.175716922519397 2.8354554502334084 1.5
  endloop
endfacet
facet normal -0.38268343236508795 0.9238795325112875 -2.1463680628999126e-16
  outer loop
    vertex 2.572163531926123 2.914914761532354 1.5
    vertex 2.692754009374863 2.9648649727846683 0.0
    vertex 2.5721635319261233 2.9149147615323536 0.0
  endloop
endfacet
facet normal -0.38268343236508795 0.9238795325112875 -2.1463680628999126e-16
  outer loop
    vertex 2.692754009374863 2.9648649727846683 0.0
    vertex 2.572163531926123 2.914914761532354 1.5
    vertex 2.6927540093748625 2.9648649727846683 1.5
  endloop
endfacet
facet normal -0.8197661997537143 0.5726983304859142 -7.280986478208312e-16
  outer loop
    vertex 3.0542547909312847 2.361398918450235 1.5
    vertex 3.0151579651205305 2.3054353253834945 1.0
    vertex 3.01515796512053 2.3054353253834945 1.5
  endloop
endfacet
facet normal -0.8197661997537143 0.5726983304859142 -7.280986478208312e-16
  outer loop
    vertex 3.0151579651205305 2.3054353253834945 1.0
    vertex 3.0542547909312847 2.361398918450235 1.5
    vertex 3.054254790931285 2.361398918450235 1.0
  endloop
endfacet
facet normal 0.9914448613738103 -0.13052619222005318 2.5096040793070747e-16
  outer loop
    vertex 3.3221635319261233 2.4819020596401344 0.0
    vertex 3.305126445070657 2.3524925370888736 1.5
    vertex 3.3051264450706572 2.3524925370888736 0.0
  endloop
endfacet
facet normal 0.9914448613738103 -0.13052619222005318 2.5096040793070747e-16
  outer loop
    vertex 3.305126445070657 2.3524925370888736 1.5
    vertex 3.3221635319261233 2.4819020596401344 0.0
    vertex 3.322163531926123 2.4819020596401344 1.5
  endloop
endfacet
facet normal 0.6436081088327806 -0.7653552131165579 2.8581941650464266e-16
  outer loop
    vertex 2.6814181762262885 2.702306470648992 1.5
    vertex 2.629169098731716 2.658368793896775 1.0
    vertex 2.681418176226289 2.702306470648992 1.0
  endloop
endfacet
facet normal 0.6436081088327806 -0.7653552131165579 2.8581941650464266e-16
  outer loop
    vertex 2.629169098731716 2.658368793896775 1.0
    vertex 2.6814181762262885 2.702306470648992 1.5
    vertex 2.629169098731716 2.658368793896775 1.5
  endloop
endfacet
facet normal 0.7933533402912357 -0.60876142900872 3.5323850606570283e-16
  outer loop
    vertex 3.2551762338183425 2.231902059640134 0.0
    vertex 3.175716922519397 2.128348669046861 1.5
    vertex 3.1757169225193973 2.1283486690468605 0.0
  endloop
endfacet
facet normal 0.7933533402912357 -0.60876142900872 3.5323850606570283e-16
  outer loop
    vertex 3.175716922519397 2.128348669046861 1.5
    vertex 3.2551762338183425 2.231902059640134 0.0
    vertex 3.255176233818342 2.2319020596401344 1.5
  endloop
endfacet
facet normal 0.38268343236508795 0.9238795325112875 -1.889591146747219e-17
  outer loop
    vertex 2.9515730544773833 2.9648649727846683 1.5
    vertex 3.0721635319261233 2.9149147615323536 0.0
    vertex 2.9515730544773837 2.9648649727846683 0.0
  endloop
endfacet
facet normal 0.38268343236508795 0.9238795325112875 -1.889591146747219e-17
  outer loop
    vertex 3.0721635319261233 2.9149147615323536 0.0
    vertex 2.9515730544773833 2.9648649727846683 1.5
    vertex 3.072163531926123 2.914914761532354 1.5
  endloop
endfacet
facet normal -0.08608820302888034 -0.9962875193935025 0.0
  outer loop
    vertex 2.8784909901180478 2.7372735087037903 1.5
    vertex 2.8104766839298176 2.743150556529869 1.0
    vertex 2.878490990118048 2.7372735087037903 1.0
  endloop
endfacet
facet normal -0.08608820302888034 -0.9962875193935025 0.0
  outer loop
    vertex 2.8104766839298176 2.743150556529869 1.0
    vertex 2.8784909901180478 2.7372735087037903 1.5
    vertex 2.810476683929818 2.743150556529869 1.5
  endloop
endfacet
facet normal 0.9238795325112886 0.38268343236508506 1.871092443792664e-16
  outer loop
    vertex 3.255176233818343 2.7319020596401344 0.0
    vertex 3.305126445070657 2.611311582191395 1.5
    vertex 3.3051264450706572 2.6113115821913944 0.0
  endloop
endfacet
facet normal 0.9238795325112886 0.38268343236508506 1.871092443792664e-16
  outer loop
    vertex 3.305126445070657 2.611311582191395 1.5
    vertex 3.255176233818343 2.7319020596401344 0.0
    vertex 3.2551762338183425 2.7319020596401344 1.5
  endloop
endfacet
facet normal 0.9238795325112868 -0.3826834323650893 2.8384166333225485e-16
  outer loop
    vertex 3.3051264450706572 2.3524925370888736 0.0
    vertex 3.255176233818342 2.2319020596401344 1.5
    vertex 3.2551762338183425 2.231902059640134 0.0
  endloop
endfacet
facet normal 0.9238795325112868 -0.3826834323650893 2.8384166333225485e-16
  outer loop
    vertex 3.255176233818342 2.2319020596401344 1.5
    vertex 3.3051264450706572 2.3524925370888736 0.0
    vertex 3.305126445070657 2.3524925370888736 1.5
  endloop
endfacet
facet normal 0.5726983304859165 0.8197661997537127 -7.483137545948207e-17
  outer loop
    vertex 2.6456967976694825 2.2889076264457278 1.5
    vertex 2.7016603907362238 2.249810800634972 1.0
    vertex 2.645696797669484 2.288907626445727 1.0
  endloop
endfacet
facet normal 0.5726983304859165 0.8197661997537127 -7.483137545948207e-17
  outer loop
    vertex 2.7016603907362238 2.249810800634972 1.0
    vertex 2.6456967976694825 2.2889076264457278 1.5
    vertex 2.7016603907362233 2.2498108006349726 1.5
  endloop
endfacet
facet normal 0.8197661997537112 -0.5726983304859186 0.0
  outer loop
    vertex 2.629169098731716 2.658368793896775 1.0
    vertex 2.5900722729209606 2.6024052008300345 1.5
    vertex 2.5900722729209606 2.6024052008300345 1.0
  endloop
endfacet
facet normal 0.8197661997537112 -0.5726983304859186 0.0
  outer loop
    vertex 2.5900722729209606 2.6024052008300345 1.5
    vertex 2.629169098731716 2.658368793896775 1.0
    vertex 2.629169098731716 2.658368793896775 1.5
  endloop
endfacet
facet normal 0.13052619222005218 -0.9914448613738103 1.4312188422920381e-16
  outer loop
    vertex 2.9515730544773833 1.9989391464956003 1.5
    vertex 2.8221635319261233 1.9819020596401342 0.0
    vertex 2.9515730544773833 1.9989391464956001 0.0
  endloop
endfacet
facet normal 0.13052619222005218 -0.9914448613738103 1.4312188422920381e-16
  outer loop
    vertex 2.8221635319261233 1.9819020596401342 0.0
    vertex 2.9515730544773833 1.9989391464956003 1.5
    vertex 2.822163531926123 1.9819020596401344 1.5
  endloop
endfacet
facet normal 0.9400585788891279 -0.3410130030613987 0.0
  outer loop
    vertex 2.5900722729209606 2.6024052008300345 1.0
    vertex 2.5667920828624675 2.5382295178320593 1.5
    vertex 2.5667920828624675 2.5382295178320593 1.0
  endloop
endfacet
facet normal 0.9400585788891279 -0.3410130030613987 0.0
  outer loop
    vertex 2.5667920828624675 2.5382295178320593 1.5
    vertex 2.5900722729209606 2.6024052008300345 1.0
    vertex 2.5900722729209606 2.6024052008300345 1.5
  endloop
endfacet
facet normal -0.608761429008721 -0.7933533402912349 -3.000502322262891e-17
  outer loop
    vertex 2.5721635319261225 2.0488893577479153 1.5
    vertex 2.4686101413328494 2.1283486690468605 0.0
    vertex 2.5721635319261233 2.048889357747915 0.0
  endloop
endfacet
facet normal -0.608761429008721 -0.7933533402912349 -3.000502322262891e-17
  outer loop
    vertex 2.4686101413328494 2.1283486690468605 0.0
    vertex 2.5721635319261225 2.0488893577479153 1.5
    vertex 2.468610141332849 2.128348669046861 1.5
  endloop
endfacet
facet normal 0.17470336577256737 -0.9846211118941827 -4.3725961158277767e-16
  outer loop
    vertex 2.810476683929818 2.743150556529869 1.5
    vertex 2.7432588171191084 2.731223951026467 1.0
    vertex 2.8104766839298176 2.743150556529869 1.0
  endloop
endfacet
facet normal 0.17470336577256737 -0.9846211118941827 -4.3725961158277767e-16
  outer loop
    vertex 2.7432588171191084 2.731223951026467 1.0
    vertex 2.810476683929818 2.743150556529869 1.5
    vertex 2.743258817119108 2.7312239510264664 1.5
  endloop
endfacet
facet normal 1.7176400151686926e-15 1.0 0.0
  outer loop
    vertex 2.5640433334765 2.506418600530634 1.4375
    vertex 3.0811356297996593 2.5064186005306333 1.0
    vertex 2.5640433334765 2.506418600530634 1.0
  endloop
endfacet
facet normal 1.7176400151686926e-15 1.0 0.0
  outer loop
    vertex 3.0811356297996593 2.5064186005306333 1.0
    vertex 2.5640433334765 2.506418600530634 1.4375
    vertex 3.0811356297996593 2.5064186005306333 1.4375
  endloop
endfacet
facet normal -0.7933533402912358 -0.6087614290087197 5.5419853029240654e-17
  outer loop
    vertex 2.468610141332849 2.128348669046861 1.5
    vertex 2.3891508300339037 2.2319020596401344 0.0
    vertex 2.4686101413328494 2.1283486690468605 0.0
  endloop
endfacet
facet normal -0.7933533402912358 -0.6087614290087197 5.5419853029240654e-17
  outer loop
    vertex 2.3891508300339037 2.2319020596401344 0.0
    vertex 2.468610141332849 2.128348669046861 1.5
    vertex 2.3891508300339037 2.231902059640135 1.5
  endloop
endfacet
facet normal -0.3410130030614055 -0.9400585788891254 -1.5144019507813654e-16
  outer loop
    vertex 2.942666673116023 2.7139933186452967 1.5
    vertex 2.878490990118048 2.7372735087037903 1.0
    vertex 2.942666673116023 2.7139933186452967 1.0
  endloop
endfacet
facet normal -0.3410130030614055 -0.9400585788891254 -1.5144019507813654e-16
  outer loop
    vertex 2.878490990118048 2.7372735087037903 1.0
    vertex 2.942666673116023 2.7139933186452967 1.5
    vertex 2.8784909901180478 2.7372735087037903 1.5
  endloop
endfacet
facet normal 0.765355213116556 0.6436081088327829 1.0813315068582802e-16
  outer loop
    vertex 2.6017591209172655 2.3411567039403005 1.0
    vertex 2.6456967976694825 2.2889076264457278 1.5
    vertex 2.645696797669484 2.288907626445727 1.0
  endloop
endfacet
facet normal 0.765355213116556 0.6436081088327829 1.0813315068582802e-16
  outer loop
    vertex 2.6456967976694825 2.2889076264457278 1.5
    vertex 2.6017591209172655 2.3411567039403005 1.0
    vertex 2.601759120917266 2.3411567039403005 1.5
  endloop
endfacet
facet normal -0.608761429008721 0.7933533402912349 -2.7775309020995076e-16
  outer loop
    vertex 2.4686101413328494 2.8354554502334084 1.5
    vertex 2.5721635319261233 2.9149147615323536 0.0
    vertex 2.4686101413328494 2.835455450233408 0.0
  endloop
endfacet
facet normal -0.608761429008721 0.7933533402912349 -2.7775309020995076e-16
  outer loop
    vertex 2.5721635319261233 2.9149147615323536 0.0
    vertex 2.4686101413328494 2.8354554502334084 1.5
    vertex 2.572163531926123 2.914914761532354 1.5
  endloop
endfacet
facet normal -0.4235891889075881 0.9058544027825949 -3.50165386841076e-16
  outer loop
    vertex 2.9010682467331383 2.2325801682538033 1.5
    vertex 2.9629088876259577 2.261497648631278 1.0
    vertex 2.9010682467331392 2.2325801682538033 1.0
  endloop
endfacet
facet normal -0.4235891889075881 0.9058544027825949 -3.50165386841076e-16
  outer loop
    vertex 2.9629088876259577 2.261497648631278 1.0
    vertex 2.9010682467331383 2.2325801682538033 1.5
    vertex 2.962908887625957 2.2614976486312774 1.5
  endloop
endfacet
facet normal -0.905854402782596 -0.42358918890758585 4.283375555358494e-16
  outer loop
    vertex 3.0714854233124544 2.5608067744471503 1.5
    vertex 3.0425679429349795 2.62264741533997 1.0
    vertex 3.0714854233124544 2.56080677444715 1.0
  endloop
endfacet
facet normal -0.905854402782596 -0.42358918890758585 4.283375555358494e-16
  outer loop
    vertex 3.0425679429349795 2.62264741533997 1.0
    vertex 3.0714854233124544 2.5608067744471503 1.5
    vertex 3.0425679429349803 2.622647415339969 1.5
  endloop
endfacet
facet normal -0.6436081088327787 0.7653552131165594 -5.175722576663662e-16
  outer loop
    vertex 2.962908887625957 2.2614976486312774 1.5
    vertex 3.0151579651205305 2.3054353253834945 1.0
    vertex 2.9629088876259577 2.261497648631278 1.0
  endloop
endfacet
facet normal -0.6436081088327787 0.7653552131165594 -5.175722576663662e-16
  outer loop
    vertex 3.0151579651205305 2.3054353253834945 1.0
    vertex 2.962908887625957 2.2614976486312774 1.5
    vertex 3.01515796512053 2.3054353253834945 1.5
  endloop
endfacet
facet normal -0.7933533402912357 0.6087614290087201 -1.7992458665449645e-16
  outer loop
    vertex 2.4686101413328494 2.8354554502334084 1.5
    vertex 2.389150830033904 2.7319020596401344 0.0
    vertex 2.3891508300339037 2.7319020596401344 1.5
  endloop
endfacet
facet normal -0.7933533402912357 0.6087614290087201 -1.7992458665449645e-16
  outer loop
    vertex 2.389150830033904 2.7319020596401344 0.0
    vertex 2.4686101413328494 2.8354554502334084 1.5
    vertex 2.4686101413328494 2.835455450233408 0.0
  endloop
endfacet
facet normal -0.9238795325112865 0.3826834323650903 -3.983319652944456e-16
  outer loop
    vertex 2.3392006187815886 2.6113115821913953 1.5
    vertex 2.389150830033904 2.7319020596401344 0.0
    vertex 2.3392006187815895 2.611311582191395 0.0
  endloop
endfacet
facet normal -0.9238795325112865 0.3826834323650903 -3.983319652944456e-16
  outer loop
    vertex 2.389150830033904 2.7319020596401344 0.0
    vertex 2.3392006187815886 2.6113115821913953 1.5
    vertex 2.3891508300339037 2.7319020596401344 1.5
  endloop
endfacet
facet normal 0.99144486137381 0.13052619222005388 2.3541438134159884e-16
  outer loop
    vertex 3.3051264450706572 2.6113115821913944 0.0
    vertex 3.322163531926123 2.4819020596401344 1.5
    vertex 3.3221635319261233 2.4819020596401344 0.0
  endloop
endfacet
facet normal 0.99144486137381 0.13052619222005388 2.3541438134159884e-16
  outer loop
    vertex 3.322163531926123 2.4819020596401344 1.5
    vertex 3.3051264450706572 2.6113115821913944 0.0
    vertex 3.305126445070657 2.611311582191395 1.5
  endloop
endfacet
facet normal 0.34101300306139587 0.9400585788891289 -1.1458948135538144e-16
  outer loop
    vertex 2.7016603907362233 2.2498108006349726 1.5
    vertex 2.765836073734199 2.2265306105764795 1.0
    vertex 2.7016603907362238 2.249810800634972 1.0
  endloop
endfacet
facet normal 0.34101300306139587 0.9400585788891289 -1.1458948135538144e-16
  outer loop
    vertex 2.765836073734199 2.2265306105764795 1.0
    vertex 2.7016603907362233 2.2498108006349726 1.5
    vertex 2.7658360737341985 2.2265306105764795 1.5
  endloop
endfacet
facet normal -0.38268343236509017 -0.9238795325112865 3.0168756594058634e-17
  outer loop
    vertex 2.692754009374862 1.9989391464956003 1.5
    vertex 2.5721635319261233 2.048889357747915 0.0
    vertex 2.6927540093748625 1.9989391464956001 0.0
  endloop
endfacet
facet normal -0.38268343236509017 -0.9238795325112865 3.0168756594058634e-17
  outer loop
    vertex 2.5721635319261233 2.048889357747915 0.0
    vertex 2.692754009374862 1.9989391464956003 1.5
    vertex 2.5721635319261225 2.0488893577479153 1.5
  endloop
endfacet
facet normal -0.13052619222005146 -0.9914448613738105 9.22924971123954e-17
  outer loop
    vertex 2.822163531926123 1.9819020596401344 1.5
    vertex 2.6927540093748625 1.9989391464956001 0.0
    vertex 2.8221635319261233 1.9819020596401342 0.0
  endloop
endfacet
facet normal -0.13052619222005146 -0.9914448613738105 9.22924971123954e-17
  outer loop
    vertex 2.6927540093748625 1.9989391464956001 0.0
    vertex 2.822163531926123 1.9819020596401344 1.5
    vertex 2.692754009374862 1.9989391464956003 1.5
  endloop
endfacet
facet normal 0.42358918890758845 -0.9058544027825947 -2.6057389564923116e-17
  outer loop
    vertex 2.743258817119108 2.7312239510264664 1.5
    vertex 2.681418176226289 2.702306470648992 1.0
    vertex 2.7432588171191084 2.731223951026467 1.0
  endloop
endfacet
facet normal 0.42358918890758845 -0.9058544027825947 -2.6057389564923116e-17
  outer loop
    vertex 2.681418176226289 2.702306470648992 1.0
    vertex 2.743258817119108 2.7312239510264664 1.5
    vertex 2.6814181762262885 2.702306470648992 1.5
  endloop
endfacet
facet normal 0.9058544027825967 0.42358918890758446 -2.1416877776792562e-16
  outer loop
    vertex 2.5728416405397914 2.40299734483312 1.0
    vertex 2.601759120917266 2.3411567039403005 1.5
    vertex 2.6017591209172655 2.3411567039403005 1.0
  endloop
endfacet
facet normal 0.9058544027825967 0.42358918890758446 -2.1416877776792562e-16
  outer loop
    vertex 2.601759120917266 2.3411567039403005 1.5
    vertex 2.5728416405397914 2.40299734483312 1.0
    vertex 2.5728416405397914 2.4029973448331194 1.5
  endloop
endfacet
facet normal -8.58820007584347e-16 -1.0 0.0
  outer loop
    vertex 3.080283730375746 2.4573855187496365 1.4375
    vertex 2.5631914340525874 2.457385518749637 1.0
    vertex 3.080283730375746 2.4573855187496365 1.0
  endloop
endfacet
facet normal -8.58820007584347e-16 -1.0 0.0
  outer loop
    vertex 2.5631914340525874 2.457385518749637 1.0
    vertex 3.080283730375746 2.4573855187496365 1.4375
    vertex 2.5631914340525874 2.457385518749637 1.4375
  endloop
endfacet
facet normal 0.08608820302888115 0.9962875193935022 1.146925261815228e-16
  outer loop
    vertex 2.7658360737341985 2.2265306105764795 1.5
    vertex 2.8338503799224286 2.220653562750401 1.0
    vertex 2.765836073734199 2.2265306105764795 1.0
  endloop
endfacet
facet normal 0.08608820302888115 0.9962875193935022 1.146925261815228e-16
  outer loop
    vertex 2.8338503799224286 2.220653562750401 1.0
    vertex 2.7658360737341985 2.2265306105764795 1.5
    vertex 2.8338503799224277 2.220653562750401 1.5
  endloop
endfacet
facet normal -0.9914448613738103 0.13052619222005232 -3.9367451781952083e-16
  outer loop
    vertex 2.3392006187815886 2.6113115821913953 1.5
    vertex 2.3221635319261233 2.4819020596401344 0.0
    vertex 2.322163531926123 2.4819020596401344 1.5
  endloop
endfacet
facet normal -0.9914448613738103 0.13052619222005232 -3.9367451781952083e-16
  outer loop
    vertex 2.3221635319261233 2.4819020596401344 0.0
    vertex 2.3392006187815886 2.6113115821913953 1.5
    vertex 2.3392006187815895 2.611311582191395 0.0
  endloop
endfacet
facet normal -0.7653552131165575 -0.6436081088327809 -6.952585234851814e-16
  outer loop
    vertex 2.998630266182763 2.674896492834542 1.5
    vertex 3.0425679429349795 2.62264741533997 1.0
    vertex 3.0425679429349803 2.622647415339969 1.5
  endloop
endfacet
facet normal -0.7653552131165575 -0.6436081088327809 -6.952585234851814e-16
  outer loop
    vertex 3.0425679429349795 2.62264741533997 1.0
    vertex 2.998630266182763 2.674896492834542 1.5
    vertex 2.9986302661827624 2.6748964928345433 1.0
  endloop
endfacet
facet normal -0.1747033657725683 0.9846211118941824 -3.103355186563453e-16
  outer loop
    vertex 2.8338503799224277 2.220653562750401 1.5
    vertex 2.9010682467331392 2.2325801682538033 1.0
    vertex 2.8338503799224286 2.220653562750401 1.0
  endloop
endfacet
facet normal -0.1747033657725683 0.9846211118941824 -3.103355186563453e-16
  outer loop
    vertex 2.9010682467331392 2.2325801682538033 1.0
    vertex 2.8338503799224277 2.220653562750401 1.5
    vertex 2.9010682467331383 2.2325801682538033 1.5
  endloop
endfacet
facet normal 0.6087614290087189 -0.7933533402912365 3.562284896215506e-16
  outer loop
    vertex 3.175716922519397 2.128348669046861 1.5
    vertex 3.072163531926123 2.048889357747915 0.0
    vertex 3.1757169225193973 2.1283486690468605 0.0
  endloop
endfacet
facet normal 0.6087614290087189 -0.7933533402912365 3.562284896215506e-16
  outer loop
    vertex 3.072163531926123 2.048889357747915 0.0
    vertex 3.175716922519397 2.128348669046861 1.5
    vertex 3.0721635319261225 2.0488893577479153 1.5
  endloop
endfacet
facet normal -0.13052619222005363 0.9914448613738103 -3.375033329774256e-17
  outer loop
    vertex 2.6927540093748625 2.9648649727846683 1.5
    vertex 2.8221635319261233 2.9819020596401344 0.0
    vertex 2.692754009374863 2.9648649727846683 0.0
  endloop
endfacet
facet normal -0.13052619222005363 0.9914448613738103 -3.375033329774256e-17
  outer loop
    vertex 2.8221635319261233 2.9819020596401344 0.0
    vertex 2.6927540093748625 2.9648649727846683 1.5
    vertex 2.822163531926123 2.9819020596401344 1.5
  endloop
endfacet
facet normal -0.9400585788891247 0.3410130030614073 -1.5552900046912072e-15
  outer loop
    vertex 3.0775349809897783 2.4255746014482105 1.5
    vertex 3.054254790931285 2.361398918450235 1.0
    vertex 3.0542547909312847 2.361398918450235 1.5
  endloop
endfacet
facet normal -0.9400585788891247 0.3410130030614073 -1.5552900046912072e-15
  outer loop
    vertex 3.054254790931285 2.361398918450235 1.0
    vertex 3.0775349809897783 2.4255746014482105 1.5
    vertex 3.077534980989779 2.4255746014482096 1.0
  endloop
endfacet
facet normal -0.5726983304859123 -0.8197661997537156 -8.378188226633095e-16
  outer loop
    vertex 2.998630266182763 2.674896492834542 1.5
    vertex 2.942666673116023 2.7139933186452967 1.0
    vertex 2.9986302661827624 2.6748964928345433 1.0
  endloop
endfacet
facet normal -0.5726983304859123 -0.8197661997537156 -8.378188226633095e-16
  outer loop
    vertex 2.942666673116023 2.7139933186452967 1.0
    vertex 2.998630266182763 2.674896492834542 1.5
    vertex 2.942666673116023 2.7139933186452967 1.5
  endloop
endfacet
facet normal 0.9846211118941832 0.1747033657725645 9.579695567047971e-17
  outer loop
    vertex 2.5728416405397914 2.40299734483312 1.0
    vertex 2.5631914340525874 2.457385518749637 1.5
    vertex 2.5728416405397914 2.4029973448331194 1.5
  endloop
endfacet
facet normal 0.9846211118941832 0.1747033657725645 9.579695567047971e-17
  outer loop
    vertex 2.5631914340525874 2.457385518749637 1.5
    vertex 2.5728416405397914 2.40299734483312 1.0
    vertex 2.5631914340525874 2.457385518749637 1.0
  endloop
endfacet
facet normal 0.9846211118941832 0.1747033657725645 9.579695567047971e-17
  outer loop
    vertex 2.5631914340525874 2.457385518749637 1.5
    vertex 2.5631914340525874 2.457385518749637 1.0
    vertex 2.5631914340525874 2.457385518749637 1.4375
  endloop
endfacet
facet normal 0.9846211118941832 0.1747033657725645 9.579695567047971e-17
  outer loop
    vertex 2.5631914340525874 2.457385518749637 1.5
    vertex 2.5631914340525874 2.457385518749637 1.4375
    vertex 2.5609150350363894 2.4702152116438305 1.4375
  endloop
endfacet
facet normal 0.9846211118941832 0.1747033657725645 9.579695567047971e-17
  outer loop
    vertex 2.5631914340525874 2.457385518749637 1.5
    vertex 2.5609150350363894 2.4702152116438305 1.4375
    vertex 2.560915035036389 2.4702152116438305 1.5
  endloop
endfacet
facet normal 0.0 0.0 1.0
  outer loop
    vertex 2.3392006187815886 2.3524925370888745 1.5
    vertex 2.3392006187815886 2.6113115821913953 1.5
    vertex 2.322163531926123 2.4819020596401344 1.5
  endloop
endfacet
facet normal 0.0 0.0 1.0
  outer loop
    vertex 2.3392006187815886 2.6113115821913953 1.5
    vertex 2.3392006187815886 2.3524925370888745 1.5
    vertex 2.3891508300339037 2.231902059640135 1.5
  endloop
endfacet
facet normal 0.0 0.0 1.0
  outer loop
    vertex 2.3392006187815886 2.6113115821913953 1.5
    vertex 2.3891508300339037 2.231902059640135 1.5
    vertex 2.3891508300339037 2.7319020596401344 1.5
  endloop
endfacet
facet normal 0.0 0.0 1.0
  outer loop
    vertex 2.3891508300339037 2.7319020596401344 1.5
    vertex 2.3891508300339037 2.231902059640135 1.5
    vertex 2.468610141332849 2.128348669046861 1.5
  endloop
endfacet
facet normal 0.0 0.0 1.0
  outer loop
    vertex 2.3891508300339037 2.7319020596401344 1.5
    vertex 2.468610141332849 2.128348669046861 1.5
    vertex 2.4686101413328494 2.8354554502334084 1.5
  endloop
endfacet
facet normal 0.0 0.0 1.0
  outer loop
    vertex 2.4686101413328494 2.8354554502334084 1.5
    vertex 2.468610141332849 2.128348669046861 1.5
    vertex 2.5721635319261225 2.0488893577479153 1.5
  endloop
endfacet
facet normal 0.0 0.0 1.0
  outer loop
    vertex 2.4686101413328494 2.8354554502334084 1.5
    vertex 2.5721635319261225 2.0488893577479153 1.5
    vertex 2.560915035036389 2.4702152116438305 1.5
  endloop
endfacet
facet normal 0.0 0.0 1.0
  outer loop
    vertex 2.560915035036389 2.4702152116438305 1.5
    vertex 2.5721635319261225 2.0488893577479153 1.5
    vertex 2.5631914340525874 2.457385518749637 1.5
  endloop
endfacet
facet normal 0.0 0.0 1.0
  outer loop
    vertex 2.5631914340525874 2.457385518749637 1.5
    vertex 2.5721635319261225 2.0488893577479153 1.5
    vertex 2.5728416405397914 2.4029973448331194 1.5
  endloop
endfacet
facet normal 0.0 0.0 1.0
  outer loop
    vertex 2.5728416405397914 2.4029973448331194 1.5
    vertex 2.5721635319261225 2.0488893577479153 1.5
    vertex 2.692754009374862 1.9989391464956003 1.5
  endloop
endfacet
facet normal 0.0 0.0 1.0
  outer loop
    vertex 2.5728416405397914 2.4029973448331194 1.5
    vertex 2.692754009374862 1.9989391464956003 1.5
    vertex 2.601759120917266 2.3411567039403005 1.5
  endloop
endfacet
facet normal 0.0 0.0 1.0
  outer loop
    vertex 2.601759120917266 2.3411567039403005 1.5
    vertex 2.692754009374862 1.9989391464956003 1.5
    vertex 2.6456967976694825 2.2889076264457278 1.5
  endloop
endfacet
facet normal 0.0 0.0 1.0
  outer loop
    vertex 2.6456967976694825 2.2889076264457278 1.5
    vertex 2.692754009374862 1.9989391464956003 1.5
    vertex 2.7016603907362233 2.2498108006349726 1.5
  endloop
endfacet
facet normal 0.0 0.0 1.0
  outer loop
    vertex 2.7016603907362233 2.2498108006349726 1.5
    vertex 2.692754009374862 1.9989391464956003 1.5
    vertex 2.822163531926123 1.9819020596401344 1.5
  endloop
endfacet
facet normal 0.0 0.0 1.0
  outer loop
    vertex 2.7016603907362233 2.2498108006349726 1.5
    vertex 2.822163531926123 1.9819020596401344 1.5
    vertex 2.7658360737341985 2.2265306105764795 1.5
  endloop
endfacet
facet normal 0.0 0.0 1.0
  outer loop
    vertex 2.7658360737341985 2.2265306105764795 1.5
    vertex 2.822163531926123 1.9819020596401344 1.5
    vertex 2.8338503799224277 2.220653562750401 1.5
  endloop
endfacet
facet normal 0.0 0.0 1.0
  outer loop
    vertex 2.8338503799224277 2.220653562750401 1.5
    vertex 2.822163531926123 1.9819020596401344 1.5
    vertex 2.9515730544773833 1.9989391464956003 1.5
  endloop
endfacet
facet normal 0.0 0.0 1.0
  outer loop
    vertex 2.8338503799224277 2.220653562750401 1.5
    vertex 2.9515730544773833 1.9989391464956003 1.5
    vertex 2.9010682467331383 2.2325801682538033 1.5
  endloop
endfacet
facet normal 0.0 0.0 1.0
  outer loop
    vertex 2.9010682467331383 2.2325801682538033 1.5
    vertex 2.9515730544773833 1.9989391464956003 1.5
    vertex 2.962908887625957 2.2614976486312774 1.5
  endloop
endfacet
facet normal 0.0 0.0 1.0
  outer loop
    vertex 2.962908887625957 2.2614976486312774 1.5
    vertex 2.9515730544773833 1.9989391464956003 1.5
    vertex 3.0721635319261225 2.0488893577479153 1.5
  endloop
endfacet
facet normal 0.0 0.0 1.0
  outer loop
    vertex 2.962908887625957 2.2614976486312774 1.5
    vertex 3.0721635319261225 2.0488893577479153 1.5
    vertex 3.01515796512053 2.3054353253834945 1.5
  endloop
endfacet
facet normal 0.0 0.0 1.0
  outer loop
    vertex 3.01515796512053 2.3054353253834945 1.5
    vertex 3.0721635319261225 2.0488893577479153 1.5
    vertex 3.0542547909312847 2.361398918450235 1.5
  endloop
endfacet
facet normal 0.0 0.0 1.0
  outer loop
    vertex 3.0542547909312847 2.361398918450235 1.5
    vertex 3.0721635319261225 2.0488893577479153 1.5
    vertex 3.0775349809897783 2.4255746014482105 1.5
  endloop
endfacet
facet normal 0.0 0.0 1.0
  outer loop
    vertex 3.0775349809897783 2.4255746014482105 1.5
    vertex 3.0721635319261225 2.0488893577479153 1.5
    vertex 3.175716922519397 2.128348669046861 1.5
  endloop
endfacet
facet normal 0.0 0.0 1.0
  outer loop
    vertex 3.0775349809897783 2.4255746014482105 1.5
    vertex 3.175716922519397 2.128348669046861 1.5
    vertex 3.080283730375746 2.4573855187496365 1.5
  endloop
endfacet
facet normal 0.0 0.0 1.0
  outer loop
    vertex 3.080283730375746 2.4573855187496365 1.5
    vertex 3.175716922519397 2.128348669046861 1.5
    vertex 3.0834120288158573 2.4935889076364397 1.5
  endloop
endfacet
facet normal 0.0 0.0 1.0
  outer loop
    vertex 2.560915035036389 2.4702152116438305 1.5
    vertex 2.572163531926123 2.914914761532354 1.5
    vertex 2.4686101413328494 2.8354554502334084 1.5
  endloop
endfacet
facet normal 0.0 0.0 1.0
  outer loop
    vertex 2.572163531926123 2.914914761532354 1.5
    vertex 2.560915035036389 2.4702152116438305 1.5
    vertex 2.5640433334764996 2.506418600530634 1.5
  endloop
endfacet
facet normal 0.0 0.0 1.0
  outer loop
    vertex 2.572163531926123 2.914914761532354 1.5
    vertex 2.5640433334764996 2.506418600530634 1.5
    vertex 2.5667920828624675 2.5382295178320593 1.5
  endloop
endfacet
facet normal 0.0 0.0 1.0
  outer loop
    vertex 2.572163531926123 2.914914761532354 1.5
    vertex 2.5667920828624675 2.5382295178320593 1.5
    vertex 2.5900722729209606 2.6024052008300345 1.5
  endloop
endfacet
facet normal 0.0 0.0 1.0
  outer loop
    vertex 2.572163531926123 2.914914761532354 1.5
    vertex 2.5900722729209606 2.6024052008300345 1.5
    vertex 2.6927540093748625 2.9648649727846683 1.5
  endloop
endfacet
facet normal 0.0 0.0 1.0
  outer loop
    vertex 2.6927540093748625 2.9648649727846683 1.5
    vertex 2.5900722729209606 2.6024052008300345 1.5
    vertex 2.629169098731716 2.658368793896775 1.5
  endloop
endfacet
facet normal 0.0 0.0 1.0
  outer loop
    vertex 2.6927540093748625 2.9648649727846683 1.5
    vertex 2.629169098731716 2.658368793896775 1.5
    vertex 2.6814181762262885 2.702306470648992 1.5
  endloop
endfacet
facet normal 0.0 0.0 1.0
  outer loop
    vertex 2.6927540093748625 2.9648649727846683 1.5
    vertex 2.6814181762262885 2.702306470648992 1.5
    vertex 2.743258817119108 2.7312239510264664 1.5
  endloop
endfacet
facet normal 0.0 0.0 1.0
  outer loop
    vertex 2.6927540093748625 2.9648649727846683 1.5
    vertex 2.743258817119108 2.7312239510264664 1.5
    vertex 2.822163531926123 2.9819020596401344 1.5
  endloop
endfacet
facet normal 0.0 0.0 1.0
  outer loop
    vertex 2.822163531926123 2.9819020596401344 1.5
    vertex 2.743258817119108 2.7312239510264664 1.5
    vertex 2.810476683929818 2.743150556529869 1.5
  endloop
endfacet
facet normal 0.0 0.0 1.0
  outer loop
    vertex 2.822163531926123 2.9819020596401344 1.5
    vertex 2.810476683929818 2.743150556529869 1.5
    vertex 2.8784909901180478 2.7372735087037903 1.5
  endloop
endfacet
facet normal 0.0 0.0 1.0
  outer loop
    vertex 2.822163531926123 2.9819020596401344 1.5
    vertex 2.8784909901180478 2.7372735087037903 1.5
    vertex 2.9515730544773833 2.9648649727846683 1.5
  endloop
endfacet
facet normal 0.0 0.0 1.0
  outer loop
    vertex 2.9515730544773833 2.9648649727846683 1.5
    vertex 2.8784909901180478 2.7372735087037903 1.5
    vertex 2.942666673116023 2.7139933186452967 1.5
  endloop
endfacet
facet normal 0.0 0.0 1.0
  outer loop
    vertex 2.9515730544773833 2.9648649727846683 1.5
    vertex 2.942666673116023 2.7139933186452967 1.5
    vertex 2.998630266182763 2.674896492834542 1.5
  endloop
endfacet
facet normal 0.0 0.0 1.0
  outer loop
    vertex 2.9515730544773833 2.9648649727846683 1.5
    vertex 2.998630266182763 2.674896492834542 1.5
    vertex 3.072163531926123 2.914914761532354 1.5
  endloop
endfacet
facet normal 0.0 0.0 1.0
  outer loop
    vertex 3.072163531926123 2.914914761532354 1.5
    vertex 2.998630266182763 2.674896492834542 1.5
    vertex 3.0425679429349803 2.622647415339969 1.5
  endloop
endfacet
facet normal 0.0 0.0 1.0
  outer loop
    vertex 3.072163531926123 2.914914761532354 1.5
    vertex 3.0425679429349803 2.622647415339969 1.5
    vertex 3.0714854233124544 2.5608067744471503 1.5
  endloop
endfacet
facet normal 0.0 0.0 1.0
  outer loop
    vertex 3.072163531926123 2.914914761532354 1.5
    vertex 3.0714854233124544 2.5608067744471503 1.5
    vertex 3.081135629799659 2.5064186005306333 1.5
  endloop
endfacet
facet normal 0.0 0.0 1.0
  outer loop
    vertex 3.072163531926123 2.914914761532354 1.5
    vertex 3.081135629799659 2.5064186005306333 1.5
    vertex 3.175716922519397 2.8354554502334084 1.5
  endloop
endfacet
facet normal 0.0 0.0 1.0
  outer loop
    vertex 3.175716922519397 2.8354554502334084 1.5
    vertex 3.081135629799659 2.5064186005306333 1.5
    vertex 3.0834120288158573 2.4935889076364397 1.5
  endloop
endfacet
facet normal 0.0 0.0 1.0
  outer loop
    vertex 3.175716922519397 2.8354554502334084 1.5
    vertex 3.0834120288158573 2.4935889076364397 1.5
    vertex 3.175716922519397 2.128348669046861 1.5
  endloop
endfacet
facet normal 0.0 0.0 1.0
  outer loop
    vertex 3.175716922519397 2.8354554502334084 1.5
    vertex 3.175716922519397 2.128348669046861 1.5
    vertex 3.255176233818342 2.2319020596401344 1.5
  endloop
endfacet
facet normal 0.0 0.0 1.0
  outer loop
    vertex 3.175716922519397 2.8354554502334084 1.5
    vertex 3.255176233818342 2.2319020596401344 1.5
    vertex 3.2551762338183425 2.7319020596401344 1.5
  endloop
endfacet
facet normal 0.0 0.0 1.0
  outer loop
    vertex 3.2551762338183425 2.7319020596401344 1.5
    vertex 3.255176233818342 2.2319020596401344 1.5
    vertex 3.305126445070657 2.3524925370888736 1.5
  endloop
endfacet
facet normal 0.0 0.0 1.0
  outer loop
    vertex 3.2551762338183425 2.7319020596401344 1.5
    vertex 3.305126445070657 2.3524925370888736 1.5
    vertex 3.305126445070657 2.611311582191395 1.5
  endloop
endfacet
facet normal 0.0 0.0 1.0
  outer loop
    vertex 3.305126445070657 2.611311582191395 1.5
    vertex 3.305126445070657 2.3524925370888736 1.5
    vertex 3.322163531926123 2.4819020596401344 1.5
  endloop
endfacet
facet normal -0.996287519393502 0.08608820302888365 -8.158709816505404e-16
  outer loop
    vertex 3.0834120288158573 2.4935889076364397 1.5
    vertex 3.080283730375746 2.4573855187496365 1.4375
    vertex 3.080283730375746 2.4573855187496365 1.5
  endloop
endfacet
facet normal -0.996287519393502 0.08608820302888365 -8.158709816505404e-16
  outer loop
    vertex 3.080283730375746 2.4573855187496365 1.4375
    vertex 3.0834120288158573 2.4935889076364397 1.5
    vertex 3.0834120288158573 2.4935889076364397 1.4375
  endloop
endfacet
facet normal -0.996287519393502 0.08608820302888365 -8.158709816505404e-16
  outer loop
    vertex 3.0775349809897783 2.4255746014482105 1.5
    vertex 3.080283730375746 2.4573855187496365 1.0
    vertex 3.077534980989779 2.4255746014482096 1.0
  endloop
endfacet
facet normal -0.996287519393502 0.08608820302888365 -8.158709816505404e-16
  outer loop
    vertex 3.080283730375746 2.4573855187496365 1.0
    vertex 3.0775349809897783 2.4255746014482105 1.5
    vertex 3.080283730375746 2.4573855187496365 1.5
  endloop
endfacet
facet normal -0.996287519393502 0.08608820302888365 -8.158709816505404e-16
  outer loop
    vertex 3.080283730375746 2.4573855187496365 1.0
    vertex 3.080283730375746 2.4573855187496365 1.5
    vertex 3.080283730375746 2.4573855187496365 1.4375
  endloop
endfacet
facet normal 0.13052619222005366 0.9914448613738103 3.338178700999372e-17
  outer loop
    vertex 2.822163531926123 2.9819020596401344 1.5
    vertex 2.9515730544773837 2.9648649727846683 0.0
    vertex 2.8221635319261233 2.9819020596401344 0.0
  endloop
endfacet
facet normal 0.13052619222005366 0.9914448613738103 3.338178700999372e-17
  outer loop
    vertex 2.9515730544773837 2.9648649727846683 0.0
    vertex 2.822163531926123 2.9819020596401344 1.5
    vertex 2.9515730544773833 2.9648649727846683 1.5
  endloop
endfacet
facet normal -0.9914448613738107 -0.1305261922200504 -2.3426951442571113e-16
  outer loop
    vertex 2.3392006187815886 2.3524925370888745 1.5
    vertex 2.3221635319261233 2.4819020596401344 0.0
    vertex 2.339200618781589 2.352492537088874 0.0
  endloop
endfacet
facet normal -0.9914448613738107 -0.1305261922200504 -2.3426951442571113e-16
  outer loop
    vertex 2.3221635319261233 2.4819020596401344 0.0
    vertex 2.3392006187815886 2.3524925370888745 1.5
    vertex 2.322163531926123 2.4819020596401344 1.5
  endloop
endfacet
facet normal 0.9962875193935027 -0.08608820302887767 3.149550097704e-16
  outer loop
    vertex 2.5667920828624675 2.5382295178320593 1.0
    vertex 2.5640433334765 2.506418600530634 1.4375
    vertex 2.5640433334765 2.506418600530634 1.0
  endloop
endfacet
facet normal 0.9962875193935027 -0.08608820302887767 3.149550097704e-16
  outer loop
    vertex 2.5640433334765 2.506418600530634 1.4375
    vertex 2.5667920828624675 2.5382295178320593 1.0
    vertex 2.5640433334764996 2.506418600530634 1.5
  endloop
endfacet
facet normal 0.9962875193935027 -0.08608820302887767 3.149550097704e-16
  outer loop
    vertex 2.5640433334764996 2.506418600530634 1.5
    vertex 2.5667920828624675 2.5382295178320593 1.0
    vertex 2.5667920828624675 2.5382295178320593 1.5
  endloop
endfacet
facet normal 0.9962875193935027 -0.08608820302887767 3.149550097704e-16
  outer loop
    vertex 2.5640433334765 2.506418600530634 1.4375
    vertex 2.560915035036389 2.4702152116438305 1.5
    vertex 2.5609150350363894 2.4702152116438305 1.4375
  endloop
endfacet
facet normal 0.9962875193935027 -0.08608820302887767 3.149550097704e-16
  outer loop
    vertex 2.560915035036389 2.4702152116438305 1.5
    vertex 2.5640433334765 2.506418600530634 1.4375
    vertex 2.5640433334764996 2.506418600530634 1.5
  endloop
endfacet
facet normal 0.0 0.0 1.0
  outer loop
    vertex 2.5631914340525874 2.457385518749637 1.4375
    vertex 2.5640433334765 2.506418600530634 1.4375
    vertex 2.5609150350363894 2.4702152116438305 1.4375
  endloop
endfacet
facet normal 0.0 0.0 1.0
  outer loop
    vertex 2.5640433334765 2.506418600530634 1.4375
    vertex 2.5631914340525874 2.457385518749637 1.4375
    vertex 3.080283730375746 2.4573855187496365 1.4375
  endloop
endfacet
facet normal 0.0 0.0 1.0
  outer loop
    vertex 2.5640433334765 2.506418600530634 1.4375
    vertex 3.080283730375746 2.4573855187496365 1.4375
    vertex 3.0811356297996593 2.5064186005306333 1.4375
  endloop
endfacet
facet normal 0.0 0.0 1.0
  outer loop
    vertex 3.0811356297996593 2.5064186005306333 1.4375
    vertex 3.080283730375746 2.4573855187496365 1.4375
    vertex 3.0834120288158573 2.4935889076364397 1.4375
  endloop
endfacet
facet normal -0.9846211118941809 -0.1747033657725776 -3.519730843173848e-16
  outer loop
    vertex 3.081135629799659 2.5064186005306333 1.5
    vertex 3.0834120288158573 2.4935889076364397 1.4375
    vertex 3.0834120288158573 2.4935889076364397 1.5
  endloop
endfacet
facet normal -0.9846211118941809 -0.1747033657725776 -3.519730843173848e-16
  outer loop
    vertex 3.0834120288158573 2.4935889076364397 1.4375
    vertex 3.081135629799659 2.5064186005306333 1.5
    vertex 3.0811356297996593 2.5064186005306333 1.4375
  endloop
endfacet
facet normal -0.9846211118941809 -0.1747033657725776 -3.519730843173848e-16
  outer loop
    vertex 3.0811356297996593 2.5064186005306333 1.4375
    vertex 3.081135629799659 2.5064186005306333 1.5
    vertex 3.0714854233124544 2.5608067744471503 1.5
  endloop
endfacet
facet normal -0.9846211118941809 -0.1747033657725776 -3.519730843173848e-16
  outer loop
    vertex 3.0811356297996593 2.5064186005306333 1.4375
    vertex 3.0714854233124544 2.5608067744471503 1.5
    vertex 3.0811356297996593 2.5064186005306333 1.0
  endloop
endfacet
facet normal -0.9846211118941809 -0.1747033657725776 -3.519730843173848e-16
  outer loop
    vertex 3.0811356297996593 2.5064186005306333 1.0
    vertex 3.0714854233124544 2.5608067744471503 1.5
    vertex 3.0714854233124544 2.56080677444715 1.0
  endloop
endfacet
endsolid Potentiometer test 1
