solid Nut test
facet normal 0.44842413700825745 0.8938208955648775 -2.1395168172129768e-15
  outer loop
    vertex -1.2584010327378237 3.5447503099503774 1.7499999999999996
    vertex -1.229234273231623 3.5301175361745627 0.9999999999999996
    vertex -1.2584010327378223 3.544750309950375 0.9999999999999996
  endloop
endfacet
facet normal 0.44842413700825745 0.8938208955648775 -2.1395168172129768e-15
  outer loop
    vertex -1.229234273231623 3.5301175361745627 0.9999999999999996
    vertex -1.2584010327378237 3.5447503099503774 1.7499999999999996
    vertex -1.2292342732316237 3.530117536174565 1.7499999999999996
  endloop
endfacet
facet normal -0.5309743521718558 -0.8473878907181046 1.9123745883473375e-15
  outer loop
    vertex -1.3961569163272505 3.1934834747003302 4.440892098500626e-16
    vertex -1.5067632310360672 3.262789535055837 2.0
    vertex -1.5067632310360655 3.262789535055831 2.220446049250313e-16
  endloop
endfacet
facet normal -0.5309743521718558 -0.8473878907181046 1.9123745883473375e-15
  outer loop
    vertex -1.5067632310360672 3.262789535055837 2.0
    vertex -1.3961569163272505 3.1934834747003302 4.440892098500626e-16
    vertex -1.396156916327252 3.1934834747003364 2.0
  endloop
endfacet
facet normal -0.20180658438488336 -0.9794253940443381 2.524767647215125e-15
  outer loop
    vertex -1.1472540811496177 3.7662938434244615 1.749999999999999
    vertex -1.1792142479616754 3.7728791046806327 0.9999999999999989
    vertex -1.1472540811496175 3.7662938434244593 0.9999999999999989
  endloop
endfacet
facet normal -0.20180658438488336 -0.9794253940443381 2.524767647215125e-15
  outer loop
    vertex -1.1792142479616754 3.7728791046806327 0.9999999999999989
    vertex -1.1472540811496177 3.7662938434244615 1.749999999999999
    vertex -1.179214247961676 3.7728791046806345 1.749999999999999
  endloop
endfacet
facet normal -0.46837226413525973 0.8835312230978657 -2.6710551477863724e-15
  outer loop
    vertex -1.4780887975633241 4.0556245112118265 -1.9984014443252818e-15
    vertex -1.3627648313048366 4.116759359390893 1.9999999999999976
    vertex -1.3627648313048348 4.116759359390887 -2.4424906541753444e-15
  endloop
endfacet
facet normal -0.46837226413525973 0.8835312230978657 -2.6710551477863724e-15
  outer loop
    vertex -1.3627648313048366 4.116759359390893 1.9999999999999976
    vertex -1.4780887975633241 4.0556245112118265 -1.9984014443252818e-15
    vertex -1.478088797563326 4.055624511211833 1.9999999999999976
  endloop
endfacet
facet normal -0.6644823257504341 -0.7473039801615499 1.3621171128789923e-15
  outer loop
    vertex -1.0937016359030722 3.7299779827042134 0.9999999999999991
    vertex -1.118087321643418 3.7516610696486485 1.7499999999999991
    vertex -1.1180873216434173 3.7516610696486463 0.9999999999999989
  endloop
endfacet
facet normal -0.6644823257504341 -0.7473039801615499 1.3621171128789923e-15
  outer loop
    vertex -1.118087321643418 3.7516610696486485 1.7499999999999991
    vertex -1.0937016359030722 3.7299779827042134 0.9999999999999991
    vertex -1.0937016359030742 3.7299779827042165 1.7499999999999991
  endloop
endfacet
facet normal -0.7322019645670036 -0.6810875737261843 1.2490851877632252e-15
  outer loop
    vertex -1.5067632310360672 3.262789535055837 2.0
    vertex -1.5956629986029378 3.358361069426803 -2.220446049250313e-16
    vertex -1.5067632310360655 3.262789535055831 2.220446049250313e-16
  endloop
endfacet
facet normal -0.7322019645670036 -0.6810875737261843 1.2490851877632252e-15
  outer loop
    vertex -1.5956629986029378 3.358361069426803 -2.220446049250313e-16
    vertex -1.5067632310360672 3.262789535055837 2.0
    vertex -1.5956629986029396 3.358361069426809 1.9999999999999998
  endloop
endfacet
facet normal -0.29356171515280605 -0.9559401233322843 2.3544655290228303e-15
  outer loop
    vertex -1.2713816920383212 3.155165981839847 6.661338147750939e-16
    vertex -1.396156916327252 3.1934834747003364 2.0
    vertex -1.3961569163272505 3.1934834747003302 4.440892098500626e-16
  endloop
endfacet
facet normal -0.29356171515280605 -0.9559401233322843 2.3544655290228303e-15
  outer loop
    vertex -1.396156916327252 3.1934834747003364 2.0
    vertex -1.2713816920383212 3.155165981839847 6.661338147750939e-16
    vertex -1.2713816920383232 3.155165981839853 2.0
  endloop
endfacet
facet normal 0.5498595334884107 -0.8352571421017049 3.1927376574972235e-15
  outer loop
    vertex -1.242760736524539 3.7606909988775943 1.749999999999999
    vertex -1.2700164700953236 3.7427482310870577 0.9999999999999989
    vertex -1.2427607365245383 3.7606909988775916 0.9999999999999989
  endloop
endfacet
facet normal 0.5498595334884107 -0.8352571421017049 3.1927376574972235e-15
  outer loop
    vertex -1.2700164700953236 3.7427482310870577 0.9999999999999989
    vertex -1.242760736524539 3.7606909988775943 1.749999999999999
    vertex -1.2700164700953238 3.74274823108706 1.749999999999999
  endloop
endfacet
facet normal -0.5498595334884183 0.8352571421016997 -2.899211014098945e-15
  outer loop
    vertex -1.1337276178567017 3.535720380721432 1.7499999999999996
    vertex -1.1064718842859171 3.5536631485119643 0.9999999999999998
    vertex -1.1337276178567013 3.53572038072143 0.9999999999999998
  endloop
endfacet
facet normal -0.5498595334884183 0.8352571421016997 -2.899211014098945e-15
  outer loop
    vertex -1.1064718842859171 3.5536631485119643 0.9999999999999998
    vertex -1.1337276178567017 3.535720380721432 1.7499999999999996
    vertex -1.1064718842859176 3.5536631485119665 1.7499999999999996
  endloop
endfacet
facet normal -0.05856375346316427 0.9982836704966709 -3.73661469868866e-15
  outer loop
    vertex -1.1972741064195656 3.523532274918391 1.7499999999999996
    vertex -1.164698564853218 3.5254433008538033 0.9999999999999998
    vertex -1.197274106419565 3.5235322749183884 0.9999999999999998
  endloop
endfacet
facet normal -0.05856375346316427 0.9982836704966709 -3.73661469868866e-15
  outer loop
    vertex -1.164698564853218 3.5254433008538033 0.9999999999999998
    vertex -1.1972741064195656 3.523532274918391 1.7499999999999996
    vertex -1.1646985648532184 3.5254433008538064 1.7499999999999996
  endloop
endfacet
facet normal 0.6644823257504501 0.7473039801615357 -1.522343345204156e-15
  outer loop
    vertex -1.2827867184781674 3.5664333968948103 1.7499999999999996
    vertex -1.2584010327378223 3.544750309950375 0.9999999999999996
    vertex -1.2827867184781665 3.5664333968948077 0.9999999999999993
  endloop
endfacet
facet normal 0.6644823257504501 0.7473039801615357 -1.522343345204156e-15
  outer loop
    vertex -1.2584010327378223 3.544750309950375 0.9999999999999996
    vertex -1.2827867184781674 3.5664333968948103 1.7499999999999996
    vertex -1.2584010327378237 3.5447503099503774 1.7499999999999996
  endloop
endfacet
facet normal 0.9491105645464213 0.3149430682938959 6.544567199152168e-16
  outer loop
    vertex -1.3110065661363255 3.6246600774621096 0.9999999999999993
    vertex -1.3007294862687013 3.593689130465595 1.7499999999999993
    vertex -1.3007294862687 3.5936891304655925 0.9999999999999993
  endloop
endfacet
facet normal 0.9491105645464213 0.3149430682938959 6.544567199152168e-16
  outer loop
    vertex -1.3007294862687013 3.593689130465595 1.7499999999999993
    vertex -1.3110065661363255 3.6246600774621096 0.9999999999999993
    vertex -1.3110065661363268 3.6246600774621123 1.7499999999999993
  endloop
endfacet
facet normal -0.8352571421017052 -0.54985953348841 3.3547919976381793e-16
  outer loop
    vertex -1.0757588681125398 3.702722249133432 1.7499999999999991
    vertex -1.0937016359030722 3.7299779827042134 0.9999999999999991
    vertex -1.0757588681125383 3.7027222491334286 0.9999999999999993
  endloop
endfacet
facet normal -0.8352571421017052 -0.54985953348841 3.3547919976381793e-16
  outer loop
    vertex -1.0937016359030722 3.7299779827042134 0.9999999999999991
    vertex -1.0757588681125398 3.702722249133432 1.7499999999999991
    vertex -1.0937016359030742 3.7299779827042165 1.7499999999999991
  endloop
endfacet
facet normal 0.97464928887899 0.223738158765283 2.4509042490760543e-16
  outer loop
    vertex -0.7196905075992404 3.8227263439137236 -8.881784197001252e-16
    vertex -0.690486817681284 3.695509083486373 1.9999999999999993
    vertex -0.6904868176812824 3.6955090834863666 -4.440892098500626e-16
  endloop
endfacet
facet normal 0.97464928887899 0.223738158765283 2.4509042490760543e-16
  outer loop
    vertex -0.690486817681284 3.695509083486373 1.9999999999999993
    vertex -0.7196905075992404 3.8227263439137236 -8.881784197001252e-16
    vertex -0.7196905075992419 3.82272634391373 1.9999999999999993
  endloop
endfacet
facet normal -0.8473878907181027 0.5309743521718585 -2.2589847912594616e-15
  outer loop
    vertex -1.6429663922897997 3.856118428936145 1.9999999999999984
    vertex -1.5736603319342963 3.9667247436449538 -1.9984014443252818e-15
    vertex -1.6429663922897977 3.856118428936139 -1.7763568394002505e-15
  endloop
endfacet
facet normal -0.8473878907181027 0.5309743521718585 -2.2589847912594616e-15
  outer loop
    vertex -1.5736603319342963 3.9667247436449538 -1.9984014443252818e-15
    vertex -1.6429663922897997 3.856118428936145 1.9999999999999984
    vertex -1.5736603319342983 3.9667247436449604 1.999999999999998
  endloop
endfacet
facet normal 0.05856375346316656 -0.9982836704966708 2.3026303815796605e-15
  outer loop
    vertex -1.179214247961676 3.7728791046806345 1.749999999999999
    vertex -1.2117897895280212 3.7709680787452178 0.9999999999999989
    vertex -1.1792142479616754 3.7728791046806327 0.9999999999999989
  endloop
endfacet
facet normal 0.05856375346316656 -0.9982836704966708 2.3026303815796605e-15
  outer loop
    vertex -1.2117897895280212 3.7709680787452178 0.9999999999999989
    vertex -1.179214247961676 3.7728791046806345 1.749999999999999
    vertex -1.211789789528022 3.7709680787452196 1.749999999999999
  endloop
endfacet
facet normal -0.6810875737261846 0.7322019645670033 -2.561747998623597e-15
  outer loop
    vertex -1.5736603319342983 3.9667247436449604 1.999999999999998
    vertex -1.4780887975633241 4.0556245112118265 -1.9984014443252818e-15
    vertex -1.5736603319342963 3.9667247436449538 -1.9984014443252818e-15
  endloop
endfacet
facet normal -0.6810875737261846 0.7322019645670033 -2.561747998623597e-15
  outer loop
    vertex -1.4780887975633241 4.0556245112118265 -1.9984014443252818e-15
    vertex -1.5736603319342983 3.9667247436449604 1.999999999999998
    vertex -1.478088797563326 4.055624511211833 1.9999999999999976
  endloop
endfacet
facet normal -0.4484241370082684 -0.8938208955648719 2.4290467732449554e-15
  outer loop
    vertex -1.118087321643418 3.7516610696486485 1.7499999999999991
    vertex -1.1472540811496175 3.7662938434244593 0.9999999999999989
    vertex -1.1180873216434173 3.7516610696486463 0.9999999999999989
  endloop
endfacet
facet normal -0.4484241370082684 -0.8938208955648719 2.4290467732449554e-15
  outer loop
    vertex -1.1472540811496175 3.7662938434244593 0.9999999999999989
    vertex -1.118087321643418 3.7516610696486485 1.7499999999999991
    vertex -1.1472540811496177 3.7662938434244615 1.749999999999999
  endloop
endfacet
facet normal -9.15933995315754e-16 2.914335439641035e-15 1.0
  outer loop
    vertex -1.3110065661363255 3.6246600774621096 0.9999999999999993
    vertex -1.306332330815568 3.6891957858405138 0.9999999999999989
    vertex -1.3129175920717417 3.6572356190284556 0.9999999999999991
  endloop
endfacet
facet normal -9.15933995315754e-16 2.914335439641035e-15 1.0
  outer loop
    vertex -1.306332330815568 3.6891957858405138 0.9999999999999989
    vertex -1.3110065661363255 3.6246600774621096 0.9999999999999993
    vertex -1.3007294862687 3.5936891304655925 0.9999999999999993
  endloop
endfacet
facet normal -9.15933995315754e-16 2.914335439641035e-15 1.0
  outer loop
    vertex -1.306332330815568 3.6891957858405138 0.9999999999999989
    vertex -1.3007294862687 3.5936891304655925 0.9999999999999993
    vertex -1.2916995570397556 3.7183625453467144 0.9999999999999989
  endloop
endfacet
facet normal -9.15933995315754e-16 2.914335439641035e-15 1.0
  outer loop
    vertex -1.2916995570397556 3.7183625453467144 0.9999999999999989
    vertex -1.3007294862687 3.5936891304655925 0.9999999999999993
    vertex -1.2827867184781665 3.5664333968948077 0.9999999999999993
  endloop
endfacet
facet normal -9.15933995315754e-16 2.914335439641035e-15 1.0
  outer loop
    vertex -1.2916995570397556 3.7183625453467144 0.9999999999999989
    vertex -1.2827867184781665 3.5664333968948077 0.9999999999999993
    vertex -1.2700164700953236 3.7427482310870577 0.9999999999999989
  endloop
endfacet
facet normal -9.15933995315754e-16 2.914335439641035e-15 1.0
  outer loop
    vertex -1.2700164700953236 3.7427482310870577 0.9999999999999989
    vertex -1.2827867184781665 3.5664333968948077 0.9999999999999993
    vertex -1.2584010327378223 3.544750309950375 0.9999999999999996
  endloop
endfacet
facet normal -9.15933995315754e-16 2.914335439641035e-15 1.0
  outer loop
    vertex -1.2700164700953236 3.7427482310870577 0.9999999999999989
    vertex -1.2584010327378223 3.544750309950375 0.9999999999999996
    vertex -1.2427607365245383 3.7606909988775916 0.9999999999999989
  endloop
endfacet
facet normal -9.15933995315754e-16 2.914335439641035e-15 1.0
  outer loop
    vertex -1.2427607365245383 3.7606909988775916 0.9999999999999989
    vertex -1.2584010327378223 3.544750309950375 0.9999999999999996
    vertex -1.229234273231623 3.5301175361745627 0.9999999999999996
  endloop
endfacet
facet normal -9.15933995315754e-16 2.914335439641035e-15 1.0
  outer loop
    vertex -1.2427607365245383 3.7606909988775916 0.9999999999999989
    vertex -1.229234273231623 3.5301175361745627 0.9999999999999996
    vertex -1.2117897895280212 3.7709680787452178 0.9999999999999989
  endloop
endfacet
facet normal -9.15933995315754e-16 2.914335439641035e-15 1.0
  outer loop
    vertex -1.2117897895280212 3.7709680787452178 0.9999999999999989
    vertex -1.229234273231623 3.5301175361745627 0.9999999999999996
    vertex -1.197274106419565 3.5235322749183884 0.9999999999999998
  endloop
endfacet
facet normal -9.15933995315754e-16 2.914335439641035e-15 1.0
  outer loop
    vertex -1.2117897895280212 3.7709680787452178 0.9999999999999989
    vertex -1.197274106419565 3.5235322749183884 0.9999999999999998
    vertex -1.1792142479616754 3.7728791046806327 0.9999999999999989
  endloop
endfacet
facet normal -9.15933995315754e-16 2.914335439641035e-15 1.0
  outer loop
    vertex -1.1792142479616754 3.7728791046806327 0.9999999999999989
    vertex -1.197274106419565 3.5235322749183884 0.9999999999999998
    vertex -1.164698564853218 3.5254433008538033 0.9999999999999998
  endloop
endfacet
facet normal -9.15933995315754e-16 2.914335439641035e-15 1.0
  outer loop
    vertex -1.1792142479616754 3.7728791046806327 0.9999999999999989
    vertex -1.164698564853218 3.5254433008538033 0.9999999999999998
    vertex -1.1472540811496175 3.7662938434244593 0.9999999999999989
  endloop
endfacet
facet normal -9.15933995315754e-16 2.914335439641035e-15 1.0
  outer loop
    vertex -1.1472540811496175 3.7662938434244593 0.9999999999999989
    vertex -1.164698564853218 3.5254433008538033 0.9999999999999998
    vertex -1.1337276178567013 3.53572038072143 0.9999999999999998
  endloop
endfacet
facet normal -9.15933995315754e-16 2.914335439641035e-15 1.0
  outer loop
    vertex -1.1472540811496175 3.7662938434244593 0.9999999999999989
    vertex -1.1337276178567013 3.53572038072143 0.9999999999999998
    vertex -1.1180873216434173 3.7516610696486463 0.9999999999999989
  endloop
endfacet
facet normal -9.15933995315754e-16 2.914335439641035e-15 1.0
  outer loop
    vertex -1.1180873216434173 3.7516610696486463 0.9999999999999989
    vertex -1.1337276178567013 3.53572038072143 0.9999999999999998
    vertex -1.1064718842859171 3.5536631485119643 0.9999999999999998
  endloop
endfacet
facet normal -9.15933995315754e-16 2.914335439641035e-15 1.0
  outer loop
    vertex -1.1180873216434173 3.7516610696486463 0.9999999999999989
    vertex -1.1064718842859171 3.5536631485119643 0.9999999999999998
    vertex -1.0937016359030722 3.7299779827042134 0.9999999999999991
  endloop
endfacet
facet normal -9.15933995315754e-16 2.914335439641035e-15 1.0
  outer loop
    vertex -1.0937016359030722 3.7299779827042134 0.9999999999999991
    vertex -1.1064718842859171 3.5536631485119643 0.9999999999999998
    vertex -1.0847887973414854 3.5780488342523067 0.9999999999999996
  endloop
endfacet
facet normal -9.15933995315754e-16 2.914335439641035e-15 1.0
  outer loop
    vertex -1.0937016359030722 3.7299779827042134 0.9999999999999991
    vertex -1.0847887973414854 3.5780488342523067 0.9999999999999996
    vertex -1.0757588681125383 3.7027222491334286 0.9999999999999993
  endloop
endfacet
facet normal -9.15933995315754e-16 2.914335439641035e-15 1.0
  outer loop
    vertex -1.0757588681125383 3.7027222491334286 0.9999999999999993
    vertex -1.0847887973414854 3.5780488342523067 0.9999999999999996
    vertex -1.0701560235656722 3.6072155937585073 0.9999999999999996
  endloop
endfacet
facet normal -9.15933995315754e-16 2.914335439641035e-15 1.0
  outer loop
    vertex -1.0757588681125383 3.7027222491334286 0.9999999999999993
    vertex -1.0701560235656722 3.6072155937585073 0.9999999999999996
    vertex -1.0654817882449137 3.6717513021369115 0.9999999999999993
  endloop
endfacet
facet normal -9.15933995315754e-16 2.914335439641035e-15 1.0
  outer loop
    vertex -1.0654817882449137 3.6717513021369115 0.9999999999999993
    vertex -1.0701560235656722 3.6072155937585073 0.9999999999999996
    vertex -1.0635707623094985 3.6391757605705637 0.9999999999999993
  endloop
endfacet
facet normal 0.6810875737261819 -0.7322019645670058 2.300598805309634e-15
  outer loop
    vertex -0.8028280224469437 3.3296866359540678 2.0
    vertex -0.898399556817915 3.2407868683871897 6.661338147750939e-16
    vertex -0.8028280224469428 3.3296866359540616 6.661338147750939e-16
  endloop
endfacet
facet normal 0.6810875737261819 -0.7322019645670058 2.300598805309634e-15
  outer loop
    vertex -0.898399556817915 3.2407868683871897 6.661338147750939e-16
    vertex -0.8028280224469437 3.3296866359540678 2.0
    vertex -0.898399556817916 3.240786868387196 2.000000000000001
  endloop
endfacet
facet normal 9.15933995315754e-16 -2.914335439641035e-15 -1.0
  outer loop
    vertex -1.6812838851502807 3.7313432046472097 -1.3322676295501878e-15
    vertex -1.6567978467819977 3.4736850356852926 -6.661338147750939e-16
    vertex -1.686001536699955 3.6009022961126487 -1.1102230246251565e-15
  endloop
endfacet
facet normal 9.15933995315754e-16 -2.914335439641035e-15 -1.0
  outer loop
    vertex -1.6567978467819977 3.4736850356852926 -6.661338147750939e-16
    vertex -1.6812838851502807 3.7313432046472097 -1.3322676295501878e-15
    vertex -1.6429663922897977 3.856118428936139 -1.7763568394002505e-15
  endloop
endfacet
facet normal 9.15933995315754e-16 -2.914335439641035e-15 -1.0
  outer loop
    vertex -1.6567978467819977 3.4736850356852926 -6.661338147750939e-16
    vertex -1.6429663922897977 3.856118428936139 -1.7763568394002505e-15
    vertex -1.5956629986029378 3.358361069426803 -2.220446049250313e-16
  endloop
endfacet
facet normal 9.15933995315754e-16 -2.914335439641035e-15 -1.0
  outer loop
    vertex -1.5956629986029378 3.358361069426803 -2.220446049250313e-16
    vertex -1.6429663922897977 3.856118428936139 -1.7763568394002505e-15
    vertex -1.5736603319342963 3.9667247436449538 -1.9984014443252818e-15
  endloop
endfacet
facet normal 9.15933995315754e-16 -2.914335439641035e-15 -1.0
  outer loop
    vertex -1.5956629986029378 3.358361069426803 -2.220446049250313e-16
    vertex -1.5736603319342963 3.9667247436449538 -1.9984014443252818e-15
    vertex -1.5067632310360655 3.262789535055831 2.220446049250313e-16
  endloop
endfacet
facet normal 9.15933995315754e-16 -2.914335439641035e-15 -1.0
  outer loop
    vertex -1.5067632310360655 3.262789535055831 2.220446049250313e-16
    vertex -1.5736603319342963 3.9667247436449538 -1.9984014443252818e-15
    vertex -1.4780887975633241 4.0556245112118265 -1.9984014443252818e-15
  endloop
endfacet
facet normal 9.15933995315754e-16 -2.914335439641035e-15 -1.0
  outer loop
    vertex -1.5067632310360655 3.262789535055831 2.220446049250313e-16
    vertex -1.4780887975633241 4.0556245112118265 -1.9984014443252818e-15
    vertex -1.3961569163272505 3.1934834747003302 4.440892098500626e-16
  endloop
endfacet
facet normal 9.15933995315754e-16 -2.914335439641035e-15 -1.0
  outer loop
    vertex -1.3961569163272505 3.1934834747003302 4.440892098500626e-16
    vertex -1.4780887975633241 4.0556245112118265 -1.9984014443252818e-15
    vertex -1.3627648313048348 4.116759359390887 -2.4424906541753444e-15
  endloop
endfacet
facet normal 9.15933995315754e-16 -2.914335439641035e-15 -1.0
  outer loop
    vertex -1.3961569163272505 3.1934834747003302 4.440892098500626e-16
    vertex -1.3627648313048348 4.116759359390887 -2.4424906541753444e-15
    vertex -1.2713816920383212 3.155165981839847 6.661338147750939e-16
  endloop
endfacet
facet normal 9.15933995315754e-16 -2.914335439641035e-15 -1.0
  outer loop
    vertex -1.2713816920383212 3.155165981839847 6.661338147750939e-16
    vertex -1.3627648313048348 4.116759359390887 -2.4424906541753444e-15
    vertex -1.235547570877479 4.145963049308844 -1.9984014443252818e-15
  endloop
endfacet
facet normal 9.15933995315754e-16 -2.914335439641035e-15 -1.0
  outer loop
    vertex -1.2713816920383212 3.155165981839847 6.661338147750939e-16
    vertex -1.235547570877479 4.145963049308844 -1.9984014443252818e-15
    vertex -1.1409407835037602 3.150448330290173 8.881784197001252e-16
  endloop
endfacet
facet normal 9.15933995315754e-16 -2.914335439641035e-15 -1.0
  outer loop
    vertex -1.1409407835037602 3.150448330290173 8.881784197001252e-16
    vertex -1.235547570877479 4.145963049308844 -1.9984014443252818e-15
    vertex -1.105106662342918 4.14124539775917 -1.9984014443252818e-15
  endloop
endfacet
facet normal 9.15933995315754e-16 -2.914335439641035e-15 -1.0
  outer loop
    vertex -1.1409407835037602 3.150448330290173 8.881784197001252e-16
    vertex -1.105106662342918 4.14124539775917 -1.9984014443252818e-15
    vertex -1.0137235230764041 3.1796520202081298 8.881784197001252e-16
  endloop
endfacet
facet normal 9.15933995315754e-16 -2.914335439641035e-15 -1.0
  outer loop
    vertex -1.0137235230764041 3.1796520202081298 8.881784197001252e-16
    vertex -1.105106662342918 4.14124539775917 -1.9984014443252818e-15
    vertex -0.9803314380539874 4.102927904898687 -1.7763568394002505e-15
  endloop
endfacet
facet normal 9.15933995315754e-16 -2.914335439641035e-15 -1.0
  outer loop
    vertex -1.0137235230764041 3.1796520202081298 8.881784197001252e-16
    vertex -0.9803314380539874 4.102927904898687 -1.7763568394002505e-15
    vertex -0.898399556817915 3.2407868683871897 6.661338147750939e-16
  endloop
endfacet
facet normal 9.15933995315754e-16 -2.914335439641035e-15 -1.0
  outer loop
    vertex -0.898399556817915 3.2407868683871897 6.661338147750939e-16
    vertex -0.9803314380539874 4.102927904898687 -1.7763568394002505e-15
    vertex -0.8697251233451726 4.033621844543186 -1.5543122344752192e-15
  endloop
endfacet
facet normal 9.15933995315754e-16 -2.914335439641035e-15 -1.0
  outer loop
    vertex -0.898399556817915 3.2407868683871897 6.661338147750939e-16
    vertex -0.8697251233451726 4.033621844543186 -1.5543122344752192e-15
    vertex -0.8028280224469428 3.3296866359540616 6.661338147750939e-16
  endloop
endfacet
facet normal 9.15933995315754e-16 -2.914335439641035e-15 -1.0
  outer loop
    vertex -0.8028280224469428 3.3296866359540616 6.661338147750939e-16
    vertex -0.8697251233451726 4.033621844543186 -1.5543122344752192e-15
    vertex -0.7808253557783003 3.9380503101722133 -1.1102230246251565e-15
  endloop
endfacet
facet normal 9.15933995315754e-16 -2.914335439641035e-15 -1.0
  outer loop
    vertex -0.8028280224469428 3.3296866359540616 6.661338147750939e-16
    vertex -0.7808253557783003 3.9380503101722133 -1.1102230246251565e-15
    vertex -0.7335219620914408 3.4402929506628777 2.220446049250313e-16
  endloop
endfacet
facet normal 9.15933995315754e-16 -2.914335439641035e-15 -1.0
  outer loop
    vertex -0.7335219620914408 3.4402929506628777 2.220446049250313e-16
    vertex -0.7808253557783003 3.9380503101722133 -1.1102230246251565e-15
    vertex -0.7196905075992404 3.8227263439137236 -8.881784197001252e-16
  endloop
endfacet
facet normal 9.15933995315754e-16 -2.914335439641035e-15 -1.0
  outer loop
    vertex -0.7335219620914408 3.4402929506628777 2.220446049250313e-16
    vertex -0.7196905075992404 3.8227263439137236 -8.881784197001252e-16
    vertex -0.6952044692309571 3.565068174951807 0.0
  endloop
endfacet
facet normal 9.15933995315754e-16 -2.914335439641035e-15 -1.0
  outer loop
    vertex -0.6952044692309571 3.565068174951807 0.0
    vertex -0.7196905075992404 3.8227263439137236 -8.881784197001252e-16
    vertex -0.6904868176812824 3.6955090834863666 -4.440892098500626e-16
  endloop
endfacet
facet normal 0.5309743521718597 0.847387890718102 -1.841815372317544e-15
  outer loop
    vertex -0.9803314380539888 4.102927904898693 1.9999999999999984
    vertex -0.8697251233451726 4.033621844543186 -1.5543122344752192e-15
    vertex -0.9803314380539874 4.102927904898687 -1.7763568394002505e-15
  endloop
endfacet
facet normal 0.5309743521718597 0.847387890718102 -1.841815372317544e-15
  outer loop
    vertex -0.8697251233451726 4.033621844543186 -1.5543122344752192e-15
    vertex -0.9803314380539888 4.102927904898693 1.9999999999999984
    vertex -0.869725123345174 4.033621844543192 1.9999999999999984
  endloop
endfacet
facet normal -0.8938208955648757 0.4484241370082615 -1.7650801224508292e-15
  outer loop
    vertex -1.0847887973414856 3.5780488342523094 1.7499999999999996
    vertex -1.0701560235656722 3.6072155937585073 0.9999999999999996
    vertex -1.0847887973414854 3.5780488342523067 0.9999999999999996
  endloop
endfacet
facet normal -0.8938208955648757 0.4484241370082615 -1.7650801224508292e-15
  outer loop
    vertex -1.0701560235656722 3.6072155937585073 0.9999999999999996
    vertex -1.0847887973414856 3.5780488342523094 1.7499999999999996
    vertex -1.0701560235656724 3.60721559375851 1.7499999999999996
  endloop
endfacet
facet normal 0.7473039801615392 -0.6644823257504461 2.451059928112624e-15
  outer loop
    vertex -1.2700164700953236 3.7427482310870577 0.9999999999999989
    vertex -1.291699557039756 3.7183625453467166 1.749999999999999
    vertex -1.2916995570397556 3.7183625453467144 0.9999999999999989
  endloop
endfacet
facet normal 0.7473039801615392 -0.6644823257504461 2.451059928112624e-15
  outer loop
    vertex -1.291699557039756 3.7183625453467166 1.749999999999999
    vertex -1.2700164700953236 3.7427482310870577 0.9999999999999989
    vertex -1.2700164700953238 3.74274823108706 1.749999999999999
  endloop
endfacet
facet normal 0.9965785114153342 -0.08265150080426167 1.2044618514280326e-15
  outer loop
    vertex -1.412570571908908 3.807098007567717 1.7499999999999987
    vertex -1.4357118571623981 3.528069709403148 1.9999999999999993
    vertex -1.435711857162398 3.5280697094031472 1.7499999999999993
  endloop
endfacet
facet normal 0.9965785114153342 -0.08265150080426167 1.2044618514280326e-15
  outer loop
    vertex -1.4357118571623981 3.528069709403148 1.9999999999999993
    vertex -1.412570571908908 3.807098007567717 1.7499999999999987
    vertex -1.4125705719089081 3.807098007567718 1.9999999999999984
  endloop
endfacet
facet normal -0.9982836704966709 -0.05856375346316277 -8.998878739965686e-16
  outer loop
    vertex -1.0635707623094994 3.6391757605705672 1.7499999999999993
    vertex -1.0654817882449137 3.6717513021369115 0.9999999999999993
    vertex -1.0635707623094985 3.6391757605705637 0.9999999999999993
  endloop
endfacet
facet normal -0.9982836704966709 -0.05856375346316277 -8.998878739965686e-16
  outer loop
    vertex -1.0654817882449137 3.6717513021369115 0.9999999999999993
    vertex -1.0635707623094994 3.6391757605705672 1.7499999999999993
    vertex -1.0654817882449148 3.6717513021369146 1.7499999999999993
  endloop
endfacet
facet normal -0.3149430682939147 0.949110564546415 -3.4059855342007715e-15
  outer loop
    vertex -1.1646985648532184 3.5254433008538064 1.7499999999999996
    vertex -1.1337276178567013 3.53572038072143 0.9999999999999998
    vertex -1.164698564853218 3.5254433008538033 0.9999999999999998
  endloop
endfacet
facet normal -0.3149430682939147 0.949110564546415 -3.4059855342007715e-15
  outer loop
    vertex -1.1337276178567013 3.53572038072143 0.9999999999999998
    vertex -1.1646985648532184 3.5254433008538064 1.7499999999999996
    vertex -1.1337276178567017 3.535720380721432 1.7499999999999996
  endloop
endfacet
facet normal 0.8352571421017114 0.5498595334884008 -6.598386177256963e-16
  outer loop
    vertex -1.3007294862687 3.5936891304655925 0.9999999999999993
    vertex -1.2827867184781674 3.5664333968948103 1.7499999999999996
    vertex -1.2827867184781665 3.5664333968948077 0.9999999999999993
  endloop
endfacet
facet normal 0.8352571421017114 0.5498595334884008 -6.598386177256963e-16
  outer loop
    vertex -1.2827867184781674 3.5664333968948103 1.7499999999999996
    vertex -1.3007294862687 3.5936891304655925 0.9999999999999993
    vertex -1.3007294862687013 3.593689130465595 1.7499999999999993
  endloop
endfacet
facet normal 0.46837226413526173 -0.8835312230978647 2.560105385485831e-15
  outer loop
    vertex -0.898399556817916 3.240786868387196 2.000000000000001
    vertex -1.0137235230764041 3.1796520202081298 8.881784197001252e-16
    vertex -0.898399556817915 3.2407868683871897 6.661338147750939e-16
  endloop
endfacet
facet normal 0.46837226413526173 -0.8835312230978647 2.560105385485831e-15
  outer loop
    vertex -1.0137235230764041 3.1796520202081298 8.881784197001252e-16
    vertex -0.898399556817916 3.240786868387196 2.000000000000001
    vertex -1.013723523076406 3.1796520202081355 2.000000000000001
  endloop
endfacet
facet normal 0.8938208955648776 -0.44842413700825684 2.270304276461055e-15
  outer loop
    vertex -1.2916995570397556 3.7183625453467144 0.9999999999999989
    vertex -1.306332330815569 3.6891957858405164 1.7499999999999991
    vertex -1.306332330815568 3.6891957858405138 0.9999999999999989
  endloop
endfacet
facet normal 0.8938208955648776 -0.44842413700825684 2.270304276461055e-15
  outer loop
    vertex -1.306332330815569 3.6891957858405164 1.7499999999999991
    vertex -1.2916995570397556 3.7183625453467144 0.9999999999999989
    vertex -1.291699557039756 3.7183625453467166 1.749999999999999
  endloop
endfacet
facet normal 0.9794253940443377 -0.20180658438488558 1.6108004990861938e-15
  outer loop
    vertex -1.306332330815568 3.6891957858405138 0.9999999999999989
    vertex -1.3129175920717422 3.6572356190284587 1.7499999999999991
    vertex -1.3129175920717417 3.6572356190284556 0.9999999999999991
  endloop
endfacet
facet normal 0.9794253940443377 -0.20180658438488558 1.6108004990861938e-15
  outer loop
    vertex -1.3129175920717422 3.6572356190284587 1.7499999999999991
    vertex -1.306332330815568 3.6891957858405138 0.9999999999999989
    vertex -1.306332330815569 3.6891957858405164 1.7499999999999991
  endloop
endfacet
facet normal -0.5784869922690954 -0.8156916082536683 1.805041674484158e-15
  outer loop
    vertex -0.940776497218842 3.7679425704723872 1.7499999999999991
    vertex -1.165102891937131 3.927034438102337 1.9999999999999984
    vertex -1.1651028919371307 3.927034438102336 1.7499999999999987
  endloop
endfacet
facet normal -0.5784869922690954 -0.8156916082536683 1.805041674484158e-15
  outer loop
    vertex -1.165102891937131 3.927034438102337 1.9999999999999984
    vertex -0.940776497218842 3.7679425704723872 1.7499999999999991
    vertex -0.9407764972188423 3.767942570472388 1.9999999999999993
  endloop
endfacet
facet normal -0.43613247467134814 0.8998824726246456 -3.0314328329489083e-15
  outer loop
    vertex -1.2023458947538193 3.373367938731584 1.75
    vertex -0.9548782147820407 3.4933043692662062 1.9999999999999998
    vertex -0.9548782147820405 3.4933043692662054 1.7499999999999998
  endloop
endfacet
facet normal -0.43613247467134814 0.8998824726246456 -3.0314328329489083e-15
  outer loop
    vertex -0.9548782147820407 3.4933043692662062 1.9999999999999998
    vertex -1.2023458947538193 3.373367938731584 1.75
    vertex -1.2023458947538195 3.373367938731585 2.0
  endloop
endfacet
facet normal -0.9746492888789909 -0.22373815876527894 -1.3688261676281798e-16
  outer loop
    vertex -1.6567978467819997 3.4736850356852993 1.9999999999999993
    vertex -1.686001536699955 3.6009022961126487 -1.1102230246251565e-15
    vertex -1.6567978467819977 3.4736850356852926 -6.661338147750939e-16
  endloop
endfacet
facet normal -0.9746492888789909 -0.22373815876527894 -1.3688261676281798e-16
  outer loop
    vertex -1.686001536699955 3.6009022961126487 -1.1102230246251565e-15
    vertex -1.6567978467819997 3.4736850356852993 1.9999999999999993
    vertex -1.6860015366999566 3.600902296112655 1.999999999999999
  endloop
endfacet
facet normal 0.9993466163071179 -0.03614333237976752 9.411927167642457e-16
  outer loop
    vertex -0.6904868176812824 3.6955090834863666 -4.440892098500626e-16
    vertex -0.6952044692309585 3.565068174951813 2.0
    vertex -0.6952044692309571 3.565068174951807 0.0
  endloop
endfacet
facet normal 0.9993466163071179 -0.03614333237976752 9.411927167642457e-16
  outer loop
    vertex -0.6952044692309585 3.565068174951813 2.0
    vertex -0.6904868176812824 3.6955090834863666 -4.440892098500626e-16
    vertex -0.690486817681284 3.695509083486373 1.9999999999999993
  endloop
endfacet
facet normal -9.681269968691227e-16 2.899491088428582e-15 1.0
  outer loop
    vertex -1.6567978467819997 3.4736850356852993 1.9999999999999993
    vertex -1.6812838851502827 3.7313432046472164 1.9999999999999984
    vertex -1.6860015366999566 3.600902296112655 1.999999999999999
  endloop
endfacet
facet normal -9.681269968691227e-16 2.899491088428582e-15 1.0
  outer loop
    vertex -1.6812838851502827 3.7313432046472164 1.9999999999999984
    vertex -1.6567978467819997 3.4736850356852993 1.9999999999999993
    vertex -1.6429663922897997 3.856118428936145 1.9999999999999984
  endloop
endfacet
facet normal -9.681269968691227e-16 2.899491088428582e-15 1.0
  outer loop
    vertex -1.6429663922897997 3.856118428936145 1.9999999999999984
    vertex -1.6567978467819997 3.4736850356852993 1.9999999999999993
    vertex -1.5956629986029396 3.358361069426809 1.9999999999999998
  endloop
endfacet
facet normal -9.681269968691227e-16 2.899491088428582e-15 1.0
  outer loop
    vertex -1.6429663922897997 3.856118428936145 1.9999999999999984
    vertex -1.5956629986029396 3.358361069426809 1.9999999999999998
    vertex -1.5736603319342983 3.9667247436449604 1.999999999999998
  endloop
endfacet
facet normal -9.681269968691227e-16 2.899491088428582e-15 1.0
  outer loop
    vertex -1.5736603319342983 3.9667247436449604 1.999999999999998
    vertex -1.5956629986029396 3.358361069426809 1.9999999999999998
    vertex -1.5067632310360672 3.262789535055837 2.0
  endloop
endfacet
facet normal -9.681269968691227e-16 2.899491088428582e-15 1.0
  outer loop
    vertex -1.5736603319342983 3.9667247436449604 1.999999999999998
    vertex -1.5067632310360672 3.262789535055837 2.0
    vertex -1.478088797563326 4.055624511211833 1.9999999999999976
  endloop
endfacet
facet normal -9.681269968691227e-16 2.899491088428582e-15 1.0
  outer loop
    vertex -1.478088797563326 4.055624511211833 1.9999999999999976
    vertex -1.5067632310360672 3.262789535055837 2.0
    vertex -1.4357118571623981 3.528069709403148 1.9999999999999993
  endloop
endfacet
facet normal -9.681269968691227e-16 2.899491088428582e-15 1.0
  outer loop
    vertex -1.4357118571623981 3.528069709403148 1.9999999999999993
    vertex -1.5067632310360672 3.262789535055837 2.0
    vertex -1.396156916327252 3.1934834747003364 2.0
  endloop
endfacet
facet normal -9.681269968691227e-16 2.899491088428582e-15 1.0
  outer loop
    vertex -1.4357118571623981 3.528069709403148 1.9999999999999993
    vertex -1.396156916327252 3.1934834747003364 2.0
    vertex -1.2023458947538195 3.373367938731585 2.0
  endloop
endfacet
facet normal -9.681269968691227e-16 2.899491088428582e-15 1.0
  outer loop
    vertex -1.2023458947538195 3.373367938731585 2.0
    vertex -1.396156916327252 3.1934834747003364 2.0
    vertex -1.2713816920383232 3.155165981839853 2.0
  endloop
endfacet
facet normal -9.681269968691227e-16 2.899491088428582e-15 1.0
  outer loop
    vertex -1.2023458947538195 3.373367938731585 2.0
    vertex -1.2713816920383232 3.155165981839853 2.0
    vertex -1.1409407835037617 3.1504483302901787 2.000000000000001
  endloop
endfacet
facet normal -9.681269968691227e-16 2.899491088428582e-15 1.0
  outer loop
    vertex -1.2023458947538195 3.373367938731585 2.0
    vertex -1.1409407835037617 3.1504483302901787 2.000000000000001
    vertex -0.9548782147820407 3.4933043692662062 1.9999999999999998
  endloop
endfacet
facet normal -9.681269968691227e-16 2.899491088428582e-15 1.0
  outer loop
    vertex -0.9548782147820407 3.4933043692662062 1.9999999999999998
    vertex -1.1409407835037617 3.1504483302901787 2.000000000000001
    vertex -1.013723523076406 3.1796520202081355 2.000000000000001
  endloop
endfacet
facet normal -9.681269968691227e-16 2.899491088428582e-15 1.0
  outer loop
    vertex -0.9548782147820407 3.4933043692662062 1.9999999999999998
    vertex -1.013723523076406 3.1796520202081355 2.000000000000001
    vertex -0.898399556817916 3.240786868387196 2.000000000000001
  endloop
endfacet
facet normal -9.681269968691227e-16 2.899491088428582e-15 1.0
  outer loop
    vertex -0.9548782147820407 3.4933043692662062 1.9999999999999998
    vertex -0.898399556817916 3.240786868387196 2.000000000000001
    vertex -0.9407764972188423 3.767942570472388 1.9999999999999993
  endloop
endfacet
facet normal -9.681269968691227e-16 2.899491088428582e-15 1.0
  outer loop
    vertex -1.478088797563326 4.055624511211833 1.9999999999999976
    vertex -1.4125705719089081 3.807098007567718 1.9999999999999984
    vertex -1.3627648313048366 4.116759359390893 1.9999999999999976
  endloop
endfacet
facet normal -9.681269968691227e-16 2.899491088428582e-15 1.0
  outer loop
    vertex -1.4125705719089081 3.807098007567718 1.9999999999999984
    vertex -1.478088797563326 4.055624511211833 1.9999999999999976
    vertex -1.4357118571623981 3.528069709403148 1.9999999999999993
  endloop
endfacet
facet normal -9.681269968691227e-16 2.899491088428582e-15 1.0
  outer loop
    vertex -1.3627648313048366 4.116759359390893 1.9999999999999976
    vertex -1.4125705719089081 3.807098007567718 1.9999999999999984
    vertex -1.165102891937131 3.927034438102337 1.9999999999999984
  endloop
endfacet
facet normal -9.681269968691227e-16 2.899491088428582e-15 1.0
  outer loop
    vertex -1.3627648313048366 4.116759359390893 1.9999999999999976
    vertex -1.165102891937131 3.927034438102337 1.9999999999999984
    vertex -1.2355475708774808 4.14596304930885 1.9999999999999976
  endloop
endfacet
facet normal -9.681269968691227e-16 2.899491088428582e-15 1.0
  outer loop
    vertex -1.2355475708774808 4.14596304930885 1.9999999999999976
    vertex -1.165102891937131 3.927034438102337 1.9999999999999984
    vertex -1.10510666234292 4.141245397759176 1.999999999999998
  endloop
endfacet
facet normal -9.681269968691227e-16 2.899491088428582e-15 1.0
  outer loop
    vertex -1.10510666234292 4.141245397759176 1.999999999999998
    vertex -1.165102891937131 3.927034438102337 1.9999999999999984
    vertex -0.9407764972188423 3.767942570472388 1.9999999999999993
  endloop
endfacet
facet normal -9.681269968691227e-16 2.899491088428582e-15 1.0
  outer loop
    vertex -1.10510666234292 4.141245397759176 1.999999999999998
    vertex -0.9407764972188423 3.767942570472388 1.9999999999999993
    vertex -0.9803314380539888 4.102927904898693 1.9999999999999984
  endloop
endfacet
facet normal -9.681269968691227e-16 2.899491088428582e-15 1.0
  outer loop
    vertex -0.9803314380539888 4.102927904898693 1.9999999999999984
    vertex -0.9407764972188423 3.767942570472388 1.9999999999999993
    vertex -0.869725123345174 4.033621844543192 1.9999999999999984
  endloop
endfacet
facet normal -9.681269968691227e-16 2.899491088428582e-15 1.0
  outer loop
    vertex -0.869725123345174 4.033621844543192 1.9999999999999984
    vertex -0.9407764972188423 3.767942570472388 1.9999999999999993
    vertex -0.898399556817916 3.240786868387196 2.000000000000001
  endloop
endfacet
facet normal -9.681269968691227e-16 2.899491088428582e-15 1.0
  outer loop
    vertex -0.869725123345174 4.033621844543192 1.9999999999999984
    vertex -0.898399556817916 3.240786868387196 2.000000000000001
    vertex -0.8028280224469437 3.3296866359540678 2.0
  endloop
endfacet
facet normal -9.681269968691227e-16 2.899491088428582e-15 1.0
  outer loop
    vertex -0.869725123345174 4.033621844543192 1.9999999999999984
    vertex -0.8028280224469437 3.3296866359540678 2.0
    vertex -0.7808253557783016 3.9380503101722195 1.999999999999999
  endloop
endfacet
facet normal -9.681269968691227e-16 2.899491088428582e-15 1.0
  outer loop
    vertex -0.7808253557783016 3.9380503101722195 1.999999999999999
    vertex -0.8028280224469437 3.3296866359540678 2.0
    vertex -0.7335219620914422 3.440292950662884 2.0
  endloop
endfacet
facet normal -9.681269968691227e-16 2.899491088428582e-15 1.0
  outer loop
    vertex -0.7808253557783016 3.9380503101722195 1.999999999999999
    vertex -0.7335219620914422 3.440292950662884 2.0
    vertex -0.7196905075992419 3.82272634391373 1.9999999999999993
  endloop
endfacet
facet normal -9.681269968691227e-16 2.899491088428582e-15 1.0
  outer loop
    vertex -0.7196905075992419 3.82272634391373 1.9999999999999993
    vertex -0.7335219620914422 3.440292950662884 2.0
    vertex -0.6952044692309585 3.565068174951813 2.0
  endloop
endfacet
facet normal -9.681269968691227e-16 2.899491088428582e-15 1.0
  outer loop
    vertex -0.7196905075992419 3.82272634391373 1.9999999999999993
    vertex -0.6952044692309585 3.565068174951813 2.0
    vertex -0.690486817681284 3.695509083486373 1.9999999999999993
  endloop
endfacet
facet normal -0.03614333237976536 -0.9993466163071179 2.5590514579140788e-15
  outer loop
    vertex -1.1409407835037602 3.150448330290173 8.881784197001252e-16
    vertex -1.2713816920383232 3.155165981839853 2.0
    vertex -1.2713816920383212 3.155165981839847 6.661338147750939e-16
  endloop
endfacet
facet normal -0.03614333237976536 -0.9993466163071179 2.5590514579140788e-15
  outer loop
    vertex -1.2713816920383232 3.155165981839853 2.0
    vertex -1.1409407835037602 3.150448330290173 8.881784197001252e-16
    vertex -1.1409407835037617 3.1504483302901787 2.000000000000001
  endloop
endfacet
facet normal 0.43613247467134375 -0.8998824726246476 3.0314328329489095e-15
  outer loop
    vertex -1.165102891937131 3.927034438102337 1.9999999999999984
    vertex -1.412570571908908 3.807098007567717 1.7499999999999987
    vertex -1.1651028919371307 3.927034438102336 1.7499999999999987
  endloop
endfacet
facet normal 0.43613247467134375 -0.8998824726246476 3.0314328329489095e-15
  outer loop
    vertex -1.412570571908908 3.807098007567717 1.7499999999999987
    vertex -1.165102891937131 3.927034438102337 1.9999999999999984
    vertex -1.4125705719089081 3.807098007567718 1.9999999999999984
  endloop
endfacet
facet normal -0.9491105645464266 -0.31494306829387986 -2.914537862415424e-16
  outer loop
    vertex -1.0654817882449148 3.6717513021369146 1.7499999999999993
    vertex -1.0757588681125383 3.7027222491334286 0.9999999999999993
    vertex -1.0654817882449137 3.6717513021369115 0.9999999999999993
  endloop
endfacet
facet normal -0.9491105645464266 -0.31494306829387986 -2.914537862415424e-16
  outer loop
    vertex -1.0757588681125383 3.7027222491334286 0.9999999999999993
    vertex -1.0654817882449148 3.6717513021369146 1.7499999999999993
    vertex -1.0757588681125398 3.702722249133432 1.7499999999999991
  endloop
endfacet
facet normal 0.9559401233322831 -0.2935617151528098 1.5798835454106341e-15
  outer loop
    vertex -0.6952044692309571 3.565068174951807 0.0
    vertex -0.7335219620914422 3.440292950662884 2.0
    vertex -0.7335219620914408 3.4402929506628777 2.220446049250313e-16
  endloop
endfacet
facet normal 0.9559401233322831 -0.2935617151528098 1.5798835454106341e-15
  outer loop
    vertex -0.7335219620914422 3.440292950662884 2.0
    vertex -0.6952044692309571 3.565068174951807 0.0
    vertex -0.6952044692309585 3.565068174951813 2.0
  endloop
endfacet
facet normal -0.9986843680224833 0.05127897295708545 -1.1155362231465838e-15
  outer loop
    vertex -0.9548782147820407 3.4933043692662062 1.9999999999999998
    vertex -0.940776497218842 3.7679425704723872 1.7499999999999991
    vertex -0.9548782147820405 3.4933043692662054 1.7499999999999998
  endloop
endfacet
facet normal -0.9986843680224833 0.05127897295708545 -1.1155362231465838e-15
  outer loop
    vertex -0.940776497218842 3.7679425704723872 1.7499999999999991
    vertex -0.9548782147820407 3.4933043692662062 1.9999999999999998
    vertex -0.9407764972188423 3.767942570472388 1.9999999999999993
  endloop
endfacet
facet normal -0.9559401233322843 0.29356171515280605 -1.655499456024314e-15
  outer loop
    vertex -1.6812838851502827 3.7313432046472164 1.9999999999999984
    vertex -1.6429663922897977 3.856118428936139 -1.7763568394002505e-15
    vertex -1.6812838851502807 3.7313432046472097 -1.3322676295501878e-15
  endloop
endfacet
facet normal -0.9559401233322843 0.29356171515280605 -1.655499456024314e-15
  outer loop
    vertex -1.6429663922897977 3.856118428936139 -1.7763568394002505e-15
    vertex -1.6812838851502827 3.7313432046472164 1.9999999999999984
    vertex -1.6429663922897997 3.856118428936145 1.9999999999999984
  endloop
endfacet
facet normal 0.5525334216755782 0.8334907425589546 -1.881776458140812e-15
  outer loop
    vertex -1.4357118571623981 3.528069709403148 1.9999999999999993
    vertex -1.2023458947538193 3.373367938731584 1.75
    vertex -1.435711857162398 3.5280697094031472 1.7499999999999993
  endloop
endfacet
facet normal 0.5525334216755782 0.8334907425589546 -1.881776458140812e-15
  outer loop
    vertex -1.2023458947538193 3.373367938731584 1.75
    vertex -1.4357118571623981 3.528069709403148 1.9999999999999993
    vertex -1.2023458947538195 3.373367938731585 2.0
  endloop
endfacet
facet normal 0.8473878907181027 -0.5309743521718585 2.0118768867200426e-15
  outer loop
    vertex -0.7335219620914408 3.4402929506628777 2.220446049250313e-16
    vertex -0.8028280224469437 3.3296866359540678 2.0
    vertex -0.8028280224469428 3.3296866359540616 6.661338147750939e-16
  endloop
endfacet
facet normal 0.8473878907181027 -0.5309743521718585 2.0118768867200426e-15
  outer loop
    vertex -0.8028280224469437 3.3296866359540678 2.0
    vertex -0.7335219620914408 3.4402929506628777 2.220446049250313e-16
    vertex -0.7335219620914422 3.440292950662884 2.0
  endloop
endfacet
facet normal -0.7473039801615343 0.6644823257504516 -2.4510599281126385e-15
  outer loop
    vertex -1.1064718842859176 3.5536631485119665 1.7499999999999996
    vertex -1.0847887973414854 3.5780488342523067 0.9999999999999996
    vertex -1.1064718842859171 3.5536631485119643 0.9999999999999998
  endloop
endfacet
facet normal -0.7473039801615343 0.6644823257504516 -2.4510599281126385e-15
  outer loop
    vertex -1.0847887973414854 3.5780488342523067 0.9999999999999996
    vertex -1.1064718842859176 3.5536631485119665 1.7499999999999996
    vertex -1.0847887973414856 3.5780488342523094 1.7499999999999996
  endloop
endfacet
facet normal 0.03614333237976425 0.9993466163071179 -2.6831430121868667e-15
  outer loop
    vertex -1.2355475708774808 4.14596304930885 1.9999999999999976
    vertex -1.105106662342918 4.14124539775917 -1.9984014443252818e-15
    vertex -1.235547570877479 4.145963049308844 -1.9984014443252818e-15
  endloop
endfacet
facet normal 0.03614333237976425 0.9993466163071179 -2.6831430121868667e-15
  outer loop
    vertex -1.105106662342918 4.14124539775917 -1.9984014443252818e-15
    vertex -1.2355475708774808 4.14596304930885 1.9999999999999976
    vertex -1.10510666234292 4.141245397759176 1.999999999999998
  endloop
endfacet
facet normal 0.2935617151528028 0.9559401233322854 -2.3166575737159917e-15
  outer loop
    vertex -1.10510666234292 4.141245397759176 1.999999999999998
    vertex -0.9803314380539874 4.102927904898687 -1.7763568394002505e-15
    vertex -1.105106662342918 4.14124539775917 -1.9984014443252818e-15
  endloop
endfacet
facet normal 0.2935617151528028 0.9559401233322854 -2.3166575737159917e-15
  outer loop
    vertex -0.9803314380539874 4.102927904898687 -1.7763568394002505e-15
    vertex -1.10510666234292 4.141245397759176 1.999999999999998
    vertex -0.9803314380539888 4.102927904898693 1.9999999999999984
  endloop
endfacet
facet normal -0.8835312230978662 -0.46837226413525856 5.517248891765829e-16
  outer loop
    vertex -1.5956629986029396 3.358361069426809 1.9999999999999998
    vertex -1.6567978467819977 3.4736850356852926 -6.661338147750939e-16
    vertex -1.5956629986029378 3.358361069426803 -2.220446049250313e-16
  endloop
endfacet
facet normal -0.8835312230978662 -0.46837226413525856 5.517248891765829e-16
  outer loop
    vertex -1.6567978467819977 3.4736850356852926 -6.661338147750939e-16
    vertex -1.5956629986029396 3.358361069426809 1.9999999999999998
    vertex -1.6567978467819997 3.4736850356852993 1.9999999999999993
  endloop
endfacet
facet normal -0.22373815876528122 0.9746492888789905 -2.8413886959412732e-15
  outer loop
    vertex -1.3627648313048366 4.116759359390893 1.9999999999999976
    vertex -1.235547570877479 4.145963049308844 -1.9984014443252818e-15
    vertex -1.3627648313048348 4.116759359390887 -2.4424906541753444e-15
  endloop
endfacet
facet normal -0.22373815876528122 0.9746492888789905 -2.8413886959412732e-15
  outer loop
    vertex -1.235547570877479 4.145963049308844 -1.9984014443252818e-15
    vertex -1.3627648313048366 4.116759359390893 1.9999999999999976
    vertex -1.2355475708774808 4.14596304930885 1.9999999999999976
  endloop
endfacet
facet normal 0.31494306829389557 -0.9491105645464215 3.035171859378864e-15
  outer loop
    vertex -1.211789789528022 3.7709680787452196 1.749999999999999
    vertex -1.2427607365245383 3.7606909988775916 0.9999999999999989
    vertex -1.2117897895280212 3.7709680787452178 0.9999999999999989
  endloop
endfacet
facet normal 0.31494306829389557 -0.9491105645464215 3.035171859378864e-15
  outer loop
    vertex -1.2427607365245383 3.7606909988775916 0.9999999999999989
    vertex -1.211789789528022 3.7709680787452196 1.749999999999999
    vertex -1.242760736524539 3.7606909988775943 1.749999999999999
  endloop
endfacet
facet normal -0.9794253940443374 0.2018065843848872 -1.438710429061477e-15
  outer loop
    vertex -1.0701560235656724 3.60721559375851 1.7499999999999996
    vertex -1.0635707623094985 3.6391757605705637 0.9999999999999993
    vertex -1.0701560235656722 3.6072155937585073 0.9999999999999996
  endloop
endfacet
facet normal -0.9794253940443374 0.2018065843848872 -1.438710429061477e-15
  outer loop
    vertex -1.0635707623094985 3.6391757605705637 0.9999999999999993
    vertex -1.0701560235656724 3.60721559375851 1.7499999999999996
    vertex -1.0635707623094994 3.6391757605705672 1.7499999999999993
  endloop
endfacet
facet normal 0.22373815876527778 -0.9746492888789913 2.6001331541168293e-15
  outer loop
    vertex -1.013723523076406 3.1796520202081355 2.000000000000001
    vertex -1.1409407835037602 3.150448330290173 8.881784197001252e-16
    vertex -1.0137235230764041 3.1796520202081298 8.881784197001252e-16
  endloop
endfacet
facet normal 0.22373815876527778 -0.9746492888789913 2.6001331541168293e-15
  outer loop
    vertex -1.1409407835037602 3.150448330290173 8.881784197001252e-16
    vertex -1.013723523076406 3.1796520202081355 2.000000000000001
    vertex -1.1409407835037617 3.1504483302901787 2.000000000000001
  endloop
endfacet
facet normal 0.9982836704966698 0.05856375346318432 9.702816393826218e-16
  outer loop
    vertex -1.3129175920717417 3.6572356190284556 0.9999999999999991
    vertex -1.3110065661363268 3.6246600774621123 1.7499999999999993
    vertex -1.3110065661363255 3.6246600774621096 0.9999999999999993
  endloop
endfacet
facet normal 0.9982836704966698 0.05856375346318432 9.702816393826218e-16
  outer loop
    vertex -1.3110065661363268 3.6246600774621123 1.7499999999999993
    vertex -1.3129175920717417 3.6572356190284556 0.9999999999999991
    vertex -1.3129175920717422 3.6572356190284587 1.7499999999999991
  endloop
endfacet
facet normal 0.20180658438490012 0.9794253940443346 -3.084641985242783e-15
  outer loop
    vertex -1.2292342732316237 3.530117536174565 1.7499999999999996
    vertex -1.197274106419565 3.5235322749183884 0.9999999999999998
    vertex -1.229234273231623 3.5301175361745627 0.9999999999999996
  endloop
endfacet
facet normal 0.20180658438490012 0.9794253940443346 -3.084641985242783e-15
  outer loop
    vertex -1.197274106419565 3.5235322749183884 0.9999999999999998
    vertex -1.2292342732316237 3.530117536174565 1.7499999999999996
    vertex -1.1972741064195656 3.523532274918391 1.7499999999999996
  endloop
endfacet
facet normal 0.7322019645670036 0.6810875737261843 -1.1960198510088995e-15
  outer loop
    vertex -0.8697251233451726 4.033621844543186 -1.5543122344752192e-15
    vertex -0.7808253557783016 3.9380503101722195 1.999999999999999
    vertex -0.7808253557783003 3.9380503101722133 -1.1102230246251565e-15
  endloop
endfacet
facet normal 0.7322019645670036 0.6810875737261843 -1.1960198510088995e-15
  outer loop
    vertex -0.7808253557783016 3.9380503101722195 1.999999999999999
    vertex -0.8697251233451726 4.033621844543186 -1.5543122344752192e-15
    vertex -0.869725123345174 4.033621844543192 1.9999999999999984
  endloop
endfacet
facet normal -0.9993466163071181 0.03614333237976225 -8.676239637498455e-16
  outer loop
    vertex -1.6860015366999566 3.600902296112655 1.999999999999999
    vertex -1.6812838851502807 3.7313432046472097 -1.3322676295501878e-15
    vertex -1.686001536699955 3.6009022961126487 -1.1102230246251565e-15
  endloop
endfacet
facet normal -0.9993466163071181 0.03614333237976225 -8.676239637498455e-16
  outer loop
    vertex -1.6812838851502807 3.7313432046472097 -1.3322676295501878e-15
    vertex -1.6860015366999566 3.600902296112655 1.999999999999999
    vertex -1.6812838851502827 3.7313432046472164 1.9999999999999984
  endloop
endfacet
facet normal 0.8835312230978662 0.4683722641352586 -4.922372920468432e-16
  outer loop
    vertex -0.7808253557783003 3.9380503101722133 -1.1102230246251565e-15
    vertex -0.7196905075992419 3.82272634391373 1.9999999999999993
    vertex -0.7196905075992404 3.8227263439137236 -8.881784197001252e-16
  endloop
endfacet
facet normal 0.8835312230978662 0.4683722641352586 -4.922372920468432e-16
  outer loop
    vertex -0.7196905075992419 3.82272634391373 1.9999999999999993
    vertex -0.7808253557783003 3.9380503101722133 -1.1102230246251565e-15
    vertex -0.7808253557783016 3.9380503101722195 1.999999999999999
  endloop
endfacet
facet normal -7.142013683037858e-16 2.6519637388294073e-15 1.0
  outer loop
    vertex -1.2023458947538193 3.373367938731584 1.75
    vertex -1.412570571908908 3.807098007567717 1.7499999999999987
    vertex -1.435711857162398 3.5280697094031472 1.7499999999999993
  endloop
endfacet
facet normal -7.142013683037858e-16 2.6519637388294073e-15 1.0
  outer loop
    vertex -1.412570571908908 3.807098007567717 1.7499999999999987
    vertex -1.2023458947538193 3.373367938731584 1.75
    vertex -1.3007294862687013 3.593689130465595 1.7499999999999993
  endloop
endfacet
facet normal -7.142013683037858e-16 2.6519637388294073e-15 1.0
  outer loop
    vertex -1.412570571908908 3.807098007567717 1.7499999999999987
    vertex -1.3007294862687013 3.593689130465595 1.7499999999999993
    vertex -1.3110065661363268 3.6246600774621123 1.7499999999999993
  endloop
endfacet
facet normal -7.142013683037858e-16 2.6519637388294073e-15 1.0
  outer loop
    vertex -1.412570571908908 3.807098007567717 1.7499999999999987
    vertex -1.3110065661363268 3.6246600774621123 1.7499999999999993
    vertex -1.3129175920717422 3.6572356190284587 1.7499999999999991
  endloop
endfacet
facet normal -7.142013683037858e-16 2.6519637388294073e-15 1.0
  outer loop
    vertex -1.3007294862687013 3.593689130465595 1.7499999999999993
    vertex -1.2023458947538193 3.373367938731584 1.75
    vertex -1.2827867184781674 3.5664333968948103 1.7499999999999996
  endloop
endfacet
facet normal -7.142013683037858e-16 2.6519637388294073e-15 1.0
  outer loop
    vertex -1.2827867184781674 3.5664333968948103 1.7499999999999996
    vertex -1.2023458947538193 3.373367938731584 1.75
    vertex -1.2584010327378237 3.5447503099503774 1.7499999999999996
  endloop
endfacet
facet normal -7.142013683037858e-16 2.6519637388294073e-15 1.0
  outer loop
    vertex -1.2584010327378237 3.5447503099503774 1.7499999999999996
    vertex -1.2023458947538193 3.373367938731584 1.75
    vertex -1.2292342732316237 3.530117536174565 1.7499999999999996
  endloop
endfacet
facet normal -7.142013683037858e-16 2.6519637388294073e-15 1.0
  outer loop
    vertex -1.2292342732316237 3.530117536174565 1.7499999999999996
    vertex -1.2023458947538193 3.373367938731584 1.75
    vertex -1.1972741064195656 3.523532274918391 1.7499999999999996
  endloop
endfacet
facet normal -7.142013683037858e-16 2.6519637388294073e-15 1.0
  outer loop
    vertex -1.1972741064195656 3.523532274918391 1.7499999999999996
    vertex -1.2023458947538193 3.373367938731584 1.75
    vertex -0.9548782147820405 3.4933043692662054 1.7499999999999998
  endloop
endfacet
facet normal -7.142013683037858e-16 2.6519637388294073e-15 1.0
  outer loop
    vertex -1.1972741064195656 3.523532274918391 1.7499999999999996
    vertex -0.9548782147820405 3.4933043692662054 1.7499999999999998
    vertex -1.1646985648532184 3.5254433008538064 1.7499999999999996
  endloop
endfacet
facet normal -7.142013683037858e-16 2.6519637388294073e-15 1.0
  outer loop
    vertex -1.1646985648532184 3.5254433008538064 1.7499999999999996
    vertex -0.9548782147820405 3.4933043692662054 1.7499999999999998
    vertex -1.1337276178567017 3.535720380721432 1.7499999999999996
  endloop
endfacet
facet normal -7.142013683037858e-16 2.6519637388294073e-15 1.0
  outer loop
    vertex -1.1337276178567017 3.535720380721432 1.7499999999999996
    vertex -0.9548782147820405 3.4933043692662054 1.7499999999999998
    vertex -1.1064718842859176 3.5536631485119665 1.7499999999999996
  endloop
endfacet
facet normal -7.142013683037858e-16 2.6519637388294073e-15 1.0
  outer loop
    vertex -1.1064718842859176 3.5536631485119665 1.7499999999999996
    vertex -0.9548782147820405 3.4933043692662054 1.7499999999999998
    vertex -1.0847887973414856 3.5780488342523094 1.7499999999999996
  endloop
endfacet
facet normal -7.142013683037858e-16 2.6519637388294073e-15 1.0
  outer loop
    vertex -1.0847887973414856 3.5780488342523094 1.7499999999999996
    vertex -0.9548782147820405 3.4933043692662054 1.7499999999999998
    vertex -1.0701560235656724 3.60721559375851 1.7499999999999996
  endloop
endfacet
facet normal -7.142013683037858e-16 2.6519637388294073e-15 1.0
  outer loop
    vertex -1.0701560235656724 3.60721559375851 1.7499999999999996
    vertex -0.9548782147820405 3.4933043692662054 1.7499999999999998
    vertex -1.0635707623094994 3.6391757605705672 1.7499999999999993
  endloop
endfacet
facet normal -7.142013683037858e-16 2.6519637388294073e-15 1.0
  outer loop
    vertex -1.412570571908908 3.807098007567717 1.7499999999999987
    vertex -1.291699557039756 3.7183625453467166 1.749999999999999
    vertex -1.1651028919371307 3.927034438102336 1.7499999999999987
  endloop
endfacet
facet normal -7.142013683037858e-16 2.6519637388294073e-15 1.0
  outer loop
    vertex -1.291699557039756 3.7183625453467166 1.749999999999999
    vertex -1.412570571908908 3.807098007567717 1.7499999999999987
    vertex -1.306332330815569 3.6891957858405164 1.7499999999999991
  endloop
endfacet
facet normal -7.142013683037858e-16 2.6519637388294073e-15 1.0
  outer loop
    vertex -1.306332330815569 3.6891957858405164 1.7499999999999991
    vertex -1.412570571908908 3.807098007567717 1.7499999999999987
    vertex -1.3129175920717422 3.6572356190284587 1.7499999999999991
  endloop
endfacet
facet normal -7.142013683037858e-16 2.6519637388294073e-15 1.0
  outer loop
    vertex -1.1651028919371307 3.927034438102336 1.7499999999999987
    vertex -1.291699557039756 3.7183625453467166 1.749999999999999
    vertex -1.2700164700953238 3.74274823108706 1.749999999999999
  endloop
endfacet
facet normal -7.142013683037858e-16 2.6519637388294073e-15 1.0
  outer loop
    vertex -1.1651028919371307 3.927034438102336 1.7499999999999987
    vertex -1.2700164700953238 3.74274823108706 1.749999999999999
    vertex -1.242760736524539 3.7606909988775943 1.749999999999999
  endloop
endfacet
facet normal -7.142013683037858e-16 2.6519637388294073e-15 1.0
  outer loop
    vertex -1.1651028919371307 3.927034438102336 1.7499999999999987
    vertex -1.242760736524539 3.7606909988775943 1.749999999999999
    vertex -1.211789789528022 3.7709680787452196 1.749999999999999
  endloop
endfacet
facet normal -7.142013683037858e-16 2.6519637388294073e-15 1.0
  outer loop
    vertex -1.1651028919371307 3.927034438102336 1.7499999999999987
    vertex -1.211789789528022 3.7709680787452196 1.749999999999999
    vertex -1.179214247961676 3.7728791046806345 1.749999999999999
  endloop
endfacet
facet normal -7.142013683037858e-16 2.6519637388294073e-15 1.0
  outer loop
    vertex -1.1651028919371307 3.927034438102336 1.7499999999999987
    vertex -1.179214247961676 3.7728791046806345 1.749999999999999
    vertex -1.1472540811496177 3.7662938434244615 1.749999999999999
  endloop
endfacet
facet normal -7.142013683037858e-16 2.6519637388294073e-15 1.0
  outer loop
    vertex -1.1651028919371307 3.927034438102336 1.7499999999999987
    vertex -1.1472540811496177 3.7662938434244615 1.749999999999999
    vertex -0.940776497218842 3.7679425704723872 1.7499999999999991
  endloop
endfacet
facet normal -7.142013683037858e-16 2.6519637388294073e-15 1.0
  outer loop
    vertex -0.940776497218842 3.7679425704723872 1.7499999999999991
    vertex -1.1472540811496177 3.7662938434244615 1.749999999999999
    vertex -1.118087321643418 3.7516610696486485 1.7499999999999991
  endloop
endfacet
facet normal -7.142013683037858e-16 2.6519637388294073e-15 1.0
  outer loop
    vertex -0.940776497218842 3.7679425704723872 1.7499999999999991
    vertex -1.118087321643418 3.7516610696486485 1.7499999999999991
    vertex -1.0937016359030742 3.7299779827042165 1.7499999999999991
  endloop
endfacet
facet normal -7.142013683037858e-16 2.6519637388294073e-15 1.0
  outer loop
    vertex -0.940776497218842 3.7679425704723872 1.7499999999999991
    vertex -1.0937016359030742 3.7299779827042165 1.7499999999999991
    vertex -1.0757588681125398 3.702722249133432 1.7499999999999991
  endloop
endfacet
facet normal -7.142013683037858e-16 2.6519637388294073e-15 1.0
  outer loop
    vertex -0.940776497218842 3.7679425704723872 1.7499999999999991
    vertex -1.0757588681125398 3.702722249133432 1.7499999999999991
    vertex -1.0654817882449148 3.6717513021369146 1.7499999999999993
  endloop
endfacet
facet normal -7.142013683037858e-16 2.6519637388294073e-15 1.0
  outer loop
    vertex -0.940776497218842 3.7679425704723872 1.7499999999999991
    vertex -1.0654817882449148 3.6717513021369146 1.7499999999999993
    vertex -1.0635707623094994 3.6391757605705672 1.7499999999999993
  endloop
endfacet
facet normal -7.142013683037858e-16 2.6519637388294073e-15 1.0
  outer loop
    vertex -0.940776497218842 3.7679425704723872 1.7499999999999991
    vertex -1.0635707623094994 3.6391757605705672 1.7499999999999993
    vertex -0.9548782147820405 3.4933043692662054 1.7499999999999998
  endloop
endfacet
endsolid Nut test
