solid Nut test 3
facet normal 0.0 0.0 1.0
  outer loop
    vertex 2.8407409116193496 3.4794795076406357 1.7499999999999996
    vertex 2.834584896970515 3.729715878721921 1.7499999999999996
    vertex 2.709271643804979 3.7095507263157854 1.7499999999999996
  endloop
endfacet
facet normal 0.0 0.0 1.0
  outer loop
    vertex 2.834584896970515 3.729715878721921 1.7499999999999996
    vertex 2.8407409116193496 3.4794795076406357 1.7499999999999996
    vertex 2.8365445163583995 3.6971432242350475 1.7499999999999996
  endloop
endfacet
facet normal 0.0 0.0 1.0
  outer loop
    vertex 2.8365445163583995 3.6971432242350475 1.7499999999999996
    vertex 2.8407409116193496 3.4794795076406357 1.7499999999999996
    vertex 2.8468677866656 3.6661876428541222 1.7499999999999996
  endloop
endfacet
facet normal 0.0 0.0 1.0
  outer loop
    vertex 2.8468677866656 3.6661876428541222 1.7499999999999996
    vertex 2.8407409116193496 3.4794795076406357 1.7499999999999996
    vertex 2.8648511940806927 3.6389587062937383 1.7499999999999996
  endloop
endfacet
facet normal 0.0 0.0 1.0
  outer loop
    vertex 2.8648511940806927 3.6389587062937383 1.7499999999999996
    vertex 2.8407409116193496 3.4794795076406357 1.7499999999999996
    vertex 2.889269199107325 3.6173120215825407 1.7499999999999996
  endloop
endfacet
facet normal 0.0 0.0 1.0
  outer loop
    vertex 2.889269199107325 3.6173120215825407 1.7499999999999996
    vertex 2.8407409116193496 3.4794795076406357 1.7499999999999996
    vertex 3.10367944724809 3.4794795076406357 1.7499999999999996
  endloop
endfacet
facet normal 0.0 0.0 1.0
  outer loop
    vertex 2.889269199107325 3.6173120215825407 1.7499999999999996
    vertex 3.10367944724809 3.4794795076406357 1.7499999999999996
    vertex 2.918457755055593 3.60272277451076 1.7499999999999996
  endloop
endfacet
facet normal 0.0 0.0 1.0
  outer loop
    vertex 2.918457755055593 3.60272277451076 1.7499999999999996
    vertex 3.10367944724809 3.4794795076406357 1.7499999999999996
    vertex 2.950427710073991 3.596185198156467 1.7499999999999996
  endloop
endfacet
facet normal 0.0 0.0 1.0
  outer loop
    vertex 2.950427710073991 3.596185198156467 1.7499999999999996
    vertex 3.10367944724809 3.4794795076406357 1.7499999999999996
    vertex 2.9830003645608647 3.5981448175443513 1.7499999999999996
  endloop
endfacet
facet normal 0.0 0.0 1.0
  outer loop
    vertex 2.9830003645608647 3.5981448175443513 1.7499999999999996
    vertex 3.10367944724809 3.4794795076406357 1.7499999999999996
    vertex 3.01395594594179 3.608468087851552 1.7499999999999996
  endloop
endfacet
facet normal 0.0 0.0 1.0
  outer loop
    vertex 3.01395594594179 3.608468087851552 1.7499999999999996
    vertex 3.10367944724809 3.4794795076406357 1.7499999999999996
    vertex 3.0411848825021734 3.6264514952666445 1.7499999999999996
  endloop
endfacet
facet normal 0.0 0.0 1.0
  outer loop
    vertex 3.0411848825021734 3.6264514952666445 1.7499999999999996
    vertex 3.10367944724809 3.4794795076406357 1.7499999999999996
    vertex 3.0628315672133706 3.6508695002932767 1.7499999999999996
  endloop
endfacet
facet normal 0.0 0.0 1.0
  outer loop
    vertex 3.0628315672133706 3.6508695002932767 1.7499999999999996
    vertex 3.10367944724809 3.4794795076406357 1.7499999999999996
    vertex 3.0774208142851514 3.6800580562415446 1.7499999999999996
  endloop
endfacet
facet normal 0.0 0.0 1.0
  outer loop
    vertex 3.0774208142851514 3.6800580562415446 1.7499999999999996
    vertex 3.10367944724809 3.4794795076406357 1.7499999999999996
    vertex 3.0839583906394448 3.712028011259943 1.7499999999999996
  endloop
endfacet
facet normal 0.0 0.0 1.0
  outer loop
    vertex 2.834584896970515 3.729715878721921 1.7499999999999996
    vertex 2.8407409116193496 3.9396219449909324 1.7499999999999996
    vertex 2.709271643804979 3.7095507263157854 1.7499999999999996
  endloop
endfacet
facet normal 0.0 0.0 1.0
  outer loop
    vertex 2.8407409116193496 3.9396219449909324 1.7499999999999996
    vertex 2.834584896970515 3.729715878721921 1.7499999999999996
    vertex 2.841122473324808 3.761685833740319 1.7499999999999996
  endloop
endfacet
facet normal 0.0 0.0 1.0
  outer loop
    vertex 2.8407409116193496 3.9396219449909324 1.7499999999999996
    vertex 2.841122473324808 3.761685833740319 1.7499999999999996
    vertex 2.855711720396589 3.790874389688587 1.7499999999999996
  endloop
endfacet
facet normal 0.0 0.0 1.0
  outer loop
    vertex 2.8407409116193496 3.9396219449909324 1.7499999999999996
    vertex 2.855711720396589 3.790874389688587 1.7499999999999996
    vertex 2.8773584051077865 3.8152923947152186 1.7499999999999996
  endloop
endfacet
facet normal 0.0 0.0 1.0
  outer loop
    vertex 2.8407409116193496 3.9396219449909324 1.7499999999999996
    vertex 2.8773584051077865 3.8152923947152186 1.7499999999999996
    vertex 2.9045873416681705 3.8332758021303115 1.7499999999999996
  endloop
endfacet
facet normal 0.0 0.0 1.0
  outer loop
    vertex 2.8407409116193496 3.9396219449909324 1.7499999999999996
    vertex 2.9045873416681705 3.8332758021303115 1.7499999999999996
    vertex 3.10367944724809 3.9396219449909324 1.7499999999999996
  endloop
endfacet
facet normal 0.0 0.0 1.0
  outer loop
    vertex 3.10367944724809 3.9396219449909324 1.7499999999999996
    vertex 2.9045873416681705 3.8332758021303115 1.7499999999999996
    vertex 2.9355429230490957 3.8435990724375126 1.7499999999999996
  endloop
endfacet
facet normal 0.0 0.0 1.0
  outer loop
    vertex 3.10367944724809 3.9396219449909324 1.7499999999999996
    vertex 2.9355429230490957 3.8435990724375126 1.7499999999999996
    vertex 2.9681155775359693 3.8455586918253966 1.7499999999999996
  endloop
endfacet
facet normal 0.0 0.0 1.0
  outer loop
    vertex 3.10367944724809 3.9396219449909324 1.7499999999999996
    vertex 2.9681155775359693 3.8455586918253966 1.7499999999999996
    vertex 3.000085532554367 3.839021115471103 1.7499999999999996
  endloop
endfacet
facet normal 0.0 0.0 1.0
  outer loop
    vertex 3.10367944724809 3.9396219449909324 1.7499999999999996
    vertex 3.000085532554367 3.839021115471103 1.7499999999999996
    vertex 3.029274088502635 3.8244318683993224 1.7499999999999996
  endloop
endfacet
facet normal 0.0 0.0 1.0
  outer loop
    vertex 3.10367944724809 3.9396219449909324 1.7499999999999996
    vertex 3.029274088502635 3.8244318683993224 1.7499999999999996
    vertex 3.053692093529267 3.8027851836881252 1.7499999999999996
  endloop
endfacet
facet normal 0.0 0.0 1.0
  outer loop
    vertex 3.10367944724809 3.9396219449909324 1.7499999999999996
    vertex 3.053692093529267 3.8027851836881252 1.7499999999999996
    vertex 3.0716755009443597 3.7755562471277417 1.7499999999999996
  endloop
endfacet
facet normal 0.0 0.0 1.0
  outer loop
    vertex 3.10367944724809 3.9396219449909324 1.7499999999999996
    vertex 3.0716755009443597 3.7755562471277417 1.7499999999999996
    vertex 3.081998771251561 3.7446006657468165 1.7499999999999996
  endloop
endfacet
facet normal 0.0 0.0 1.0
  outer loop
    vertex 3.10367944724809 3.9396219449909324 1.7499999999999996
    vertex 3.081998771251561 3.7446006657468165 1.7499999999999996
    vertex 3.0839583906394448 3.712028011259943 1.7499999999999996
  endloop
endfacet
facet normal 0.0 0.0 1.0
  outer loop
    vertex 3.10367944724809 3.9396219449909324 1.7499999999999996
    vertex 3.0839583906394448 3.712028011259943 1.7499999999999996
    vertex 3.10367944724809 3.4794795076406357 1.7499999999999996
  endloop
endfacet
facet normal 0.0 0.0 1.0
  outer loop
    vertex 3.10367944724809 3.9396219449909324 1.7499999999999996
    vertex 3.10367944724809 3.4794795076406357 1.7499999999999996
    vertex 3.2351487150624605 3.7095507263157845 1.7499999999999996
  endloop
endfacet
facet normal 0.0 0.0 1.0
  outer loop
    vertex 2.8365445163583995 3.6971432242350475 0.9999999999999996
    vertex 2.841122473324808 3.7616858337403194 0.9999999999999996
    vertex 2.834584896970515 3.729715878721921 0.9999999999999996
  endloop
endfacet
facet normal 0.0 0.0 1.0
  outer loop
    vertex 2.841122473324808 3.7616858337403194 0.9999999999999996
    vertex 2.8365445163583995 3.6971432242350475 0.9999999999999996
    vertex 2.846867786665599 3.6661876428541227 0.9999999999999996
  endloop
endfacet
facet normal 0.0 0.0 1.0
  outer loop
    vertex 2.841122473324808 3.7616858337403194 0.9999999999999996
    vertex 2.846867786665599 3.6661876428541227 0.9999999999999996
    vertex 2.855711720396589 3.7908743896885864 0.9999999999999996
  endloop
endfacet
facet normal 0.0 0.0 1.0
  outer loop
    vertex 2.855711720396589 3.7908743896885864 0.9999999999999996
    vertex 2.846867786665599 3.6661876428541227 0.9999999999999996
    vertex 2.864851194080692 3.6389587062937374 0.9999999999999996
  endloop
endfacet
facet normal 0.0 0.0 1.0
  outer loop
    vertex 2.855711720396589 3.7908743896885864 0.9999999999999996
    vertex 2.864851194080692 3.6389587062937374 0.9999999999999996
    vertex 2.877358405107786 3.8152923947152177 0.9999999999999996
  endloop
endfacet
facet normal 0.0 0.0 1.0
  outer loop
    vertex 2.877358405107786 3.8152923947152177 0.9999999999999996
    vertex 2.864851194080692 3.6389587062937374 0.9999999999999996
    vertex 2.889269199107326 3.6173120215825403 0.9999999999999996
  endloop
endfacet
facet normal 0.0 0.0 1.0
  outer loop
    vertex 2.877358405107786 3.8152923947152177 0.9999999999999996
    vertex 2.889269199107326 3.6173120215825403 0.9999999999999996
    vertex 2.90458734166817 3.833275802130312 0.9999999999999996
  endloop
endfacet
facet normal 0.0 0.0 1.0
  outer loop
    vertex 2.90458734166817 3.833275802130312 0.9999999999999996
    vertex 2.889269199107326 3.6173120215825403 0.9999999999999996
    vertex 2.9184577550555937 3.6027227745107595 0.9999999999999996
  endloop
endfacet
facet normal 0.0 0.0 1.0
  outer loop
    vertex 2.90458734166817 3.833275802130312 0.9999999999999996
    vertex 2.9184577550555937 3.6027227745107595 0.9999999999999996
    vertex 2.9355429230490957 3.843599072437512 0.9999999999999996
  endloop
endfacet
facet normal 0.0 0.0 1.0
  outer loop
    vertex 2.9355429230490957 3.843599072437512 0.9999999999999996
    vertex 2.9184577550555937 3.6027227745107595 0.9999999999999996
    vertex 2.950427710073991 3.5961851981564674 0.9999999999999996
  endloop
endfacet
facet normal 0.0 0.0 1.0
  outer loop
    vertex 2.9355429230490957 3.843599072437512 0.9999999999999996
    vertex 2.950427710073991 3.5961851981564674 0.9999999999999996
    vertex 2.9681155775359698 3.845558691825397 0.9999999999999996
  endloop
endfacet
facet normal 0.0 0.0 1.0
  outer loop
    vertex 2.9681155775359698 3.845558691825397 0.9999999999999996
    vertex 2.950427710073991 3.5961851981564674 0.9999999999999996
    vertex 2.9830003645608647 3.598144817544352 0.9999999999999996
  endloop
endfacet
facet normal 0.0 0.0 1.0
  outer loop
    vertex 2.9681155775359698 3.845558691825397 0.9999999999999996
    vertex 2.9830003645608647 3.598144817544352 0.9999999999999996
    vertex 3.000085532554367 3.8390211154711036 0.9999999999999996
  endloop
endfacet
facet normal 0.0 0.0 1.0
  outer loop
    vertex 3.000085532554367 3.8390211154711036 0.9999999999999996
    vertex 2.9830003645608647 3.598144817544352 0.9999999999999996
    vertex 3.0139559459417904 3.6084680878515525 0.9999999999999996
  endloop
endfacet
facet normal 0.0 0.0 1.0
  outer loop
    vertex 3.000085532554367 3.8390211154711036 0.9999999999999996
    vertex 3.0139559459417904 3.6084680878515525 0.9999999999999996
    vertex 3.029274088502635 3.8244318683993224 0.9999999999999996
  endloop
endfacet
facet normal 0.0 0.0 1.0
  outer loop
    vertex 3.029274088502635 3.8244318683993224 0.9999999999999996
    vertex 3.0139559459417904 3.6084680878515525 0.9999999999999996
    vertex 3.041184882502175 3.626451495266645 0.9999999999999996
  endloop
endfacet
facet normal 0.0 0.0 1.0
  outer loop
    vertex 3.029274088502635 3.8244318683993224 0.9999999999999996
    vertex 3.041184882502175 3.626451495266645 0.9999999999999996
    vertex 3.0536920935292677 3.8027851836881252 0.9999999999999996
  endloop
endfacet
facet normal 0.0 0.0 1.0
  outer loop
    vertex 3.0536920935292677 3.8027851836881252 0.9999999999999996
    vertex 3.041184882502175 3.626451495266645 0.9999999999999996
    vertex 3.0628315672133715 3.650869500293278 0.9999999999999996
  endloop
endfacet
facet normal 0.0 0.0 1.0
  outer loop
    vertex 3.0536920935292677 3.8027851836881252 0.9999999999999996
    vertex 3.0628315672133715 3.650869500293278 0.9999999999999996
    vertex 3.07167550094436 3.775556247127742 0.9999999999999996
  endloop
endfacet
facet normal 0.0 0.0 1.0
  outer loop
    vertex 3.07167550094436 3.775556247127742 0.9999999999999996
    vertex 3.0628315672133715 3.650869500293278 0.9999999999999996
    vertex 3.077420814285151 3.680058056241545 0.9999999999999996
  endloop
endfacet
facet normal 0.0 0.0 1.0
  outer loop
    vertex 3.07167550094436 3.775556247127742 0.9999999999999996
    vertex 3.077420814285151 3.680058056241545 0.9999999999999996
    vertex 3.08199877125156 3.744600665746816 0.9999999999999996
  endloop
endfacet
facet normal 0.0 0.0 1.0
  outer loop
    vertex 3.08199877125156 3.744600665746816 0.9999999999999996
    vertex 3.077420814285151 3.680058056241545 0.9999999999999996
    vertex 3.0839583906394443 3.7120280112599433 0.9999999999999996
  endloop
endfacet
facet normal -0.8344359426184416 -0.551104942516825 -9.042878358336725e-16
  outer loop
    vertex 3.053692093529267 3.8027851836881252 1.7499999999999996
    vertex 3.07167550094436 3.775556247127742 0.9999999999999996
    vertex 3.0716755009443597 3.7755562471277417 1.7499999999999996
  endloop
endfacet
facet normal -0.8344359426184416 -0.551104942516825 -9.042878358336725e-16
  outer loop
    vertex 3.07167550094436 3.775556247127742 0.9999999999999996
    vertex 3.053692093529267 3.8027851836881252 1.7499999999999996
    vertex 3.0536920935292677 3.8027851836881252 0.9999999999999996
  endloop
endfacet
facet normal 1.4596859003383498e-47 4.379057701015054e-47 -1.0
  outer loop
    vertex 2.473903944062073 3.84094773791473 -4.359171954541626e-16
    vertex 2.4788929891893052 3.582176782171047 -4.359171954541626e-16
    vertex 2.4593645453123223 3.7112338499171007 -4.359171954541626e-16
  endloop
endfacet
facet normal 1.4596859003383498e-47 4.379057701015054e-47 -1.0
  outer loop
    vertex 2.4788929891893052 3.582176782171047 -4.359171954541626e-16
    vertex 2.473903944062073 3.84094773791473 -4.359171954541626e-16
    vertex 2.5215203494412535 3.962478659059233 -4.359171954541626e-16
  endloop
endfacet
facet normal 1.4596859003383498e-47 4.379057701015054e-47 -1.0
  outer loop
    vertex 2.4788929891893052 3.582176782171047 -4.359171954541626e-16
    vertex 2.5215203494412535 3.962478659059233 -4.359171954541626e-16
    vertex 2.5311584445150848 3.4625715605665754 -4.359171954541626e-16
  endloop
endfacet
facet normal 1.4596859003383498e-47 4.379057701015054e-47 -1.0
  outer loop
    vertex 2.5311584445150848 3.4625715605665754 -4.359171954541626e-16
    vertex 2.5215203494412535 3.962478659059233 -4.359171954541626e-16
    vertex 2.598968782113104 4.067544481913954 -4.359171954541626e-16
  endloop
endfacet
facet normal 1.4596859003383498e-47 4.379057701015054e-47 -1.0
  outer loop
    vertex 2.5311584445150848 3.4625715605665754 -4.359171954541626e-16
    vertex 2.598968782113104 4.067544481913954 -4.359171954541626e-16
    vertex 2.612599106881957 3.3605690832990556 -4.359171954541626e-16
  endloop
endfacet
facet normal 1.4596859003383498e-47 4.379057701015054e-47 -1.0
  outer loop
    vertex 2.612599106881957 3.3605690832990556 -4.359171954541626e-16
    vertex 2.598968782113104 4.067544481913954 -4.359171954541626e-16
    vertex 2.7009712593806237 4.148985144280827 -4.359171954541626e-16
  endloop
endfacet
facet normal 1.4596859003383498e-47 4.379057701015054e-47 -1.0
  outer loop
    vertex 2.612599106881957 3.3605690832990556 -4.359171954541626e-16
    vertex 2.7009712593806237 4.148985144280827 -4.359171954541626e-16
    vertex 2.717664929736679 3.2831206506272053 -4.359171954541626e-16
  endloop
endfacet
facet normal 1.4596859003383498e-47 4.379057701015054e-47 -1.0
  outer loop
    vertex 2.717664929736679 3.2831206506272053 -4.359171954541626e-16
    vertex 2.7009712593806237 4.148985144280827 -4.359171954541626e-16
    vertex 2.8205764809850953 4.201250599606606 -4.359171954541626e-16
  endloop
endfacet
facet normal 1.4596859003383498e-47 4.379057701015054e-47 -1.0
  outer loop
    vertex 2.717664929736679 3.2831206506272053 -4.359171954541626e-16
    vertex 2.8205764809850953 4.201250599606606 -4.359171954541626e-16
    vertex 2.8391958508811816 3.2355042452480247 -4.359171954541626e-16
  endloop
endfacet
facet normal 1.4596859003383498e-47 4.379057701015054e-47 -1.0
  outer loop
    vertex 2.8391958508811816 3.2355042452480247 -4.359171954541626e-16
    vertex 2.8205764809850953 4.201250599606606 -4.359171954541626e-16
    vertex 2.949633548731149 4.220779043483589 -4.359171954541626e-16
  endloop
endfacet
facet normal 1.4596859003383498e-47 4.379057701015054e-47 -1.0
  outer loop
    vertex 2.8391958508811816 3.2355042452480247 -4.359171954541626e-16
    vertex 2.949633548731149 4.220779043483589 -4.359171954541626e-16
    vertex 2.9689097388788115 3.220964846498274 -4.359171954541626e-16
  endloop
endfacet
facet normal 1.4596859003383498e-47 4.379057701015054e-47 -1.0
  outer loop
    vertex 2.9689097388788115 3.220964846498274 -4.359171954541626e-16
    vertex 2.949633548731149 4.220779043483589 -4.359171954541626e-16
    vertex 3.0793474367287783 4.20623964473384 -4.359171954541626e-16
  endloop
endfacet
facet normal 1.4596859003383498e-47 4.379057701015054e-47 -1.0
  outer loop
    vertex 2.9689097388788115 3.220964846498274 -4.359171954541626e-16
    vertex 3.0793474367287783 4.20623964473384 -4.359171954541626e-16
    vertex 3.0979668066248647 3.2404932903752575 -4.359171954541626e-16
  endloop
endfacet
facet normal 1.4596859003383498e-47 4.379057701015054e-47 -1.0
  outer loop
    vertex 3.0979668066248647 3.2404932903752575 -4.359171954541626e-16
    vertex 3.0793474367287783 4.20623964473384 -4.359171954541626e-16
    vertex 3.200878357873281 4.158623239354659 -4.359171954541626e-16
  endloop
endfacet
facet normal 1.4596859003383498e-47 4.379057701015054e-47 -1.0
  outer loop
    vertex 3.0979668066248647 3.2404932903752575 -4.359171954541626e-16
    vertex 3.200878357873281 4.158623239354659 -4.359171954541626e-16
    vertex 3.2175720282293367 3.2927587457010365 -4.359171954541626e-16
  endloop
endfacet
facet normal 1.4596859003383498e-47 4.379057701015054e-47 -1.0
  outer loop
    vertex 3.2175720282293367 3.2927587457010365 -4.359171954541626e-16
    vertex 3.200878357873281 4.158623239354659 -4.359171954541626e-16
    vertex 3.3059441807280026 4.081174806682808 -4.359171954541626e-16
  endloop
endfacet
facet normal 1.4596859003383498e-47 4.379057701015054e-47 -1.0
  outer loop
    vertex 3.2175720282293367 3.2927587457010365 -4.359171954541626e-16
    vertex 3.3059441807280026 4.081174806682808 -4.359171954541626e-16
    vertex 3.319574505496856 3.374199408067909 -4.359171954541626e-16
  endloop
endfacet
facet normal 1.4596859003383498e-47 4.379057701015054e-47 -1.0
  outer loop
    vertex 3.319574505496856 3.374199408067909 -4.359171954541626e-16
    vertex 3.3059441807280026 4.081174806682808 -4.359171954541626e-16
    vertex 3.387384843094875 3.9791723294152885 -4.359171954541626e-16
  endloop
endfacet
facet normal 1.4596859003383498e-47 4.379057701015054e-47 -1.0
  outer loop
    vertex 3.319574505496856 3.374199408067909 -4.359171954541626e-16
    vertex 3.387384843094875 3.9791723294152885 -4.359171954541626e-16
    vertex 3.397022938168707 3.4792652309226306 -4.359171954541626e-16
  endloop
endfacet
facet normal 1.4596859003383498e-47 4.379057701015054e-47 -1.0
  outer loop
    vertex 3.397022938168707 3.4792652309226306 -4.359171954541626e-16
    vertex 3.387384843094875 3.9791723294152885 -4.359171954541626e-16
    vertex 3.4396502984206547 3.859567107810817 -4.359171954541626e-16
  endloop
endfacet
facet normal 1.4596859003383498e-47 4.379057701015054e-47 -1.0
  outer loop
    vertex 3.397022938168707 3.4792652309226306 -4.359171954541626e-16
    vertex 3.4396502984206547 3.859567107810817 -4.359171954541626e-16
    vertex 3.4446393435478875 3.6007961520671334 -4.359171954541626e-16
  endloop
endfacet
facet normal 1.4596859003383498e-47 4.379057701015054e-47 -1.0
  outer loop
    vertex 3.4446393435478875 3.6007961520671334 -4.359171954541626e-16
    vertex 3.4396502984206547 3.859567107810817 -4.359171954541626e-16
    vertex 3.4591787422976377 3.7305100400647633 -4.359171954541626e-16
  endloop
endfacet
facet normal -0.7482944108402934 0.6633667723855171 -3.221141767123584e-16
  outer loop
    vertex 3.0628315672133706 3.6508695002932767 1.7499999999999996
    vertex 3.041184882502175 3.626451495266645 0.9999999999999996
    vertex 3.0411848825021734 3.6264514952666445 1.7499999999999996
  endloop
endfacet
facet normal -0.7482944108402934 0.6633667723855171 -3.221141767123584e-16
  outer loop
    vertex 3.041184882502175 3.626451495266645 0.9999999999999996
    vertex 3.0628315672133706 3.6508695002932767 1.7499999999999996
    vertex 3.0628315672133715 3.650869500293278 0.9999999999999996
  endloop
endfacet
facet normal -0.9797253554903558 0.20034527149223244 6.987421764052876e-16
  outer loop
    vertex 3.0839583906394448 3.712028011259943 1.7499999999999996
    vertex 3.077420814285151 3.680058056241545 0.9999999999999996
    vertex 3.0774208142851514 3.6800580562415446 1.7499999999999996
  endloop
endfacet
facet normal -0.9797253554903558 0.20034527149223244 6.987421764052876e-16
  outer loop
    vertex 3.077420814285151 3.680058056241545 0.9999999999999996
    vertex 3.0839583906394448 3.712028011259943 1.7499999999999996
    vertex 3.0839583906394443 3.7120280112599433 0.9999999999999996
  endloop
endfacet
facet normal -0.8049405339090334 0.5933554894582508 -8.321140120222474e-17
  outer loop
    vertex 2.598968782113104 4.067544481913955 1.9999999999999996
    vertex 2.5215203494412535 3.962478659059233 -4.359171954541626e-16
    vertex 2.5215203494412535 3.962478659059233 1.9999999999999996
  endloop
endfacet
facet normal -0.8049405339090334 0.5933554894582508 -8.321140120222474e-17
  outer loop
    vertex 2.5215203494412535 3.962478659059233 -4.359171954541626e-16
    vertex 2.598968782113104 4.067544481913955 1.9999999999999996
    vertex 2.598968782113104 4.067544481913954 -4.359171954541626e-16
  endloop
endfacet
facet normal -0.8944888516799591 0.4470902528799619 2.6463932078017665e-16
  outer loop
    vertex 3.0774208142851514 3.6800580562415446 1.7499999999999996
    vertex 3.0628315672133715 3.650869500293278 0.9999999999999996
    vertex 3.0628315672133706 3.6508695002932767 1.7499999999999996
  endloop
endfacet
facet normal -0.8944888516799591 0.4470902528799619 2.6463932078017665e-16
  outer loop
    vertex 3.0628315672133715 3.650869500293278 0.9999999999999996
    vertex 3.0774208142851514 3.6800580562415446 1.7499999999999996
    vertex 3.077420814285151 3.680058056241545 0.9999999999999996
  endloop
endfacet
facet normal 0.9981951953967966 0.06005290906152139 0.0
  outer loop
    vertex 2.834584896970515 3.729715878721921 0.9999999999999996
    vertex 2.8365445163583995 3.6971432242350475 1.7499999999999996
    vertex 2.8365445163583995 3.6971432242350475 0.9999999999999996
  endloop
endfacet
facet normal 0.9981951953967966 0.06005290906152139 0.0
  outer loop
    vertex 2.8365445163583995 3.6971432242350475 1.7499999999999996
    vertex 2.834584896970515 3.729715878721921 0.9999999999999996
    vertex 2.834584896970515 3.729715878721921 1.7499999999999996
  endloop
endfacet
facet normal 0.8944888516799508 -0.4470902528799782 0.0
  outer loop
    vertex 2.841122473324808 3.7616858337403194 0.9999999999999996
    vertex 2.855711720396589 3.790874389688587 1.7499999999999996
    vertex 2.841122473324808 3.761685833740319 1.7499999999999996
  endloop
endfacet
facet normal 0.8944888516799508 -0.4470902528799782 0.0
  outer loop
    vertex 2.855711720396589 3.790874389688587 1.7499999999999996
    vertex 2.841122473324808 3.7616858337403194 0.9999999999999996
    vertex 2.855711720396589 3.7908743896885864 0.9999999999999996
  endloop
endfacet
facet normal -0.3163585831048172 0.9486396823325032 4.680465738124053e-16
  outer loop
    vertex 2.9830003645608647 3.5981448175443513 1.7499999999999996
    vertex 3.0139559459417904 3.6084680878515525 0.9999999999999996
    vertex 2.9830003645608647 3.598144817544352 0.9999999999999996
  endloop
endfacet
facet normal -0.3163585831048172 0.9486396823325032 4.680465738124053e-16
  outer loop
    vertex 3.0139559459417904 3.6084680878515525 0.9999999999999996
    vertex 2.9830003645608647 3.5981448175443513 1.7499999999999996
    vertex 3.01395594594179 3.608468087851552 1.7499999999999996
  endloop
endfacet
facet normal -0.5511049425168105 0.834435942618451 -1.5855402467411882e-16
  outer loop
    vertex 3.01395594594179 3.608468087851552 1.7499999999999996
    vertex 3.041184882502175 3.626451495266645 0.9999999999999996
    vertex 3.0139559459417904 3.6084680878515525 0.9999999999999996
  endloop
endfacet
facet normal -0.5511049425168105 0.834435942618451 -1.5855402467411882e-16
  outer loop
    vertex 3.041184882502175 3.626451495266645 0.9999999999999996
    vertex 3.01395594594179 3.608468087851552 1.7499999999999996
    vertex 3.0411848825021734 3.6264514952666445 1.7499999999999996
  endloop
endfacet
facet normal 0.6633667723855212 0.7482944108402897 -4.682229300975831e-16
  outer loop
    vertex 2.8648511940806927 3.6389587062937383 1.7499999999999996
    vertex 2.889269199107326 3.6173120215825403 0.9999999999999996
    vertex 2.864851194080692 3.6389587062937374 0.9999999999999996
  endloop
endfacet
facet normal 0.6633667723855212 0.7482944108402897 -4.682229300975831e-16
  outer loop
    vertex 2.889269199107326 3.6173120215825403 0.9999999999999996
    vertex 2.8648511940806927 3.6389587062937383 1.7499999999999996
    vertex 2.889269199107325 3.6173120215825407 1.7499999999999996
  endloop
endfacet
facet normal -0.06005290906152139 0.9981951953967966 5.91050287466523e-16
  outer loop
    vertex 2.950427710073991 3.596185198156467 1.7499999999999996
    vertex 2.9830003645608647 3.598144817544352 0.9999999999999996
    vertex 2.950427710073991 3.5961851981564674 0.9999999999999996
  endloop
endfacet
facet normal -0.06005290906152139 0.9981951953967966 5.91050287466523e-16
  outer loop
    vertex 2.9830003645608647 3.598144817544352 0.9999999999999996
    vertex 2.950427710073991 3.596185198156467 1.7499999999999996
    vertex 2.9830003645608647 3.5981448175443513 1.7499999999999996
  endloop
endfacet
facet normal -0.9981951953967968 -0.06005290906151542 8.865754311997847e-16
  outer loop
    vertex 3.081998771251561 3.7446006657468165 1.7499999999999996
    vertex 3.0839583906394443 3.7120280112599433 0.9999999999999996
    vertex 3.0839583906394448 3.712028011259943 1.7499999999999996
  endloop
endfacet
facet normal -0.9981951953967968 -0.06005290906151542 8.865754311997847e-16
  outer loop
    vertex 3.0839583906394443 3.7120280112599433 0.9999999999999996
    vertex 3.081998771251561 3.7446006657468165 1.7499999999999996
    vertex 3.08199877125156 3.744600665746816 0.9999999999999996
  endloop
endfacet
facet normal 0.9797253554903581 -0.2003452714922207 -5.931411554278437e-17
  outer loop
    vertex 2.841122473324808 3.7616858337403194 0.9999999999999996
    vertex 2.834584896970515 3.729715878721921 1.7499999999999996
    vertex 2.834584896970515 3.729715878721921 0.9999999999999996
  endloop
endfacet
facet normal 0.9797253554903581 -0.2003452714922207 -5.931411554278437e-17
  outer loop
    vertex 2.834584896970515 3.729715878721921 1.7499999999999996
    vertex 2.841122473324808 3.7616858337403194 0.9999999999999996
    vertex 2.841122473324808 3.761685833740319 1.7499999999999996
  endloop
endfacet
facet normal -0.5933554894582493 -0.8049405339090344 -5.64419061599922e-17
  outer loop
    vertex 2.717664929736679 3.283120650627205 1.9999999999999996
    vertex 2.612599106881957 3.3605690832990556 -4.359171954541626e-16
    vertex 2.717664929736679 3.2831206506272053 -4.359171954541626e-16
  endloop
endfacet
facet normal -0.5933554894582493 -0.8049405339090344 -5.64419061599922e-17
  outer loop
    vertex 2.612599106881957 3.3605690832990556 -4.359171954541626e-16
    vertex 2.717664929736679 3.283120650627205 1.9999999999999996
    vertex 2.612599106881957 3.3605690832990556 1.9999999999999996
  endloop
endfacet
facet normal 0.94863968233251 0.3163585831047967 -4.680465738124154e-16
  outer loop
    vertex 2.846867786665599 3.6661876428541227 0.9999999999999996
    vertex 2.8365445163583995 3.6971432242350475 1.7499999999999996
    vertex 2.8468677866656 3.6661876428541222 1.7499999999999996
  endloop
endfacet
facet normal 0.94863968233251 0.3163585831047967 -4.680465738124154e-16
  outer loop
    vertex 2.8365445163583995 3.6971432242350475 1.7499999999999996
    vertex 2.846867786665599 3.6661876428541227 0.9999999999999996
    vertex 2.8365445163583995 3.6971432242350475 0.9999999999999996
  endloop
endfacet
facet normal -0.20034527149223644 -0.9797253554903549 -6.394280608625003e-16
  outer loop
    vertex 3.000085532554367 3.839021115471103 1.7499999999999996
    vertex 2.9681155775359698 3.845558691825397 0.9999999999999996
    vertex 3.000085532554367 3.8390211154711036 0.9999999999999996
  endloop
endfacet
facet normal -0.20034527149223644 -0.9797253554903549 -6.394280608625003e-16
  outer loop
    vertex 2.9681155775359698 3.845558691825397 0.9999999999999996
    vertex 3.000085532554367 3.839021115471103 1.7499999999999996
    vertex 2.9681155775359693 3.8455586918253966 1.7499999999999996
  endloop
endfacet
facet normal 0.20034527149220896 0.9797253554903604 1.1862823108556179e-16
  outer loop
    vertex 2.918457755055593 3.60272277451076 1.7499999999999996
    vertex 2.950427710073991 3.5961851981564674 0.9999999999999996
    vertex 2.9184577550555937 3.6027227745107595 0.9999999999999996
  endloop
endfacet
facet normal 0.20034527149220896 0.9797253554903604 1.1862823108556179e-16
  outer loop
    vertex 2.950427710073991 3.5961851981564674 0.9999999999999996
    vertex 2.918457755055593 3.60272277451076 1.7499999999999996
    vertex 2.950427710073991 3.596185198156467 1.7499999999999996
  endloop
endfacet
facet normal 0.5511049425168344 -0.8344359426184355 -7.92770123370781e-17
  outer loop
    vertex 2.9045873416681705 3.8332758021303115 1.7499999999999996
    vertex 2.877358405107786 3.8152923947152177 0.9999999999999996
    vertex 2.90458734166817 3.833275802130312 0.9999999999999996
  endloop
endfacet
facet normal 0.5511049425168344 -0.8344359426184355 -7.92770123370781e-17
  outer loop
    vertex 2.877358405107786 3.8152923947152177 0.9999999999999996
    vertex 2.9045873416681705 3.8332758021303115 1.7499999999999996
    vertex 2.8773584051077865 3.8152923947152186 1.7499999999999996
  endloop
endfacet
facet normal 0.3163585831048171 -0.9486396823325032 -9.366095546686909e-17
  outer loop
    vertex 2.9355429230490957 3.8435990724375126 1.7499999999999996
    vertex 2.90458734166817 3.833275802130312 0.9999999999999996
    vertex 2.9355429230490957 3.843599072437512 0.9999999999999996
  endloop
endfacet
facet normal 0.3163585831048171 -0.9486396823325032 -9.366095546686909e-17
  outer loop
    vertex 2.90458734166817 3.833275802130312 0.9999999999999996
    vertex 2.9355429230490957 3.8435990724375126 1.7499999999999996
    vertex 2.9045873416681705 3.8332758021303115 1.7499999999999996
  endloop
endfacet
facet normal -0.948639682332506 -0.316358583104809 2.80853764639638e-16
  outer loop
    vertex 3.081998771251561 3.7446006657468165 1.7499999999999996
    vertex 3.07167550094436 3.775556247127742 0.9999999999999996
    vertex 3.08199877125156 3.744600665746816 0.9999999999999996
  endloop
endfacet
facet normal -0.948639682332506 -0.316358583104809 2.80853764639638e-16
  outer loop
    vertex 3.07167550094436 3.775556247127742 0.9999999999999996
    vertex 3.081998771251561 3.7446006657468165 1.7499999999999996
    vertex 3.0716755009443597 3.7755562471277417 1.7499999999999996
  endloop
endfacet
facet normal -0.4470902528799782 -0.8944888516799508 -2.6482189824149285e-16
  outer loop
    vertex 3.029274088502635 3.8244318683993224 1.7499999999999996
    vertex 3.000085532554367 3.8390211154711036 0.9999999999999996
    vertex 3.029274088502635 3.8244318683993224 0.9999999999999996
  endloop
endfacet
facet normal -0.4470902528799782 -0.8944888516799508 -2.6482189824149285e-16
  outer loop
    vertex 3.000085532554367 3.8390211154711036 0.9999999999999996
    vertex 3.029274088502635 3.8244318683993224 1.7499999999999996
    vertex 3.000085532554367 3.839021115471103 1.7499999999999996
  endloop
endfacet
facet normal -0.6633667723855274 -0.748294410840284 -3.9279203438596694e-16
  outer loop
    vertex 3.053692093529267 3.8027851836881252 1.7499999999999996
    vertex 3.029274088502635 3.8244318683993224 0.9999999999999996
    vertex 3.0536920935292677 3.8027851836881252 0.9999999999999996
  endloop
endfacet
facet normal -0.6633667723855274 -0.748294410840284 -3.9279203438596694e-16
  outer loop
    vertex 3.029274088502635 3.8244318683993224 0.9999999999999996
    vertex 3.053692093529267 3.8027851836881252 1.7499999999999996
    vertex 3.029274088502635 3.8244318683993224 1.7499999999999996
  endloop
endfacet
facet normal 0.44709025287997284 0.8944888516799535 -1.8257746130242858e-19
  outer loop
    vertex 2.889269199107325 3.6173120215825407 1.7499999999999996
    vertex 2.9184577550555937 3.6027227745107595 0.9999999999999996
    vertex 2.889269199107326 3.6173120215825403 0.9999999999999996
  endloop
endfacet
facet normal 0.44709025287997284 0.8944888516799535 -1.8257746130242858e-19
  outer loop
    vertex 2.9184577550555937 3.6027227745107595 0.9999999999999996
    vertex 2.889269199107325 3.6173120215825407 1.7499999999999996
    vertex 2.918457755055593 3.60272277451076 1.7499999999999996
  endloop
endfacet
facet normal 0.7482944108402716 -0.6633667723855414 3.676484024821133e-16
  outer loop
    vertex 2.877358405107786 3.8152923947152177 0.9999999999999996
    vertex 2.855711720396589 3.790874389688587 1.7499999999999996
    vertex 2.855711720396589 3.7908743896885864 0.9999999999999996
  endloop
endfacet
facet normal 0.7482944108402716 -0.6633667723855414 3.676484024821133e-16
  outer loop
    vertex 2.855711720396589 3.790874389688587 1.7499999999999996
    vertex 2.877358405107786 3.8152923947152177 0.9999999999999996
    vertex 2.8773584051077865 3.8152923947152186 1.7499999999999996
  endloop
endfacet
facet normal 0.06005290906152099 -0.9981951953967966 1.777923262288568e-17
  outer loop
    vertex 2.9681155775359693 3.8455586918253966 1.7499999999999996
    vertex 2.9355429230490957 3.843599072437512 0.9999999999999996
    vertex 2.9681155775359698 3.845558691825397 0.9999999999999996
  endloop
endfacet
facet normal 0.06005290906152099 -0.9981951953967966 1.777923262288568e-17
  outer loop
    vertex 2.9355429230490957 3.843599072437512 0.9999999999999996
    vertex 2.9681155775359693 3.8455586918253966 1.7499999999999996
    vertex 2.9355429230490957 3.8435990724375126 1.7499999999999996
  endloop
endfacet
facet normal 0.8344359426184478 0.5511049425168155 -9.042878358336752e-16
  outer loop
    vertex 2.846867786665599 3.6661876428541227 0.9999999999999996
    vertex 2.8648511940806927 3.6389587062937383 1.7499999999999996
    vertex 2.864851194080692 3.6389587062937374 0.9999999999999996
  endloop
endfacet
facet normal 0.8344359426184478 0.5511049425168155 -9.042878358336752e-16
  outer loop
    vertex 2.8648511940806927 3.6389587062937383 1.7499999999999996
    vertex 2.846867786665599 3.6661876428541227 0.9999999999999996
    vertex 2.8468677866656 3.6661876428541222 1.7499999999999996
  endloop
endfacet
facet normal -0.6239411491417254 0.7814713317887632 -1.0959252197512043e-16
  outer loop
    vertex 2.598968782113104 4.067544481913955 1.9999999999999996
    vertex 2.7009712593806237 4.148985144280827 -4.359171954541626e-16
    vertex 2.598968782113104 4.067544481913954 -4.359171954541626e-16
  endloop
endfacet
facet normal -0.6239411491417254 0.7814713317887632 -1.0959252197512043e-16
  outer loop
    vertex 2.7009712593806237 4.148985144280827 -4.359171954541626e-16
    vertex 2.598968782113104 4.067544481913955 1.9999999999999996
    vertex 2.7009712593806237 4.148985144280827 1.9999999999999996
  endloop
endfacet
facet normal 0.9937766956301578 -0.11139066039127607 7.810640582816598e-18
  outer loop
    vertex 3.4591787422976377 3.7305100400647633 -4.359171954541626e-16
    vertex 3.4446393435478875 3.600796152067134 1.9999999999999996
    vertex 3.4446393435478875 3.6007961520671334 -4.359171954541626e-16
  endloop
endfacet
facet normal 0.9937766956301578 -0.11139066039127607 7.810640582816598e-18
  outer loop
    vertex 3.4446393435478875 3.600796152067134 1.9999999999999996
    vertex 3.4591787422976377 3.7305100400647633 -4.359171954541626e-16
    vertex 3.4591787422976377 3.7305100400647633 1.9999999999999996
  endloop
endfacet
facet normal 0.3648034510874667 0.93108455151757 1.3057408509064342e-16
  outer loop
    vertex 3.0793474367287783 4.20623964473384 1.9999999999999996
    vertex 3.200878357873281 4.158623239354659 -4.359171954541626e-16
    vertex 3.0793474367287783 4.20623964473384 -4.359171954541626e-16
  endloop
endfacet
facet normal 0.3648034510874667 0.93108455151757 1.3057408509064342e-16
  outer loop
    vertex 3.200878357873281 4.158623239354659 -4.359171954541626e-16
    vertex 3.0793474367287783 4.20623964473384 1.9999999999999996
    vertex 3.200878357873281 4.158623239354658 1.9999999999999996
  endloop
endfacet
facet normal 0.11139066039126844 0.9937766956301587 -1.3936594974625367e-16
  outer loop
    vertex 2.949633548731149 4.2207790434835895 1.9999999999999996
    vertex 3.0793474367287783 4.20623964473384 -4.359171954541626e-16
    vertex 2.949633548731149 4.220779043483589 -4.359171954541626e-16
  endloop
endfacet
facet normal 0.11139066039126844 0.9937766956301587 -1.3936594974625367e-16
  outer loop
    vertex 3.0793474367287783 4.20623964473384 -4.359171954541626e-16
    vertex 2.949633548731149 4.2207790434835895 1.9999999999999996
    vertex 3.0793474367287783 4.20623964473384 1.9999999999999996
  endloop
endfacet
facet normal 0.9887446002291898 0.1496132197288057 1.049078155776144e-17
  outer loop
    vertex 3.4396502984206547 3.859567107810817 -4.359171954541626e-16
    vertex 3.4591787422976377 3.7305100400647633 1.9999999999999996
    vertex 3.4591787422976377 3.7305100400647633 -4.359171954541626e-16
  endloop
endfacet
facet normal 0.9887446002291898 0.1496132197288057 1.049078155776144e-17
  outer loop
    vertex 3.4591787422976377 3.7305100400647633 1.9999999999999996
    vertex 3.4396502984206547 3.859567107810817 -4.359171954541626e-16
    vertex 3.4396502984206547 3.8595671078108165 1.9999999999999996
  endloop
endfacet
facet normal -0.9937766956301576 0.11139066039127972 0.0
  outer loop
    vertex 2.473903944062073 3.84094773791473 1.9999999999999996
    vertex 2.4593645453123223 3.7112338499171007 -4.359171954541626e-16
    vertex 2.4593645453123223 3.7112338499171007 1.9999999999999996
  endloop
endfacet
facet normal -0.9937766956301576 0.11139066039127972 0.0
  outer loop
    vertex 2.4593645453123223 3.7112338499171007 -4.359171954541626e-16
    vertex 2.473903944062073 3.84094773791473 1.9999999999999996
    vertex 2.473903944062073 3.84094773791473 -4.359171954541626e-16
  endloop
endfacet
facet normal -0.40042120617190874 0.9163311943003108 -1.2850509348561764e-16
  outer loop
    vertex 2.7009712593806237 4.148985144280827 1.9999999999999996
    vertex 2.8205764809850953 4.201250599606606 -4.359171954541626e-16
    vertex 2.7009712593806237 4.148985144280827 -4.359171954541626e-16
  endloop
endfacet
facet normal -0.40042120617190874 0.9163311943003108 -1.2850509348561764e-16
  outer loop
    vertex 2.8205764809850953 4.201250599606606 -4.359171954541626e-16
    vertex 2.7009712593806237 4.148985144280827 1.9999999999999996
    vertex 2.8205764809850953 4.201250599606607 1.9999999999999996
  endloop
endfacet
facet normal -0.7814713317887655 -0.6239411491417226 0.0
  outer loop
    vertex 2.5311584445150848 3.4625715605665754 1.9999999999999996
    vertex 2.612599106881957 3.3605690832990556 -4.359171954541626e-16
    vertex 2.612599106881957 3.3605690832990556 1.9999999999999996
  endloop
endfacet
facet normal -0.7814713317887655 -0.6239411491417226 0.0
  outer loop
    vertex 2.612599106881957 3.3605690832990556 -4.359171954541626e-16
    vertex 2.5311584445150848 3.4625715605665754 1.9999999999999996
    vertex 2.5311584445150848 3.4625715605665754 -4.359171954541626e-16
  endloop
endfacet
facet normal 0.7814713317887642 0.6239411491417242 4.3750347144519217e-17
  outer loop
    vertex 3.387384843094875 3.9791723294152885 -4.359171954541626e-16
    vertex 3.3059441807280026 4.081174806682808 1.9999999999999996
    vertex 3.387384843094875 3.979172329415288 1.9999999999999996
  endloop
endfacet
facet normal 0.7814713317887642 0.6239411491417242 4.3750347144519217e-17
  outer loop
    vertex 3.3059441807280026 4.081174806682808 1.9999999999999996
    vertex 3.387384843094875 3.9791723294152885 -4.359171954541626e-16
    vertex 3.3059441807280026 4.081174806682808 -4.359171954541626e-16
  endloop
endfacet
facet normal -0.9163311943003103 -0.40042120617190957 0.0
  outer loop
    vertex 2.4788929891893052 3.582176782171047 1.9999999999999996
    vertex 2.5311584445150848 3.4625715605665754 -4.359171954541626e-16
    vertex 2.5311584445150848 3.4625715605665754 1.9999999999999996
  endloop
endfacet
facet normal -0.9163311943003103 -0.40042120617190957 0.0
  outer loop
    vertex 2.5311584445150848 3.4625715605665754 -4.359171954541626e-16
    vertex 2.4788929891893052 3.582176782171047 1.9999999999999996
    vertex 2.4788929891893052 3.582176782171047 -4.359171954541626e-16
  endloop
endfacet
facet normal 0.9163311943003103 0.40042120617190957 5.615454854402916e-17
  outer loop
    vertex 3.4396502984206547 3.859567107810817 -4.359171954541626e-16
    vertex 3.387384843094875 3.979172329415288 1.9999999999999996
    vertex 3.4396502984206547 3.8595671078108165 1.9999999999999996
  endloop
endfacet
facet normal 0.9163311943003103 0.40042120617190957 5.615454854402916e-17
  outer loop
    vertex 3.387384843094875 3.979172329415288 1.9999999999999996
    vertex 3.4396502984206547 3.859567107810817 -4.359171954541626e-16
    vertex 3.387384843094875 3.9791723294152885 -4.359171954541626e-16
  endloop
endfacet
facet normal 0.5933554894582509 0.8049405339090333 1.128838123199842e-16
  outer loop
    vertex 3.200878357873281 4.158623239354658 1.9999999999999996
    vertex 3.3059441807280026 4.081174806682808 -4.359171954541626e-16
    vertex 3.200878357873281 4.158623239354659 -4.359171954541626e-16
  endloop
endfacet
facet normal 0.5933554894582509 0.8049405339090333 1.128838123199842e-16
  outer loop
    vertex 3.3059441807280026 4.081174806682808 -4.359171954541626e-16
    vertex 3.200878357873281 4.158623239354658 1.9999999999999996
    vertex 3.3059441807280026 4.081174806682808 1.9999999999999996
  endloop
endfacet
facet normal -0.8682431421244599 0.49613893835683254 0.0
  outer loop
    vertex 3.2351487150624605 3.7095507263157845 1.9999999999999996
    vertex 3.10367944724809 3.4794795076406357 1.7499999999999996
    vertex 3.10367944724809 3.4794795076406357 1.9999999999999996
  endloop
endfacet
facet normal -0.8682431421244599 0.49613893835683254 0.0
  outer loop
    vertex 3.10367944724809 3.4794795076406357 1.7499999999999996
    vertex 3.2351487150624605 3.7095507263157845 1.9999999999999996
    vertex 3.2351487150624605 3.7095507263157845 1.7499999999999996
  endloop
endfacet
facet normal 0.8049405339090325 -0.5933554894582518 4.160570060111246e-17
  outer loop
    vertex 3.397022938168707 3.4792652309226306 -4.359171954541626e-16
    vertex 3.319574505496856 3.374199408067909 1.9999999999999996
    vertex 3.319574505496856 3.374199408067909 -4.359171954541626e-16
  endloop
endfacet
facet normal 0.8049405339090325 -0.5933554894582518 4.160570060111246e-17
  outer loop
    vertex 3.319574505496856 3.374199408067909 1.9999999999999996
    vertex 3.397022938168707 3.4792652309226306 -4.359171954541626e-16
    vertex 3.397022938168707 3.479265230922631 1.9999999999999996
  endloop
endfacet
facet normal 0.40042120617190646 -0.9163311943003117 -6.425254674280888e-17
  outer loop
    vertex 3.2175720282293367 3.2927587457010365 1.9999999999999996
    vertex 3.0979668066248647 3.2404932903752575 -4.359171954541626e-16
    vertex 3.2175720282293367 3.2927587457010365 -4.359171954541626e-16
  endloop
endfacet
facet normal 0.40042120617190646 -0.9163311943003117 -6.425254674280888e-17
  outer loop
    vertex 3.0979668066248647 3.2404932903752575 -4.359171954541626e-16
    vertex 3.2175720282293367 3.2927587457010365 1.9999999999999996
    vertex 3.0979668066248647 3.240493290375257 1.9999999999999996
  endloop
endfacet
facet normal 0.0 -1.0 0.0
  outer loop
    vertex 3.10367944724809 3.9396219449909324 1.9999999999999996
    vertex 2.8407409116193496 3.9396219449909324 1.7499999999999996
    vertex 3.10367944724809 3.9396219449909324 1.7499999999999996
  endloop
endfacet
facet normal 0.0 -1.0 0.0
  outer loop
    vertex 2.8407409116193496 3.9396219449909324 1.7499999999999996
    vertex 3.10367944724809 3.9396219449909324 1.9999999999999996
    vertex 2.8407409116193496 3.9396219449909324 1.9999999999999996
  endloop
endfacet
facet normal 0.0 0.0 1.0
  outer loop
    vertex 2.4788929891893052 3.582176782171047 1.9999999999999996
    vertex 2.473903944062073 3.84094773791473 1.9999999999999996
    vertex 2.4593645453123223 3.7112338499171007 1.9999999999999996
  endloop
endfacet
facet normal 0.0 0.0 1.0
  outer loop
    vertex 2.473903944062073 3.84094773791473 1.9999999999999996
    vertex 2.4788929891893052 3.582176782171047 1.9999999999999996
    vertex 2.5215203494412535 3.962478659059233 1.9999999999999996
  endloop
endfacet
facet normal 0.0 0.0 1.0
  outer loop
    vertex 2.5215203494412535 3.962478659059233 1.9999999999999996
    vertex 2.4788929891893052 3.582176782171047 1.9999999999999996
    vertex 2.5311584445150848 3.4625715605665754 1.9999999999999996
  endloop
endfacet
facet normal 0.0 0.0 1.0
  outer loop
    vertex 2.5215203494412535 3.962478659059233 1.9999999999999996
    vertex 2.5311584445150848 3.4625715605665754 1.9999999999999996
    vertex 2.598968782113104 4.067544481913955 1.9999999999999996
  endloop
endfacet
facet normal 0.0 0.0 1.0
  outer loop
    vertex 2.598968782113104 4.067544481913955 1.9999999999999996
    vertex 2.5311584445150848 3.4625715605665754 1.9999999999999996
    vertex 2.612599106881957 3.3605690832990556 1.9999999999999996
  endloop
endfacet
facet normal 0.0 0.0 1.0
  outer loop
    vertex 2.598968782113104 4.067544481913955 1.9999999999999996
    vertex 2.612599106881957 3.3605690832990556 1.9999999999999996
    vertex 2.7009712593806237 4.148985144280827 1.9999999999999996
  endloop
endfacet
facet normal 0.0 0.0 1.0
  outer loop
    vertex 2.7009712593806237 4.148985144280827 1.9999999999999996
    vertex 2.612599106881957 3.3605690832990556 1.9999999999999996
    vertex 2.70927164380498 3.7095507263157845 1.9999999999999996
  endloop
endfacet
facet normal 0.0 0.0 1.0
  outer loop
    vertex 2.70927164380498 3.7095507263157845 1.9999999999999996
    vertex 2.612599106881957 3.3605690832990556 1.9999999999999996
    vertex 2.717664929736679 3.283120650627205 1.9999999999999996
  endloop
endfacet
facet normal 0.0 0.0 1.0
  outer loop
    vertex 2.70927164380498 3.7095507263157845 1.9999999999999996
    vertex 2.717664929736679 3.283120650627205 1.9999999999999996
    vertex 2.8407409116193496 3.4794795076406357 1.9999999999999996
  endloop
endfacet
facet normal 0.0 0.0 1.0
  outer loop
    vertex 2.8407409116193496 3.4794795076406357 1.9999999999999996
    vertex 2.717664929736679 3.283120650627205 1.9999999999999996
    vertex 2.8391958508811816 3.2355042452480243 1.9999999999999996
  endloop
endfacet
facet normal 0.0 0.0 1.0
  outer loop
    vertex 2.8407409116193496 3.4794795076406357 1.9999999999999996
    vertex 2.8391958508811816 3.2355042452480243 1.9999999999999996
    vertex 2.9689097388788115 3.220964846498274 1.9999999999999996
  endloop
endfacet
facet normal 0.0 0.0 1.0
  outer loop
    vertex 2.8407409116193496 3.4794795076406357 1.9999999999999996
    vertex 2.9689097388788115 3.220964846498274 1.9999999999999996
    vertex 3.10367944724809 3.4794795076406357 1.9999999999999996
  endloop
endfacet
facet normal 0.0 0.0 1.0
  outer loop
    vertex 3.10367944724809 3.4794795076406357 1.9999999999999996
    vertex 2.9689097388788115 3.220964846498274 1.9999999999999996
    vertex 3.0979668066248647 3.240493290375257 1.9999999999999996
  endloop
endfacet
facet normal 0.0 0.0 1.0
  outer loop
    vertex 3.10367944724809 3.4794795076406357 1.9999999999999996
    vertex 3.0979668066248647 3.240493290375257 1.9999999999999996
    vertex 3.2175720282293367 3.2927587457010365 1.9999999999999996
  endloop
endfacet
facet normal 0.0 0.0 1.0
  outer loop
    vertex 3.10367944724809 3.4794795076406357 1.9999999999999996
    vertex 3.2175720282293367 3.2927587457010365 1.9999999999999996
    vertex 3.2351487150624605 3.7095507263157845 1.9999999999999996
  endloop
endfacet
facet normal 0.0 0.0 1.0
  outer loop
    vertex 3.2351487150624605 3.7095507263157845 1.9999999999999996
    vertex 3.2175720282293367 3.2927587457010365 1.9999999999999996
    vertex 3.319574505496856 3.374199408067909 1.9999999999999996
  endloop
endfacet
facet normal 0.0 0.0 1.0
  outer loop
    vertex 3.2351487150624605 3.7095507263157845 1.9999999999999996
    vertex 3.319574505496856 3.374199408067909 1.9999999999999996
    vertex 3.3059441807280026 4.081174806682808 1.9999999999999996
  endloop
endfacet
facet normal 0.0 0.0 1.0
  outer loop
    vertex 3.3059441807280026 4.081174806682808 1.9999999999999996
    vertex 3.319574505496856 3.374199408067909 1.9999999999999996
    vertex 3.387384843094875 3.979172329415288 1.9999999999999996
  endloop
endfacet
facet normal 0.0 0.0 1.0
  outer loop
    vertex 3.387384843094875 3.979172329415288 1.9999999999999996
    vertex 3.319574505496856 3.374199408067909 1.9999999999999996
    vertex 3.397022938168707 3.479265230922631 1.9999999999999996
  endloop
endfacet
facet normal 0.0 0.0 1.0
  outer loop
    vertex 3.387384843094875 3.979172329415288 1.9999999999999996
    vertex 3.397022938168707 3.479265230922631 1.9999999999999996
    vertex 3.4396502984206547 3.8595671078108165 1.9999999999999996
  endloop
endfacet
facet normal 0.0 0.0 1.0
  outer loop
    vertex 3.4396502984206547 3.8595671078108165 1.9999999999999996
    vertex 3.397022938168707 3.479265230922631 1.9999999999999996
    vertex 3.4446393435478875 3.600796152067134 1.9999999999999996
  endloop
endfacet
facet normal 0.0 0.0 1.0
  outer loop
    vertex 3.4396502984206547 3.8595671078108165 1.9999999999999996
    vertex 3.4446393435478875 3.600796152067134 1.9999999999999996
    vertex 3.4591787422976377 3.7305100400647633 1.9999999999999996
  endloop
endfacet
facet normal 0.0 0.0 1.0
  outer loop
    vertex 2.70927164380498 3.7095507263157845 1.9999999999999996
    vertex 2.8205764809850953 4.201250599606607 1.9999999999999996
    vertex 2.7009712593806237 4.148985144280827 1.9999999999999996
  endloop
endfacet
facet normal 0.0 0.0 1.0
  outer loop
    vertex 2.8205764809850953 4.201250599606607 1.9999999999999996
    vertex 2.70927164380498 3.7095507263157845 1.9999999999999996
    vertex 2.8407409116193496 3.9396219449909324 1.9999999999999996
  endloop
endfacet
facet normal 0.0 0.0 1.0
  outer loop
    vertex 2.8205764809850953 4.201250599606607 1.9999999999999996
    vertex 2.8407409116193496 3.9396219449909324 1.9999999999999996
    vertex 2.949633548731149 4.2207790434835895 1.9999999999999996
  endloop
endfacet
facet normal 0.0 0.0 1.0
  outer loop
    vertex 2.949633548731149 4.2207790434835895 1.9999999999999996
    vertex 2.8407409116193496 3.9396219449909324 1.9999999999999996
    vertex 3.10367944724809 3.9396219449909324 1.9999999999999996
  endloop
endfacet
facet normal 0.0 0.0 1.0
  outer loop
    vertex 2.949633548731149 4.2207790434835895 1.9999999999999996
    vertex 3.10367944724809 3.9396219449909324 1.9999999999999996
    vertex 3.0793474367287783 4.20623964473384 1.9999999999999996
  endloop
endfacet
facet normal 0.0 0.0 1.0
  outer loop
    vertex 3.0793474367287783 4.20623964473384 1.9999999999999996
    vertex 3.10367944724809 3.9396219449909324 1.9999999999999996
    vertex 3.200878357873281 4.158623239354658 1.9999999999999996
  endloop
endfacet
facet normal 0.0 0.0 1.0
  outer loop
    vertex 3.200878357873281 4.158623239354658 1.9999999999999996
    vertex 3.10367944724809 3.9396219449909324 1.9999999999999996
    vertex 3.2351487150624605 3.7095507263157845 1.9999999999999996
  endloop
endfacet
facet normal 0.0 0.0 1.0
  outer loop
    vertex 3.200878357873281 4.158623239354658 1.9999999999999996
    vertex 3.2351487150624605 3.7095507263157845 1.9999999999999996
    vertex 3.3059441807280026 4.081174806682808 1.9999999999999996
  endloop
endfacet
facet normal -0.11139066039127817 -0.9937766956301576 -6.968297487312676e-17
  outer loop
    vertex 2.9689097388788115 3.220964846498274 1.9999999999999996
    vertex 2.8391958508811816 3.2355042452480247 -4.359171954541626e-16
    vertex 2.9689097388788115 3.220964846498274 -4.359171954541626e-16
  endloop
endfacet
facet normal -0.11139066039127817 -0.9937766956301576 -6.968297487312676e-17
  outer loop
    vertex 2.8391958508811816 3.2355042452480247 -4.359171954541626e-16
    vertex 2.9689097388788115 3.220964846498274 1.9999999999999996
    vertex 2.8391958508811816 3.2355042452480243 1.9999999999999996
  endloop
endfacet
facet normal 0.0 1.0 0.0
  outer loop
    vertex 2.8407409116193496 3.4794795076406357 1.9999999999999996
    vertex 3.10367944724809 3.4794795076406357 1.7499999999999996
    vertex 2.8407409116193496 3.4794795076406357 1.7499999999999996
  endloop
endfacet
facet normal 0.0 1.0 0.0
  outer loop
    vertex 3.10367944724809 3.4794795076406357 1.7499999999999996
    vertex 2.8407409116193496 3.4794795076406357 1.9999999999999996
    vertex 3.10367944724809 3.4794795076406357 1.9999999999999996
  endloop
endfacet
facet normal -0.3648034510874647 -0.9310845515175707 -1.3057408509064354e-16
  outer loop
    vertex 2.8391958508811816 3.2355042452480243 1.9999999999999996
    vertex 2.717664929736679 3.2831206506272053 -4.359171954541626e-16
    vertex 2.8391958508811816 3.2355042452480247 -4.359171954541626e-16
  endloop
endfacet
facet normal -0.3648034510874647 -0.9310845515175707 -1.3057408509064354e-16
  outer loop
    vertex 2.717664929736679 3.2831206506272053 -4.359171954541626e-16
    vertex 2.8391958508811816 3.2355042452480243 1.9999999999999996
    vertex 2.717664929736679 3.283120650627205 1.9999999999999996
  endloop
endfacet
facet normal 0.14961321972880828 -0.9887446002291893 -6.933012761988897e-17
  outer loop
    vertex 3.0979668066248647 3.240493290375257 1.9999999999999996
    vertex 2.9689097388788115 3.220964846498274 -4.359171954541626e-16
    vertex 3.0979668066248647 3.2404932903752575 -4.359171954541626e-16
  endloop
endfacet
facet normal 0.14961321972880828 -0.9887446002291893 -6.933012761988897e-17
  outer loop
    vertex 2.9689097388788115 3.220964846498274 -4.359171954541626e-16
    vertex 3.0979668066248647 3.240493290375257 1.9999999999999996
    vertex 2.9689097388788115 3.220964846498274 1.9999999999999996
  endloop
endfacet
facet normal 0.6239411491417263 -0.7814713317887624 0.0
  outer loop
    vertex 3.319574505496856 3.374199408067909 1.9999999999999996
    vertex 3.2175720282293367 3.2927587457010365 -4.359171954541626e-16
    vertex 3.319574505496856 3.374199408067909 -4.359171954541626e-16
  endloop
endfacet
facet normal 0.6239411491417263 -0.7814713317887624 0.0
  outer loop
    vertex 3.2175720282293367 3.2927587457010365 -4.359171954541626e-16
    vertex 3.319574505496856 3.374199408067909 1.9999999999999996
    vertex 3.2175720282293367 3.2927587457010365 1.9999999999999996
  endloop
endfacet
facet normal 0.8682431421244607 0.4961389383568312 -1.4321446692197878e-15
  outer loop
    vertex 2.709271643804979 3.7095507263157854 1.7499999999999996
    vertex 2.8407409116193496 3.4794795076406357 1.9999999999999996
    vertex 2.8407409116193496 3.4794795076406357 1.7499999999999996
  endloop
endfacet
facet normal 0.8682431421244607 0.4961389383568312 -1.4321446692197878e-15
  outer loop
    vertex 2.8407409116193496 3.4794795076406357 1.9999999999999996
    vertex 2.709271643804979 3.7095507263157854 1.7499999999999996
    vertex 2.70927164380498 3.7095507263157845 1.9999999999999996
  endloop
endfacet
facet normal 0.9310845515175707 -0.3648034510874647 5.115956095073942e-17
  outer loop
    vertex 3.4446393435478875 3.6007961520671334 -4.359171954541626e-16
    vertex 3.397022938168707 3.479265230922631 1.9999999999999996
    vertex 3.397022938168707 3.4792652309226306 -4.359171954541626e-16
  endloop
endfacet
facet normal 0.9310845515175707 -0.3648034510874647 5.115956095073942e-17
  outer loop
    vertex 3.397022938168707 3.479265230922631 1.9999999999999996
    vertex 3.4446393435478875 3.6007961520671334 -4.359171954541626e-16
    vertex 3.4446393435478875 3.600796152067134 1.9999999999999996
  endloop
endfacet
facet normal -0.8682431421244591 -0.49613893835683404 0.0
  outer loop
    vertex 3.10367944724809 3.9396219449909324 1.9999999999999996
    vertex 3.2351487150624605 3.7095507263157845 1.7499999999999996
    vertex 3.2351487150624605 3.7095507263157845 1.9999999999999996
  endloop
endfacet
facet normal -0.8682431421244591 -0.49613893835683404 0.0
  outer loop
    vertex 3.2351487150624605 3.7095507263157845 1.7499999999999996
    vertex 3.10367944724809 3.9396219449909324 1.9999999999999996
    vertex 3.10367944724809 3.9396219449909324 1.7499999999999996
  endloop
endfacet
facet normal -0.1496132197288022 0.9887446002291902 -2.773205104795561e-16
  outer loop
    vertex 2.8205764809850953 4.201250599606607 1.9999999999999996
    vertex 2.949633548731149 4.220779043483589 -4.359171954541626e-16
    vertex 2.8205764809850953 4.201250599606606 -4.359171954541626e-16
  endloop
endfacet
facet normal -0.1496132197288022 0.9887446002291902 -2.773205104795561e-16
  outer loop
    vertex 2.949633548731149 4.220779043483589 -4.359171954541626e-16
    vertex 2.8205764809850953 4.201250599606607 1.9999999999999996
    vertex 2.949633548731149 4.2207790434835895 1.9999999999999996
  endloop
endfacet
facet normal 0.8682431421244591 -0.49613893835683404 -3.194784262105661e-15
  outer loop
    vertex 2.709271643804979 3.7095507263157854 1.7499999999999996
    vertex 2.8407409116193496 3.9396219449909324 1.9999999999999996
    vertex 2.70927164380498 3.7095507263157845 1.9999999999999996
  endloop
endfacet
facet normal 0.8682431421244591 -0.49613893835683404 -3.194784262105661e-15
  outer loop
    vertex 2.8407409116193496 3.9396219449909324 1.9999999999999996
    vertex 2.709271643804979 3.7095507263157854 1.7499999999999996
    vertex 2.8407409116193496 3.9396219449909324 1.7499999999999996
  endloop
endfacet
facet normal -0.9310845515175707 0.3648034510874647 0.0
  outer loop
    vertex 2.5215203494412535 3.962478659059233 1.9999999999999996
    vertex 2.473903944062073 3.84094773791473 -4.359171954541626e-16
    vertex 2.473903944062073 3.84094773791473 1.9999999999999996
  endloop
endfacet
facet normal -0.9310845515175707 0.3648034510874647 0.0
  outer loop
    vertex 2.473903944062073 3.84094773791473 -4.359171954541626e-16
    vertex 2.5215203494412535 3.962478659059233 1.9999999999999996
    vertex 2.5215203494412535 3.962478659059233 -4.359171954541626e-16
  endloop
endfacet
facet normal -0.9887446002291898 -0.1496132197288055 0.0
  outer loop
    vertex 2.4593645453123223 3.7112338499171007 1.9999999999999996
    vertex 2.4788929891893052 3.582176782171047 -4.359171954541626e-16
    vertex 2.4788929891893052 3.582176782171047 1.9999999999999996
  endloop
endfacet
facet normal -0.9887446002291898 -0.1496132197288055 0.0
  outer loop
    vertex 2.4788929891893052 3.582176782171047 -4.359171954541626e-16
    vertex 2.4593645453123223 3.7112338499171007 1.9999999999999996
    vertex 2.4593645453123223 3.7112338499171007 -4.359171954541626e-16
  endloop
endfacet
endsolid Nut test 3
