solid Gears
facet normal 0.0 0.0 1.0
  outer loop
    vertex 1.8137390087356153 13.44079673274978 -1.7763568394002505e-15
    vertex 1.8067050963919358 13.505118037220987 -1.7763568394002505e-15
    vertex 1.8059880223729192 13.472494368921454 -1.7763568394002505e-15
  endloop
endfacet
facet normal 0.0 0.0 1.0
  outer loop
    vertex 1.8067050963919358 13.505118037220987 -1.7763568394002505e-15
    vertex 1.8137390087356153 13.44079673274978 -1.7763568394002505e-15
    vertex 1.8158413633832917 13.536444488566922 -1.7763568394002505e-15
  endloop
endfacet
facet normal 0.0 0.0 1.0
  outer loop
    vertex 1.8158413633832917 13.536444488566922 -1.7763568394002505e-15
    vertex 1.8137390087356153 13.44079673274978 -1.7763568394002505e-15
    vertex 1.8294298385685184 13.412185270228239 -1.7763568394002505e-15
  endloop
endfacet
facet normal 0.0 0.0 1.0
  outer loop
    vertex 1.8158413633832917 13.536444488566922 -1.7763568394002505e-15
    vertex 1.8294298385685184 13.412185270228239 -1.7763568394002505e-15
    vertex 1.832774201849921 13.564338877069446 -1.7763568394002505e-15
  endloop
endfacet
facet normal 0.0 0.0 1.0
  outer loop
    vertex 1.832774201849921 13.564338877069446 -1.7763568394002505e-15
    vertex 1.8294298385685184 13.412185270228239 -1.7763568394002505e-15
    vertex 1.851991207748838 13.388609805245 -1.7763568394002505e-15
  endloop
endfacet
facet normal 0.0 0.0 1.0
  outer loop
    vertex 1.832774201849921 13.564338877069446 -1.7763568394002505e-15
    vertex 1.851991207748838 13.388609805245 -1.7763568394002505e-15
    vertex 1.8563496668331596 13.586900246249765 -1.7763568394002505e-15
  endloop
endfacet
facet normal 0.0 0.0 1.0
  outer loop
    vertex 1.8563496668331596 13.586900246249765 -1.7763568394002505e-15
    vertex 1.851991207748838 13.388609805245 -1.7763568394002505e-15
    vertex 1.8798855962513605 13.371676966778372 -1.7763568394002505e-15
  endloop
endfacet
facet normal 0.0 0.0 1.0
  outer loop
    vertex 1.8563496668331596 13.586900246249765 -1.7763568394002505e-15
    vertex 1.8798855962513605 13.371676966778372 -1.7763568394002505e-15
    vertex 1.8849611293546995 13.602591076082668 -1.7763568394002505e-15
  endloop
endfacet
facet normal 0.0 0.0 1.0
  outer loop
    vertex 1.8849611293546995 13.602591076082668 -1.7763568394002505e-15
    vertex 1.8798855962513605 13.371676966778372 -1.7763568394002505e-15
    vertex 1.9112120475972962 13.362540699787015 -1.7763568394002505e-15
  endloop
endfacet
facet normal 0.0 0.0 1.0
  outer loop
    vertex 1.8849611293546995 13.602591076082668 -1.7763568394002505e-15
    vertex 1.9112120475972962 13.362540699787015 -1.7763568394002505e-15
    vertex 1.9166587655263752 13.610342062445364 -1.7763568394002505e-15
  endloop
endfacet
facet normal 0.0 0.0 1.0
  outer loop
    vertex 1.9166587655263752 13.610342062445364 -1.7763568394002505e-15
    vertex 1.9112120475972962 13.362540699787015 -1.7763568394002505e-15
    vertex 1.9438357158968285 13.361823625767999 -1.7763568394002505e-15
  endloop
endfacet
facet normal 0.0 0.0 1.0
  outer loop
    vertex 1.9166587655263752 13.610342062445364 -1.7763568394002505e-15
    vertex 1.9438357158968285 13.361823625767999 -1.7763568394002505e-15
    vertex 1.9492824338259074 13.609624988426347 -1.7763568394002505e-15
  endloop
endfacet
facet normal 0.0 0.0 1.0
  outer loop
    vertex 1.9492824338259074 13.609624988426347 -1.7763568394002505e-15
    vertex 1.9438357158968285 13.361823625767999 -1.7763568394002505e-15
    vertex 1.9755333520685041 13.369574612130695 -1.7763568394002505e-15
  endloop
endfacet
facet normal 0.0 0.0 1.0
  outer loop
    vertex 1.9492824338259074 13.609624988426347 -1.7763568394002505e-15
    vertex 1.9755333520685041 13.369574612130695 -1.7763568394002505e-15
    vertex 1.980608885171843 13.600488721434992 -1.7763568394002505e-15
  endloop
endfacet
facet normal 0.0 0.0 1.0
  outer loop
    vertex 1.980608885171843 13.600488721434992 -1.7763568394002505e-15
    vertex 1.9755333520685041 13.369574612130695 -1.7763568394002505e-15
    vertex 2.004144814590044 13.385265441963599 -1.7763568394002505e-15
  endloop
endfacet
facet normal 0.0 0.0 1.0
  outer loop
    vertex 1.980608885171843 13.600488721434992 -1.7763568394002505e-15
    vertex 2.004144814590044 13.385265441963599 -1.7763568394002505e-15
    vertex 2.0085032736743655 13.583555882968362 -1.7763568394002505e-15
  endloop
endfacet
facet normal 0.0 0.0 1.0
  outer loop
    vertex 2.0085032736743655 13.583555882968362 -1.7763568394002505e-15
    vertex 2.004144814590044 13.385265441963599 -1.7763568394002505e-15
    vertex 2.0277202795732827 13.407826811143918 -1.7763568394002505e-15
  endloop
endfacet
facet normal 0.0 0.0 1.0
  outer loop
    vertex 2.0085032736743655 13.583555882968362 -1.7763568394002505e-15
    vertex 2.0277202795732827 13.407826811143918 -1.7763568394002505e-15
    vertex 2.0310646428546852 13.559980417985123 -1.7763568394002505e-15
  endloop
endfacet
facet normal 0.0 0.0 1.0
  outer loop
    vertex 2.0310646428546852 13.559980417985123 -1.7763568394002505e-15
    vertex 2.0277202795732827 13.407826811143918 -1.7763568394002505e-15
    vertex 2.044653118039912 13.43572119964644 -1.7763568394002505e-15
  endloop
endfacet
facet normal 0.0 0.0 1.0
  outer loop
    vertex 2.0310646428546852 13.559980417985123 -1.7763568394002505e-15
    vertex 2.044653118039912 13.43572119964644 -1.7763568394002505e-15
    vertex 2.0467554726875883 13.531368955463583 -1.7763568394002505e-15
  endloop
endfacet
facet normal 0.0 0.0 1.0
  outer loop
    vertex 2.0467554726875883 13.531368955463583 -1.7763568394002505e-15
    vertex 2.044653118039912 13.43572119964644 -1.7763568394002505e-15
    vertex 2.053789385031268 13.467047650992376 -1.7763568394002505e-15
  endloop
endfacet
facet normal 0.0 0.0 1.0
  outer loop
    vertex 2.0467554726875883 13.531368955463583 -1.7763568394002505e-15
    vertex 2.053789385031268 13.467047650992376 -1.7763568394002505e-15
    vertex 2.0545064590502844 13.499671319291908 -1.7763568394002505e-15
  endloop
endfacet
facet normal -0.6913974520082271 0.7224746108733034 0.0
  outer loop
    vertex 1.832774201849921 13.564338877069446 -1.7763568394002505e-15
    vertex 1.8563496668331596 13.586900246249765 -2.0000000000000018
    vertex 1.832774201849921 13.564338877069446 -2.0000000000000018
  endloop
endfacet
facet normal -0.6913974520082271 0.7224746108733034 0.0
  outer loop
    vertex 1.8563496668331596 13.586900246249765 -2.0000000000000018
    vertex 1.832774201849921 13.564338877069446 -1.7763568394002505e-15
    vertex 1.8563496668331596 13.586900246249765 -1.7763568394002505e-15
  endloop
endfacet
facet normal -0.8768037137957602 -0.4808484662281485 -0.0
  outer loop
    vertex 1.8137390087356153 13.44079673274978 -1.7763568394002505e-15
    vertex 1.8294298385685184 13.412185270228239 -2.0000000000000018
    vertex 1.8294298385685184 13.412185270228239 -1.7763568394002505e-15
  endloop
endfacet
facet normal -0.8768037137957602 -0.4808484662281485 -0.0
  outer loop
    vertex 1.8294298385685184 13.412185270228239 -2.0000000000000018
    vertex 1.8137390087356153 13.44079673274978 -1.7763568394002505e-15
    vertex 1.8137390087356153 13.44079673274978 -2.0000000000000018
  endloop
endfacet
facet normal -0.5189100571655996 -0.8548288440222371 -0.0
  outer loop
    vertex 1.8798855962513605 13.371676966778372 -1.7763568394002505e-15
    vertex 1.851991207748838 13.388609805245 -2.0000000000000018
    vertex 1.8798855962513605 13.371676966778372 -2.0000000000000018
  endloop
endfacet
facet normal -0.5189100571655996 -0.8548288440222371 -0.0
  outer loop
    vertex 1.851991207748838 13.388609805245 -2.0000000000000018
    vertex 1.8798855962513605 13.371676966778372 -1.7763568394002505e-15
    vertex 1.851991207748838 13.388609805245 -1.7763568394002505e-15
  endloop
endfacet
facet normal 0.9713800926096772 0.2375304521142823 0.0
  outer loop
    vertex 2.0467554726875883 13.531368955463583 -2.0000000000000018
    vertex 2.0545064590502844 13.499671319291908 -1.7763568394002505e-15
    vertex 2.0545064590502844 13.499671319291908 -2.0000000000000018
  endloop
endfacet
facet normal 0.9713800926096772 0.2375304521142823 0.0
  outer loop
    vertex 2.0545064590502844 13.499671319291908 -1.7763568394002505e-15
    vertex 2.0467554726875883 13.531368955463583 -2.0000000000000018
    vertex 2.0467554726875883 13.531368955463583 -1.7763568394002505e-15
  endloop
endfacet
facet normal 0.23753045211429033 -0.9713800926096751 0.0
  outer loop
    vertex 1.9755333520685041 13.369574612130695 -1.7763568394002505e-15
    vertex 1.9438357158968285 13.361823625767999 -2.0000000000000018
    vertex 1.9755333520685041 13.369574612130695 -2.0000000000000018
  endloop
endfacet
facet normal 0.23753045211429033 -0.9713800926096751 0.0
  outer loop
    vertex 1.9438357158968285 13.361823625767999 -2.0000000000000018
    vertex 1.9755333520685041 13.369574612130695 -1.7763568394002505e-15
    vertex 1.9438357158968285 13.361823625767999 -1.7763568394002505e-15
  endloop
endfacet
facet normal 0.0 0.0 -1.0
  outer loop
    vertex 1.8067050963919358 13.505118037220987 -2.0000000000000018
    vertex 1.8137390087356153 13.44079673274978 -2.0000000000000018
    vertex 1.8059880223729192 13.472494368921454 -2.0000000000000018
  endloop
endfacet
facet normal 0.0 0.0 -1.0
  outer loop
    vertex 1.8137390087356153 13.44079673274978 -2.0000000000000018
    vertex 1.8067050963919358 13.505118037220987 -2.0000000000000018
    vertex 1.8158413633832917 13.536444488566922 -2.0000000000000018
  endloop
endfacet
facet normal 0.0 0.0 -1.0
  outer loop
    vertex 1.8137390087356153 13.44079673274978 -2.0000000000000018
    vertex 1.8158413633832917 13.536444488566922 -2.0000000000000018
    vertex 1.8294298385685184 13.412185270228239 -2.0000000000000018
  endloop
endfacet
facet normal 0.0 0.0 -1.0
  outer loop
    vertex 1.8294298385685184 13.412185270228239 -2.0000000000000018
    vertex 1.8158413633832917 13.536444488566922 -2.0000000000000018
    vertex 1.832774201849921 13.564338877069446 -2.0000000000000018
  endloop
endfacet
facet normal 0.0 0.0 -1.0
  outer loop
    vertex 1.8294298385685184 13.412185270228239 -2.0000000000000018
    vertex 1.832774201849921 13.564338877069446 -2.0000000000000018
    vertex 1.851991207748838 13.388609805245 -2.0000000000000018
  endloop
endfacet
facet normal 0.0 0.0 -1.0
  outer loop
    vertex 1.851991207748838 13.388609805245 -2.0000000000000018
    vertex 1.832774201849921 13.564338877069446 -2.0000000000000018
    vertex 1.8563496668331596 13.586900246249765 -2.0000000000000018
  endloop
endfacet
facet normal 0.0 0.0 -1.0
  outer loop
    vertex 1.851991207748838 13.388609805245 -2.0000000000000018
    vertex 1.8563496668331596 13.586900246249765 -2.0000000000000018
    vertex 1.8798855962513605 13.371676966778372 -2.0000000000000018
  endloop
endfacet
facet normal 0.0 0.0 -1.0
  outer loop
    vertex 1.8798855962513605 13.371676966778372 -2.0000000000000018
    vertex 1.8563496668331596 13.586900246249765 -2.0000000000000018
    vertex 1.8849611293546995 13.602591076082668 -2.0000000000000018
  endloop
endfacet
facet normal 0.0 0.0 -1.0
  outer loop
    vertex 1.8798855962513605 13.371676966778372 -2.0000000000000018
    vertex 1.8849611293546995 13.602591076082668 -2.0000000000000018
    vertex 1.9112120475972962 13.362540699787015 -2.0000000000000018
  endloop
endfacet
facet normal 0.0 0.0 -1.0
  outer loop
    vertex 1.9112120475972962 13.362540699787015 -2.0000000000000018
    vertex 1.8849611293546995 13.602591076082668 -2.0000000000000018
    vertex 1.9166587655263752 13.610342062445364 -2.0000000000000018
  endloop
endfacet
facet normal 0.0 0.0 -1.0
  outer loop
    vertex 1.9112120475972962 13.362540699787015 -2.0000000000000018
    vertex 1.9166587655263752 13.610342062445364 -2.0000000000000018
    vertex 1.9438357158968285 13.361823625767999 -2.0000000000000018
  endloop
endfacet
facet normal 0.0 0.0 -1.0
  outer loop
    vertex 1.9438357158968285 13.361823625767999 -2.0000000000000018
    vertex 1.9166587655263752 13.610342062445364 -2.0000000000000018
    vertex 1.9492824338259074 13.609624988426347 -2.0000000000000018
  endloop
endfacet
facet normal 0.0 0.0 -1.0
  outer loop
    vertex 1.9438357158968285 13.361823625767999 -2.0000000000000018
    vertex 1.9492824338259074 13.609624988426347 -2.0000000000000018
    vertex 1.9755333520685041 13.369574612130695 -2.0000000000000018
  endloop
endfacet
facet normal 0.0 0.0 -1.0
  outer loop
    vertex 1.9755333520685041 13.369574612130695 -2.0000000000000018
    vertex 1.9492824338259074 13.609624988426347 -2.0000000000000018
    vertex 1.980608885171843 13.600488721434992 -2.0000000000000018
  endloop
endfacet
facet normal 0.0 0.0 -1.0
  outer loop
    vertex 1.9755333520685041 13.369574612130695 -2.0000000000000018
    vertex 1.980608885171843 13.600488721434992 -2.0000000000000018
    vertex 2.004144814590044 13.385265441963599 -2.0000000000000018
  endloop
endfacet
facet normal 0.0 0.0 -1.0
  outer loop
    vertex 2.004144814590044 13.385265441963599 -2.0000000000000018
    vertex 1.980608885171843 13.600488721434992 -2.0000000000000018
    vertex 2.0085032736743655 13.583555882968362 -2.0000000000000018
  endloop
endfacet
facet normal 0.0 0.0 -1.0
  outer loop
    vertex 2.004144814590044 13.385265441963599 -2.0000000000000018
    vertex 2.0085032736743655 13.583555882968362 -2.0000000000000018
    vertex 2.0277202795732827 13.407826811143918 -2.0000000000000018
  endloop
endfacet
facet normal 0.0 0.0 -1.0
  outer loop
    vertex 2.0277202795732827 13.407826811143918 -2.0000000000000018
    vertex 2.0085032736743655 13.583555882968362 -2.0000000000000018
    vertex 2.0310646428546852 13.559980417985123 -2.0000000000000018
  endloop
endfacet
facet normal 0.0 0.0 -1.0
  outer loop
    vertex 2.0277202795732827 13.407826811143918 -2.0000000000000018
    vertex 2.0310646428546852 13.559980417985123 -2.0000000000000018
    vertex 2.044653118039912 13.43572119964644 -2.0000000000000018
  endloop
endfacet
facet normal 0.0 0.0 -1.0
  outer loop
    vertex 2.044653118039912 13.43572119964644 -2.0000000000000018
    vertex 2.0310646428546852 13.559980417985123 -2.0000000000000018
    vertex 2.0467554726875883 13.531368955463583 -2.0000000000000018
  endloop
endfacet
facet normal 0.0 0.0 -1.0
  outer loop
    vertex 2.044653118039912 13.43572119964644 -2.0000000000000018
    vertex 2.0467554726875883 13.531368955463583 -2.0000000000000018
    vertex 2.053789385031268 13.467047650992376 -2.0000000000000018
  endloop
endfacet
facet normal 0.0 0.0 -1.0
  outer loop
    vertex 2.053789385031268 13.467047650992376 -2.0000000000000018
    vertex 2.0467554726875883 13.531368955463583 -2.0000000000000018
    vertex 2.0545064590502844 13.499671319291908 -2.0000000000000018
  endloop
endfacet
facet normal 0.8768037137957607 0.48084846622814736 0.0
  outer loop
    vertex 2.0310646428546852 13.559980417985123 -2.0000000000000018
    vertex 2.0467554726875883 13.531368955463583 -1.7763568394002505e-15
    vertex 2.0467554726875883 13.531368955463583 -2.0000000000000018
  endloop
endfacet
facet normal 0.8768037137957607 0.48084846622814736 0.0
  outer loop
    vertex 2.0467554726875883 13.531368955463583 -1.7763568394002505e-15
    vertex 2.0310646428546852 13.559980417985123 -2.0000000000000018
    vertex 2.0310646428546852 13.559980417985123 -1.7763568394002505e-15
  endloop
endfacet
facet normal -0.23753045211429114 0.9713800926096748 0.0
  outer loop
    vertex 1.8849611293546995 13.602591076082668 -1.7763568394002505e-15
    vertex 1.9166587655263752 13.610342062445364 -2.0000000000000018
    vertex 1.8849611293546995 13.602591076082668 -2.0000000000000018
  endloop
endfacet
facet normal -0.23753045211429114 0.9713800926096748 0.0
  outer loop
    vertex 1.9166587655263752 13.610342062445364 -2.0000000000000018
    vertex 1.8849611293546995 13.602591076082668 -1.7763568394002505e-15
    vertex 1.9166587655263752 13.610342062445364 -1.7763568394002505e-15
  endloop
endfacet
facet normal -0.9997585233937433 0.02197486977349794 0.0
  outer loop
    vertex 1.8067050963919358 13.505118037220987 -1.7763568394002505e-15
    vertex 1.8059880223729192 13.472494368921454 -2.0000000000000018
    vertex 1.8059880223729192 13.472494368921454 -1.7763568394002505e-15
  endloop
endfacet
facet normal -0.9997585233937433 0.02197486977349794 0.0
  outer loop
    vertex 1.8059880223729192 13.472494368921454 -2.0000000000000018
    vertex 1.8067050963919358 13.505118037220987 -1.7763568394002505e-15
    vertex 1.8067050963919358 13.505118037220987 -2.0000000000000018
  endloop
endfacet
facet normal 0.48084846622815197 -0.8768037137957583 0.0
  outer loop
    vertex 2.004144814590044 13.385265441963599 -1.7763568394002505e-15
    vertex 1.9755333520685041 13.369574612130695 -2.0000000000000018
    vertex 2.004144814590044 13.385265441963599 -2.0000000000000018
  endloop
endfacet
facet normal 0.48084846622815197 -0.8768037137957583 0.0
  outer loop
    vertex 1.9755333520685041 13.369574612130695 -2.0000000000000018
    vertex 2.004144814590044 13.385265441963599 -1.7763568394002505e-15
    vertex 1.9755333520685041 13.369574612130695 -1.7763568394002505e-15
  endloop
endfacet
facet normal -0.2799826406014567 -0.9600050629876051 -0.0
  outer loop
    vertex 1.9112120475972962 13.362540699787015 -1.7763568394002505e-15
    vertex 1.8798855962513605 13.371676966778372 -2.0000000000000018
    vertex 1.9112120475972962 13.362540699787015 -2.0000000000000018
  endloop
endfacet
facet normal -0.2799826406014567 -0.9600050629876051 -0.0
  outer loop
    vertex 1.8798855962513605 13.371676966778372 -2.0000000000000018
    vertex 1.9112120475972962 13.362540699787015 -1.7763568394002505e-15
    vertex 1.8798855962513605 13.371676966778372 -1.7763568394002505e-15
  endloop
endfacet
facet normal -0.8548288440222317 0.5189100571656088 0.0
  outer loop
    vertex 1.832774201849921 13.564338877069446 -1.7763568394002505e-15
    vertex 1.8158413633832917 13.536444488566922 -2.0000000000000018
    vertex 1.8158413633832917 13.536444488566922 -1.7763568394002505e-15
  endloop
endfacet
facet normal -0.8548288440222317 0.5189100571656088 0.0
  outer loop
    vertex 1.8158413633832917 13.536444488566922 -2.0000000000000018
    vertex 1.832774201849921 13.564338877069446 -1.7763568394002505e-15
    vertex 1.832774201849921 13.564338877069446 -2.0000000000000018
  endloop
endfacet
facet normal 0.5189100571655996 0.8548288440222371 0.0
  outer loop
    vertex 1.980608885171843 13.600488721434992 -1.7763568394002505e-15
    vertex 2.0085032736743655 13.583555882968362 -2.0000000000000018
    vertex 1.980608885171843 13.600488721434992 -2.0000000000000018
  endloop
endfacet
facet normal 0.5189100571655996 0.8548288440222371 0.0
  outer loop
    vertex 2.0085032736743655 13.583555882968362 -2.0000000000000018
    vertex 1.980608885171843 13.600488721434992 -1.7763568394002505e-15
    vertex 2.0085032736743655 13.583555882968362 -1.7763568394002505e-15
  endloop
endfacet
facet normal 0.2799826406014567 0.9600050629876051 0.0
  outer loop
    vertex 1.9492824338259074 13.609624988426347 -1.7763568394002505e-15
    vertex 1.980608885171843 13.600488721434992 -2.0000000000000018
    vertex 1.9492824338259074 13.609624988426347 -2.0000000000000018
  endloop
endfacet
facet normal 0.2799826406014567 0.9600050629876051 0.0
  outer loop
    vertex 1.980608885171843 13.600488721434992 -2.0000000000000018
    vertex 1.9492824338259074 13.609624988426347 -1.7763568394002505e-15
    vertex 1.980608885171843 13.600488721434992 -1.7763568394002505e-15
  endloop
endfacet
facet normal -0.7224746108733126 -0.6913974520082178 -0.0
  outer loop
    vertex 1.8294298385685184 13.412185270228239 -1.7763568394002505e-15
    vertex 1.851991207748838 13.388609805245 -2.0000000000000018
    vertex 1.851991207748838 13.388609805245 -1.7763568394002505e-15
  endloop
endfacet
facet normal -0.7224746108733126 -0.6913974520082178 -0.0
  outer loop
    vertex 1.851991207748838 13.388609805245 -2.0000000000000018
    vertex 1.8294298385685184 13.412185270228239 -1.7763568394002505e-15
    vertex 1.8294298385685184 13.412185270228239 -2.0000000000000018
  endloop
endfacet
facet normal -0.48084846622815064 0.876803713795759 0.0
  outer loop
    vertex 1.8563496668331596 13.586900246249765 -1.7763568394002505e-15
    vertex 1.8849611293546995 13.602591076082668 -2.0000000000000018
    vertex 1.8563496668331596 13.586900246249765 -2.0000000000000018
  endloop
endfacet
facet normal -0.48084846622815064 0.876803713795759 0.0
  outer loop
    vertex 1.8849611293546995 13.602591076082668 -2.0000000000000018
    vertex 1.8563496668331596 13.586900246249765 -1.7763568394002505e-15
    vertex 1.8849611293546995 13.602591076082668 -1.7763568394002505e-15
  endloop
endfacet
facet normal -0.9713800926096772 -0.2375304521142823 -0.0
  outer loop
    vertex 1.8059880223729192 13.472494368921454 -1.7763568394002505e-15
    vertex 1.8137390087356153 13.44079673274978 -2.0000000000000018
    vertex 1.8137390087356153 13.44079673274978 -1.7763568394002505e-15
  endloop
endfacet
facet normal -0.9713800926096772 -0.2375304521142823 -0.0
  outer loop
    vertex 1.8137390087356153 13.44079673274978 -2.0000000000000018
    vertex 1.8059880223729192 13.472494368921454 -1.7763568394002505e-15
    vertex 1.8059880223729192 13.472494368921454 -2.0000000000000018
  endloop
endfacet
facet normal -0.960005062987604 0.27998264060146005 0.0
  outer loop
    vertex 1.8158413633832917 13.536444488566922 -1.7763568394002505e-15
    vertex 1.8067050963919358 13.505118037220987 -2.0000000000000018
    vertex 1.8067050963919358 13.505118037220987 -1.7763568394002505e-15
  endloop
endfacet
facet normal -0.960005062987604 0.27998264060146005 0.0
  outer loop
    vertex 1.8067050963919358 13.505118037220987 -2.0000000000000018
    vertex 1.8158413633832917 13.536444488566922 -1.7763568394002505e-15
    vertex 1.8158413633832917 13.536444488566922 -2.0000000000000018
  endloop
endfacet
facet normal 0.8548288440222321 -0.518910057165608 0.0
  outer loop
    vertex 2.044653118039912 13.43572119964644 -2.0000000000000018
    vertex 2.0277202795732827 13.407826811143918 -1.7763568394002505e-15
    vertex 2.0277202795732827 13.407826811143918 -2.0000000000000018
  endloop
endfacet
facet normal 0.8548288440222321 -0.518910057165608 0.0
  outer loop
    vertex 2.0277202795732827 13.407826811143918 -1.7763568394002505e-15
    vertex 2.044653118039912 13.43572119964644 -2.0000000000000018
    vertex 2.044653118039912 13.43572119964644 -1.7763568394002505e-15
  endloop
endfacet
facet normal 0.6913974520082262 -0.7224746108733044 0.0
  outer loop
    vertex 2.0277202795732827 13.407826811143918 -1.7763568394002505e-15
    vertex 2.004144814590044 13.385265441963599 -2.0000000000000018
    vertex 2.0277202795732827 13.407826811143918 -2.0000000000000018
  endloop
endfacet
facet normal 0.6913974520082262 -0.7224746108733044 0.0
  outer loop
    vertex 2.004144814590044 13.385265441963599 -2.0000000000000018
    vertex 2.0277202795732827 13.407826811143918 -1.7763568394002505e-15
    vertex 2.004144814590044 13.385265441963599 -1.7763568394002505e-15
  endloop
endfacet
facet normal 0.7224746108733112 0.691397452008219 0.0
  outer loop
    vertex 2.0085032736743655 13.583555882968362 -2.0000000000000018
    vertex 2.0310646428546852 13.559980417985123 -1.7763568394002505e-15
    vertex 2.0310646428546852 13.559980417985123 -2.0000000000000018
  endloop
endfacet
facet normal 0.7224746108733112 0.691397452008219 0.0
  outer loop
    vertex 2.0310646428546852 13.559980417985123 -1.7763568394002505e-15
    vertex 2.0085032736743655 13.583555882968362 -2.0000000000000018
    vertex 2.0085032736743655 13.583555882968362 -1.7763568394002505e-15
  endloop
endfacet
facet normal 0.9600050629876042 -0.27998264060145983 0.0
  outer loop
    vertex 2.053789385031268 13.467047650992376 -2.0000000000000018
    vertex 2.044653118039912 13.43572119964644 -1.7763568394002505e-15
    vertex 2.044653118039912 13.43572119964644 -2.0000000000000018
  endloop
endfacet
facet normal 0.9600050629876042 -0.27998264060145983 0.0
  outer loop
    vertex 2.044653118039912 13.43572119964644 -1.7763568394002505e-15
    vertex 2.053789385031268 13.467047650992376 -2.0000000000000018
    vertex 2.053789385031268 13.467047650992376 -1.7763568394002505e-15
  endloop
endfacet
facet normal -0.02197486977351803 -0.9997585233937428 -0.0
  outer loop
    vertex 1.9438357158968285 13.361823625767999 -1.7763568394002505e-15
    vertex 1.9112120475972962 13.362540699787015 -2.0000000000000018
    vertex 1.9438357158968285 13.361823625767999 -2.0000000000000018
  endloop
endfacet
facet normal -0.02197486977351803 -0.9997585233937428 -0.0
  outer loop
    vertex 1.9112120475972962 13.362540699787015 -2.0000000000000018
    vertex 1.9438357158968285 13.361823625767999 -1.7763568394002505e-15
    vertex 1.9112120475972962 13.362540699787015 -1.7763568394002505e-15
  endloop
endfacet
facet normal 0.02197486977351888 0.9997585233937428 0.0
  outer loop
    vertex 1.9166587655263752 13.610342062445364 -1.7763568394002505e-15
    vertex 1.9492824338259074 13.609624988426347 -2.0000000000000018
    vertex 1.9166587655263752 13.610342062445364 -2.0000000000000018
  endloop
endfacet
facet normal 0.02197486977351888 0.9997585233937428 0.0
  outer loop
    vertex 1.9492824338259074 13.609624988426347 -2.0000000000000018
    vertex 1.9166587655263752 13.610342062445364 -1.7763568394002505e-15
    vertex 1.9492824338259074 13.609624988426347 -1.7763568394002505e-15
  endloop
endfacet
facet normal 0.9997585233937433 -0.021974869773497996 0.0
  outer loop
    vertex 2.0545064590502844 13.499671319291908 -2.0000000000000018
    vertex 2.053789385031268 13.467047650992376 -1.7763568394002505e-15
    vertex 2.053789385031268 13.467047650992376 -2.0000000000000018
  endloop
endfacet
facet normal 0.9997585233937433 -0.021974869773497996 0.0
  outer loop
    vertex 2.053789385031268 13.467047650992376 -1.7763568394002505e-15
    vertex 2.0545064590502844 13.499671319291908 -2.0000000000000018
    vertex 2.0545064590502844 13.499671319291908 -1.7763568394002505e-15
  endloop
endfacet
facet normal 0.0 0.0 1.0
  outer loop
    vertex 3.126239008735614 13.44079673274978 -1.7763568394002505e-15
    vertex 3.1192050963919344 13.505118037220987 -1.7763568394002505e-15
    vertex 3.118488022372918 13.472494368921454 -1.7763568394002505e-15
  endloop
endfacet
facet normal 0.0 0.0 1.0
  outer loop
    vertex 3.1192050963919344 13.505118037220987 -1.7763568394002505e-15
    vertex 3.126239008735614 13.44079673274978 -1.7763568394002505e-15
    vertex 3.1283413633832904 13.536444488566922 -1.7763568394002505e-15
  endloop
endfacet
facet normal 0.0 0.0 1.0
  outer loop
    vertex 3.1283413633832904 13.536444488566922 -1.7763568394002505e-15
    vertex 3.126239008735614 13.44079673274978 -1.7763568394002505e-15
    vertex 3.141929838568517 13.412185270228239 -1.7763568394002505e-15
  endloop
endfacet
facet normal 0.0 0.0 1.0
  outer loop
    vertex 3.1283413633832904 13.536444488566922 -1.7763568394002505e-15
    vertex 3.141929838568517 13.412185270228239 -1.7763568394002505e-15
    vertex 3.1452742018499196 13.564338877069446 -1.7763568394002505e-15
  endloop
endfacet
facet normal 0.0 0.0 1.0
  outer loop
    vertex 3.1452742018499196 13.564338877069446 -1.7763568394002505e-15
    vertex 3.141929838568517 13.412185270228239 -1.7763568394002505e-15
    vertex 3.1644912077488367 13.388609805245 -1.7763568394002505e-15
  endloop
endfacet
facet normal 0.0 0.0 1.0
  outer loop
    vertex 3.1452742018499196 13.564338877069446 -1.7763568394002505e-15
    vertex 3.1644912077488367 13.388609805245 -1.7763568394002505e-15
    vertex 3.1688496668331583 13.586900246249765 -1.7763568394002505e-15
  endloop
endfacet
facet normal 0.0 0.0 1.0
  outer loop
    vertex 3.1688496668331583 13.586900246249765 -1.7763568394002505e-15
    vertex 3.1644912077488367 13.388609805245 -1.7763568394002505e-15
    vertex 3.192385596251359 13.371676966778372 -1.7763568394002505e-15
  endloop
endfacet
facet normal 0.0 0.0 1.0
  outer loop
    vertex 3.1688496668331583 13.586900246249765 -1.7763568394002505e-15
    vertex 3.192385596251359 13.371676966778372 -1.7763568394002505e-15
    vertex 3.197461129354698 13.602591076082668 -1.7763568394002505e-15
  endloop
endfacet
facet normal 0.0 0.0 1.0
  outer loop
    vertex 3.197461129354698 13.602591076082668 -1.7763568394002505e-15
    vertex 3.192385596251359 13.371676966778372 -1.7763568394002505e-15
    vertex 3.223712047597295 13.362540699787015 -1.7763568394002505e-15
  endloop
endfacet
facet normal 0.0 0.0 1.0
  outer loop
    vertex 3.197461129354698 13.602591076082668 -1.7763568394002505e-15
    vertex 3.223712047597295 13.362540699787015 -1.7763568394002505e-15
    vertex 3.229158765526374 13.610342062445364 -1.7763568394002505e-15
  endloop
endfacet
facet normal 0.0 0.0 1.0
  outer loop
    vertex 3.229158765526374 13.610342062445364 -1.7763568394002505e-15
    vertex 3.223712047597295 13.362540699787015 -1.7763568394002505e-15
    vertex 3.256335715896827 13.361823625767999 -1.7763568394002505e-15
  endloop
endfacet
facet normal 0.0 0.0 1.0
  outer loop
    vertex 3.229158765526374 13.610342062445364 -1.7763568394002505e-15
    vertex 3.256335715896827 13.361823625767999 -1.7763568394002505e-15
    vertex 3.261782433825906 13.609624988426347 -1.7763568394002505e-15
  endloop
endfacet
facet normal 0.0 0.0 1.0
  outer loop
    vertex 3.261782433825906 13.609624988426347 -1.7763568394002505e-15
    vertex 3.256335715896827 13.361823625767999 -1.7763568394002505e-15
    vertex 3.288033352068503 13.369574612130695 -1.7763568394002505e-15
  endloop
endfacet
facet normal 0.0 0.0 1.0
  outer loop
    vertex 3.261782433825906 13.609624988426347 -1.7763568394002505e-15
    vertex 3.288033352068503 13.369574612130695 -1.7763568394002505e-15
    vertex 3.2931088851718417 13.600488721434992 -1.7763568394002505e-15
  endloop
endfacet
facet normal 0.0 0.0 1.0
  outer loop
    vertex 3.2931088851718417 13.600488721434992 -1.7763568394002505e-15
    vertex 3.288033352068503 13.369574612130695 -1.7763568394002505e-15
    vertex 3.3166448145900427 13.385265441963599 -1.7763568394002505e-15
  endloop
endfacet
facet normal 0.0 0.0 1.0
  outer loop
    vertex 3.2931088851718417 13.600488721434992 -1.7763568394002505e-15
    vertex 3.3166448145900427 13.385265441963599 -1.7763568394002505e-15
    vertex 3.321003273674364 13.583555882968362 -1.7763568394002505e-15
  endloop
endfacet
facet normal 0.0 0.0 1.0
  outer loop
    vertex 3.321003273674364 13.583555882968362 -1.7763568394002505e-15
    vertex 3.3166448145900427 13.385265441963599 -1.7763568394002505e-15
    vertex 3.3402202795732814 13.407826811143918 -1.7763568394002505e-15
  endloop
endfacet
facet normal 0.0 0.0 1.0
  outer loop
    vertex 3.321003273674364 13.583555882968362 -1.7763568394002505e-15
    vertex 3.3402202795732814 13.407826811143918 -1.7763568394002505e-15
    vertex 3.343564642854684 13.559980417985123 -1.7763568394002505e-15
  endloop
endfacet
facet normal 0.0 0.0 1.0
  outer loop
    vertex 3.343564642854684 13.559980417985123 -1.7763568394002505e-15
    vertex 3.3402202795732814 13.407826811143918 -1.7763568394002505e-15
    vertex 3.3571531180399106 13.43572119964644 -1.7763568394002505e-15
  endloop
endfacet
facet normal 0.0 0.0 1.0
  outer loop
    vertex 3.343564642854684 13.559980417985123 -1.7763568394002505e-15
    vertex 3.3571531180399106 13.43572119964644 -1.7763568394002505e-15
    vertex 3.359255472687587 13.531368955463583 -1.7763568394002505e-15
  endloop
endfacet
facet normal 0.0 0.0 1.0
  outer loop
    vertex 3.359255472687587 13.531368955463583 -1.7763568394002505e-15
    vertex 3.3571531180399106 13.43572119964644 -1.7763568394002505e-15
    vertex 3.3662893850312665 13.467047650992376 -1.7763568394002505e-15
  endloop
endfacet
facet normal 0.0 0.0 1.0
  outer loop
    vertex 3.359255472687587 13.531368955463583 -1.7763568394002505e-15
    vertex 3.3662893850312665 13.467047650992376 -1.7763568394002505e-15
    vertex 3.367006459050283 13.499671319291908 -1.7763568394002505e-15
  endloop
endfacet
facet normal -0.6913974520082271 0.7224746108733034 0.0
  outer loop
    vertex 3.1452742018499196 13.564338877069446 -1.7763568394002505e-15
    vertex 3.1688496668331583 13.586900246249765 -2.0000000000000018
    vertex 3.1452742018499196 13.564338877069446 -2.0000000000000018
  endloop
endfacet
facet normal -0.6913974520082271 0.7224746108733034 0.0
  outer loop
    vertex 3.1688496668331583 13.586900246249765 -2.0000000000000018
    vertex 3.1452742018499196 13.564338877069446 -1.7763568394002505e-15
    vertex 3.1688496668331583 13.586900246249765 -1.7763568394002505e-15
  endloop
endfacet
facet normal -0.8768037137957602 -0.4808484662281485 -0.0
  outer loop
    vertex 3.126239008735614 13.44079673274978 -1.7763568394002505e-15
    vertex 3.141929838568517 13.412185270228239 -2.0000000000000018
    vertex 3.141929838568517 13.412185270228239 -1.7763568394002505e-15
  endloop
endfacet
facet normal -0.8768037137957602 -0.4808484662281485 -0.0
  outer loop
    vertex 3.141929838568517 13.412185270228239 -2.0000000000000018
    vertex 3.126239008735614 13.44079673274978 -1.7763568394002505e-15
    vertex 3.126239008735614 13.44079673274978 -2.0000000000000018
  endloop
endfacet
facet normal -0.5189100571655996 -0.8548288440222371 -0.0
  outer loop
    vertex 3.192385596251359 13.371676966778372 -1.7763568394002505e-15
    vertex 3.1644912077488367 13.388609805245 -2.0000000000000018
    vertex 3.192385596251359 13.371676966778372 -2.0000000000000018
  endloop
endfacet
facet normal -0.5189100571655996 -0.8548288440222371 -0.0
  outer loop
    vertex 3.1644912077488367 13.388609805245 -2.0000000000000018
    vertex 3.192385596251359 13.371676966778372 -1.7763568394002505e-15
    vertex 3.1644912077488367 13.388609805245 -1.7763568394002505e-15
  endloop
endfacet
facet normal 0.9713800926096772 0.2375304521142823 0.0
  outer loop
    vertex 3.359255472687587 13.531368955463583 -2.0000000000000018
    vertex 3.367006459050283 13.499671319291908 -1.7763568394002505e-15
    vertex 3.367006459050283 13.499671319291908 -2.0000000000000018
  endloop
endfacet
facet normal 0.9713800926096772 0.2375304521142823 0.0
  outer loop
    vertex 3.367006459050283 13.499671319291908 -1.7763568394002505e-15
    vertex 3.359255472687587 13.531368955463583 -2.0000000000000018
    vertex 3.359255472687587 13.531368955463583 -1.7763568394002505e-15
  endloop
endfacet
facet normal 0.23753045211429033 -0.9713800926096751 0.0
  outer loop
    vertex 3.288033352068503 13.369574612130695 -1.7763568394002505e-15
    vertex 3.256335715896827 13.361823625767999 -2.0000000000000018
    vertex 3.288033352068503 13.369574612130695 -2.0000000000000018
  endloop
endfacet
facet normal 0.23753045211429033 -0.9713800926096751 0.0
  outer loop
    vertex 3.256335715896827 13.361823625767999 -2.0000000000000018
    vertex 3.288033352068503 13.369574612130695 -1.7763568394002505e-15
    vertex 3.256335715896827 13.361823625767999 -1.7763568394002505e-15
  endloop
endfacet
facet normal 0.0 0.0 -1.0
  outer loop
    vertex 3.1192050963919344 13.505118037220987 -2.0000000000000018
    vertex 3.126239008735614 13.44079673274978 -2.0000000000000018
    vertex 3.118488022372918 13.472494368921454 -2.0000000000000018
  endloop
endfacet
facet normal 0.0 0.0 -1.0
  outer loop
    vertex 3.126239008735614 13.44079673274978 -2.0000000000000018
    vertex 3.1192050963919344 13.505118037220987 -2.0000000000000018
    vertex 3.1283413633832904 13.536444488566922 -2.0000000000000018
  endloop
endfacet
facet normal 0.0 0.0 -1.0
  outer loop
    vertex 3.126239008735614 13.44079673274978 -2.0000000000000018
    vertex 3.1283413633832904 13.536444488566922 -2.0000000000000018
    vertex 3.141929838568517 13.412185270228239 -2.0000000000000018
  endloop
endfacet
facet normal 0.0 0.0 -1.0
  outer loop
    vertex 3.141929838568517 13.412185270228239 -2.0000000000000018
    vertex 3.1283413633832904 13.536444488566922 -2.0000000000000018
    vertex 3.1452742018499196 13.564338877069446 -2.0000000000000018
  endloop
endfacet
facet normal 0.0 0.0 -1.0
  outer loop
    vertex 3.141929838568517 13.412185270228239 -2.0000000000000018
    vertex 3.1452742018499196 13.564338877069446 -2.0000000000000018
    vertex 3.1644912077488367 13.388609805245 -2.0000000000000018
  endloop
endfacet
facet normal 0.0 0.0 -1.0
  outer loop
    vertex 3.1644912077488367 13.388609805245 -2.0000000000000018
    vertex 3.1452742018499196 13.564338877069446 -2.0000000000000018
    vertex 3.1688496668331583 13.586900246249765 -2.0000000000000018
  endloop
endfacet
facet normal 0.0 0.0 -1.0
  outer loop
    vertex 3.1644912077488367 13.388609805245 -2.0000000000000018
    vertex 3.1688496668331583 13.586900246249765 -2.0000000000000018
    vertex 3.192385596251359 13.371676966778372 -2.0000000000000018
  endloop
endfacet
facet normal 0.0 0.0 -1.0
  outer loop
    vertex 3.192385596251359 13.371676966778372 -2.0000000000000018
    vertex 3.1688496668331583 13.586900246249765 -2.0000000000000018
    vertex 3.197461129354698 13.602591076082668 -2.0000000000000018
  endloop
endfacet
facet normal 0.0 0.0 -1.0
  outer loop
    vertex 3.192385596251359 13.371676966778372 -2.0000000000000018
    vertex 3.197461129354698 13.602591076082668 -2.0000000000000018
    vertex 3.223712047597295 13.362540699787015 -2.0000000000000018
  endloop
endfacet
facet normal 0.0 0.0 -1.0
  outer loop
    vertex 3.223712047597295 13.362540699787015 -2.0000000000000018
    vertex 3.197461129354698 13.602591076082668 -2.0000000000000018
    vertex 3.229158765526374 13.610342062445364 -2.0000000000000018
  endloop
endfacet
facet normal 0.0 0.0 -1.0
  outer loop
    vertex 3.223712047597295 13.362540699787015 -2.0000000000000018
    vertex 3.229158765526374 13.610342062445364 -2.0000000000000018
    vertex 3.256335715896827 13.361823625767999 -2.0000000000000018
  endloop
endfacet
facet normal 0.0 0.0 -1.0
  outer loop
    vertex 3.256335715896827 13.361823625767999 -2.0000000000000018
    vertex 3.229158765526374 13.610342062445364 -2.0000000000000018
    vertex 3.261782433825906 13.609624988426347 -2.0000000000000018
  endloop
endfacet
facet normal 0.0 0.0 -1.0
  outer loop
    vertex 3.256335715896827 13.361823625767999 -2.0000000000000018
    vertex 3.261782433825906 13.609624988426347 -2.0000000000000018
    vertex 3.288033352068503 13.369574612130695 -2.0000000000000018
  endloop
endfacet
facet normal 0.0 0.0 -1.0
  outer loop
    vertex 3.288033352068503 13.369574612130695 -2.0000000000000018
    vertex 3.261782433825906 13.609624988426347 -2.0000000000000018
    vertex 3.2931088851718417 13.600488721434992 -2.0000000000000018
  endloop
endfacet
facet normal 0.0 0.0 -1.0
  outer loop
    vertex 3.288033352068503 13.369574612130695 -2.0000000000000018
    vertex 3.2931088851718417 13.600488721434992 -2.0000000000000018
    vertex 3.3166448145900427 13.385265441963599 -2.0000000000000018
  endloop
endfacet
facet normal 0.0 0.0 -1.0
  outer loop
    vertex 3.3166448145900427 13.385265441963599 -2.0000000000000018
    vertex 3.2931088851718417 13.600488721434992 -2.0000000000000018
    vertex 3.321003273674364 13.583555882968362 -2.0000000000000018
  endloop
endfacet
facet normal 0.0 0.0 -1.0
  outer loop
    vertex 3.3166448145900427 13.385265441963599 -2.0000000000000018
    vertex 3.321003273674364 13.583555882968362 -2.0000000000000018
    vertex 3.3402202795732814 13.407826811143918 -2.0000000000000018
  endloop
endfacet
facet normal 0.0 0.0 -1.0
  outer loop
    vertex 3.3402202795732814 13.407826811143918 -2.0000000000000018
    vertex 3.321003273674364 13.583555882968362 -2.0000000000000018
    vertex 3.343564642854684 13.559980417985123 -2.0000000000000018
  endloop
endfacet
facet normal 0.0 0.0 -1.0
  outer loop
    vertex 3.3402202795732814 13.407826811143918 -2.0000000000000018
    vertex 3.343564642854684 13.559980417985123 -2.0000000000000018
    vertex 3.3571531180399106 13.43572119964644 -2.0000000000000018
  endloop
endfacet
facet normal 0.0 0.0 -1.0
  outer loop
    vertex 3.3571531180399106 13.43572119964644 -2.0000000000000018
    vertex 3.343564642854684 13.559980417985123 -2.0000000000000018
    vertex 3.359255472687587 13.531368955463583 -2.0000000000000018
  endloop
endfacet
facet normal 0.0 0.0 -1.0
  outer loop
    vertex 3.3571531180399106 13.43572119964644 -2.0000000000000018
    vertex 3.359255472687587 13.531368955463583 -2.0000000000000018
    vertex 3.3662893850312665 13.467047650992376 -2.0000000000000018
  endloop
endfacet
facet normal 0.0 0.0 -1.0
  outer loop
    vertex 3.3662893850312665 13.467047650992376 -2.0000000000000018
    vertex 3.359255472687587 13.531368955463583 -2.0000000000000018
    vertex 3.367006459050283 13.499671319291908 -2.0000000000000018
  endloop
endfacet
facet normal 0.8768037137957607 0.48084846622814736 0.0
  outer loop
    vertex 3.343564642854684 13.559980417985123 -2.0000000000000018
    vertex 3.359255472687587 13.531368955463583 -1.7763568394002505e-15
    vertex 3.359255472687587 13.531368955463583 -2.0000000000000018
  endloop
endfacet
facet normal 0.8768037137957607 0.48084846622814736 0.0
  outer loop
    vertex 3.359255472687587 13.531368955463583 -1.7763568394002505e-15
    vertex 3.343564642854684 13.559980417985123 -2.0000000000000018
    vertex 3.343564642854684 13.559980417985123 -1.7763568394002505e-15
  endloop
endfacet
facet normal -0.23753045211429114 0.9713800926096748 0.0
  outer loop
    vertex 3.197461129354698 13.602591076082668 -1.7763568394002505e-15
    vertex 3.229158765526374 13.610342062445364 -2.0000000000000018
    vertex 3.197461129354698 13.602591076082668 -2.0000000000000018
  endloop
endfacet
facet normal -0.23753045211429114 0.9713800926096748 0.0
  outer loop
    vertex 3.229158765526374 13.610342062445364 -2.0000000000000018
    vertex 3.197461129354698 13.602591076082668 -1.7763568394002505e-15
    vertex 3.229158765526374 13.610342062445364 -1.7763568394002505e-15
  endloop
endfacet
facet normal -0.9997585233937433 0.02197486977349794 0.0
  outer loop
    vertex 3.1192050963919344 13.505118037220987 -1.7763568394002505e-15
    vertex 3.118488022372918 13.472494368921454 -2.0000000000000018
    vertex 3.118488022372918 13.472494368921454 -1.7763568394002505e-15
  endloop
endfacet
facet normal -0.9997585233937433 0.02197486977349794 0.0
  outer loop
    vertex 3.118488022372918 13.472494368921454 -2.0000000000000018
    vertex 3.1192050963919344 13.505118037220987 -1.7763568394002505e-15
    vertex 3.1192050963919344 13.505118037220987 -2.0000000000000018
  endloop
endfacet
facet normal 0.48084846622815197 -0.8768037137957583 0.0
  outer loop
    vertex 3.3166448145900427 13.385265441963599 -1.7763568394002505e-15
    vertex 3.288033352068503 13.369574612130695 -2.0000000000000018
    vertex 3.3166448145900427 13.385265441963599 -2.0000000000000018
  endloop
endfacet
facet normal 0.48084846622815197 -0.8768037137957583 0.0
  outer loop
    vertex 3.288033352068503 13.369574612130695 -2.0000000000000018
    vertex 3.3166448145900427 13.385265441963599 -1.7763568394002505e-15
    vertex 3.288033352068503 13.369574612130695 -1.7763568394002505e-15
  endloop
endfacet
facet normal -0.2799826406014567 -0.9600050629876051 -0.0
  outer loop
    vertex 3.223712047597295 13.362540699787015 -1.7763568394002505e-15
    vertex 3.192385596251359 13.371676966778372 -2.0000000000000018
    vertex 3.223712047597295 13.362540699787015 -2.0000000000000018
  endloop
endfacet
facet normal -0.2799826406014567 -0.9600050629876051 -0.0
  outer loop
    vertex 3.192385596251359 13.371676966778372 -2.0000000000000018
    vertex 3.223712047597295 13.362540699787015 -1.7763568394002505e-15
    vertex 3.192385596251359 13.371676966778372 -1.7763568394002505e-15
  endloop
endfacet
facet normal -0.8548288440222317 0.5189100571656088 0.0
  outer loop
    vertex 3.1452742018499196 13.564338877069446 -1.7763568394002505e-15
    vertex 3.1283413633832904 13.536444488566922 -2.0000000000000018
    vertex 3.1283413633832904 13.536444488566922 -1.7763568394002505e-15
  endloop
endfacet
facet normal -0.8548288440222317 0.5189100571656088 0.0
  outer loop
    vertex 3.1283413633832904 13.536444488566922 -2.0000000000000018
    vertex 3.1452742018499196 13.564338877069446 -1.7763568394002505e-15
    vertex 3.1452742018499196 13.564338877069446 -2.0000000000000018
  endloop
endfacet
facet normal 0.5189100571655996 0.8548288440222371 0.0
  outer loop
    vertex 3.2931088851718417 13.600488721434992 -1.7763568394002505e-15
    vertex 3.321003273674364 13.583555882968362 -2.0000000000000018
    vertex 3.2931088851718417 13.600488721434992 -2.0000000000000018
  endloop
endfacet
facet normal 0.5189100571655996 0.8548288440222371 0.0
  outer loop
    vertex 3.321003273674364 13.583555882968362 -2.0000000000000018
    vertex 3.2931088851718417 13.600488721434992 -1.7763568394002505e-15
    vertex 3.321003273674364 13.583555882968362 -1.7763568394002505e-15
  endloop
endfacet
facet normal 0.2799826406014567 0.9600050629876051 0.0
  outer loop
    vertex 3.261782433825906 13.609624988426347 -1.7763568394002505e-15
    vertex 3.2931088851718417 13.600488721434992 -2.0000000000000018
    vertex 3.261782433825906 13.609624988426347 -2.0000000000000018
  endloop
endfacet
facet normal 0.2799826406014567 0.9600050629876051 0.0
  outer loop
    vertex 3.2931088851718417 13.600488721434992 -2.0000000000000018
    vertex 3.261782433825906 13.609624988426347 -1.7763568394002505e-15
    vertex 3.2931088851718417 13.600488721434992 -1.7763568394002505e-15
  endloop
endfacet
facet normal -0.7224746108733126 -0.6913974520082178 -0.0
  outer loop
    vertex 3.141929838568517 13.412185270228239 -1.7763568394002505e-15
    vertex 3.1644912077488367 13.388609805245 -2.0000000000000018
    vertex 3.1644912077488367 13.388609805245 -1.7763568394002505e-15
  endloop
endfacet
facet normal -0.7224746108733126 -0.6913974520082178 -0.0
  outer loop
    vertex 3.1644912077488367 13.388609805245 -2.0000000000000018
    vertex 3.141929838568517 13.412185270228239 -1.7763568394002505e-15
    vertex 3.141929838568517 13.412185270228239 -2.0000000000000018
  endloop
endfacet
facet normal -0.48084846622815064 0.876803713795759 0.0
  outer loop
    vertex 3.1688496668331583 13.586900246249765 -1.7763568394002505e-15
    vertex 3.197461129354698 13.602591076082668 -2.0000000000000018
    vertex 3.1688496668331583 13.586900246249765 -2.0000000000000018
  endloop
endfacet
facet normal -0.48084846622815064 0.876803713795759 0.0
  outer loop
    vertex 3.197461129354698 13.602591076082668 -2.0000000000000018
    vertex 3.1688496668331583 13.586900246249765 -1.7763568394002505e-15
    vertex 3.197461129354698 13.602591076082668 -1.7763568394002505e-15
  endloop
endfacet
facet normal -0.9713800926096772 -0.2375304521142823 -0.0
  outer loop
    vertex 3.118488022372918 13.472494368921454 -1.7763568394002505e-15
    vertex 3.126239008735614 13.44079673274978 -2.0000000000000018
    vertex 3.126239008735614 13.44079673274978 -1.7763568394002505e-15
  endloop
endfacet
facet normal -0.9713800926096772 -0.2375304521142823 -0.0
  outer loop
    vertex 3.126239008735614 13.44079673274978 -2.0000000000000018
    vertex 3.118488022372918 13.472494368921454 -1.7763568394002505e-15
    vertex 3.118488022372918 13.472494368921454 -2.0000000000000018
  endloop
endfacet
facet normal -0.960005062987604 0.27998264060146005 0.0
  outer loop
    vertex 3.1283413633832904 13.536444488566922 -1.7763568394002505e-15
    vertex 3.1192050963919344 13.505118037220987 -2.0000000000000018
    vertex 3.1192050963919344 13.505118037220987 -1.7763568394002505e-15
  endloop
endfacet
facet normal -0.960005062987604 0.27998264060146005 0.0
  outer loop
    vertex 3.1192050963919344 13.505118037220987 -2.0000000000000018
    vertex 3.1283413633832904 13.536444488566922 -1.7763568394002505e-15
    vertex 3.1283413633832904 13.536444488566922 -2.0000000000000018
  endloop
endfacet
facet normal 0.8548288440222321 -0.518910057165608 0.0
  outer loop
    vertex 3.3571531180399106 13.43572119964644 -2.0000000000000018
    vertex 3.3402202795732814 13.407826811143918 -1.7763568394002505e-15
    vertex 3.3402202795732814 13.407826811143918 -2.0000000000000018
  endloop
endfacet
facet normal 0.8548288440222321 -0.518910057165608 0.0
  outer loop
    vertex 3.3402202795732814 13.407826811143918 -1.7763568394002505e-15
    vertex 3.3571531180399106 13.43572119964644 -2.0000000000000018
    vertex 3.3571531180399106 13.43572119964644 -1.7763568394002505e-15
  endloop
endfacet
facet normal 0.6913974520082262 -0.7224746108733044 0.0
  outer loop
    vertex 3.3402202795732814 13.407826811143918 -1.7763568394002505e-15
    vertex 3.3166448145900427 13.385265441963599 -2.0000000000000018
    vertex 3.3402202795732814 13.407826811143918 -2.0000000000000018
  endloop
endfacet
facet normal 0.6913974520082262 -0.7224746108733044 0.0
  outer loop
    vertex 3.3166448145900427 13.385265441963599 -2.0000000000000018
    vertex 3.3402202795732814 13.407826811143918 -1.7763568394002505e-15
    vertex 3.3166448145900427 13.385265441963599 -1.7763568394002505e-15
  endloop
endfacet
facet normal 0.7224746108733112 0.691397452008219 0.0
  outer loop
    vertex 3.321003273674364 13.583555882968362 -2.0000000000000018
    vertex 3.343564642854684 13.559980417985123 -1.7763568394002505e-15
    vertex 3.343564642854684 13.559980417985123 -2.0000000000000018
  endloop
endfacet
facet normal 0.7224746108733112 0.691397452008219 0.0
  outer loop
    vertex 3.343564642854684 13.559980417985123 -1.7763568394002505e-15
    vertex 3.321003273674364 13.583555882968362 -2.0000000000000018
    vertex 3.321003273674364 13.583555882968362 -1.7763568394002505e-15
  endloop
endfacet
facet normal 0.9600050629876042 -0.27998264060145983 0.0
  outer loop
    vertex 3.3662893850312665 13.467047650992376 -2.0000000000000018
    vertex 3.3571531180399106 13.43572119964644 -1.7763568394002505e-15
    vertex 3.3571531180399106 13.43572119964644 -2.0000000000000018
  endloop
endfacet
facet normal 0.9600050629876042 -0.27998264060145983 0.0
  outer loop
    vertex 3.3571531180399106 13.43572119964644 -1.7763568394002505e-15
    vertex 3.3662893850312665 13.467047650992376 -2.0000000000000018
    vertex 3.3662893850312665 13.467047650992376 -1.7763568394002505e-15
  endloop
endfacet
facet normal -0.02197486977351803 -0.9997585233937428 -0.0
  outer loop
    vertex 3.256335715896827 13.361823625767999 -1.7763568394002505e-15
    vertex 3.223712047597295 13.362540699787015 -2.0000000000000018
    vertex 3.256335715896827 13.361823625767999 -2.0000000000000018
  endloop
endfacet
facet normal -0.02197486977351803 -0.9997585233937428 -0.0
  outer loop
    vertex 3.223712047597295 13.362540699787015 -2.0000000000000018
    vertex 3.256335715896827 13.361823625767999 -1.7763568394002505e-15
    vertex 3.223712047597295 13.362540699787015 -1.7763568394002505e-15
  endloop
endfacet
facet normal 0.02197486977351888 0.9997585233937428 0.0
  outer loop
    vertex 3.229158765526374 13.610342062445364 -1.7763568394002505e-15
    vertex 3.261782433825906 13.609624988426347 -2.0000000000000018
    vertex 3.229158765526374 13.610342062445364 -2.0000000000000018
  endloop
endfacet
facet normal 0.02197486977351888 0.9997585233937428 0.0
  outer loop
    vertex 3.261782433825906 13.609624988426347 -2.0000000000000018
    vertex 3.229158765526374 13.610342062445364 -1.7763568394002505e-15
    vertex 3.261782433825906 13.609624988426347 -1.7763568394002505e-15
  endloop
endfacet
facet normal 0.9997585233937433 -0.021974869773497996 0.0
  outer loop
    vertex 3.367006459050283 13.499671319291908 -2.0000000000000018
    vertex 3.3662893850312665 13.467047650992376 -1.7763568394002505e-15
    vertex 3.3662893850312665 13.467047650992376 -2.0000000000000018
  endloop
endfacet
facet normal 0.9997585233937433 -0.021974869773497996 0.0
  outer loop
    vertex 3.3662893850312665 13.467047650992376 -1.7763568394002505e-15
    vertex 3.367006459050283 13.499671319291908 -2.0000000000000018
    vertex 3.367006459050283 13.499671319291908 -1.7763568394002505e-15
  endloop
endfacet
endsolid Gears
