solid Spring System
facet normal 0.0 0.0 -1.0
  outer loop
    vertex 3.1417226416395083 13.299654042160682 4.139823080911865
    vertex 3.6417226416395083 12.799654042160704 4.139823080911865
    vertex 3.1417226416395083 6.299654042160703 4.139823080911865
  endloop
endfacet
facet normal 0.0 0.0 -1.0
  outer loop
    vertex 3.6417226416395083 12.799654042160704 4.139823080911865
    vertex 3.1417226416395083 13.299654042160682 4.139823080911865
    vertex 4.641722641639508 13.29965404216069 4.139823080911865
  endloop
endfacet
facet normal 0.0 0.0 -1.0
  outer loop
    vertex 3.6417226416395083 12.799654042160704 4.139823080911865
    vertex 4.641722641639508 13.29965404216069 4.139823080911865
    vertex 4.141722641639508 12.799654042160704 4.139823080911865
  endloop
endfacet
facet normal 0.0 0.0 -1.0
  outer loop
    vertex 4.141722641639508 12.799654042160704 4.139823080911865
    vertex 4.641722641639508 13.29965404216069 4.139823080911865
    vertex 4.141722641639508 12.299654042160704 4.139823080911865
  endloop
endfacet
facet normal 0.0 0.0 -1.0
  outer loop
    vertex 4.141722641639508 12.299654042160704 4.139823080911865
    vertex 4.641722641639508 13.29965404216069 4.139823080911865
    vertex 4.141722641639508 7.299654042160703 4.139823080911865
  endloop
endfacet
facet normal 0.0 0.0 -1.0
  outer loop
    vertex 4.141722641639508 7.299654042160703 4.139823080911865
    vertex 4.641722641639508 13.29965404216069 4.139823080911865
    vertex 4.141722641639508 6.799654042160703 4.139823080911865
  endloop
endfacet
facet normal 0.0 0.0 -1.0
  outer loop
    vertex 3.1417226416395083 6.299654042160703 4.139823080911865
    vertex 3.6417226416395083 6.799654042160703 4.139823080911865
    vertex 4.641722641639508 6.299654042160708 4.139823080911865
  endloop
endfacet
facet normal 0.0 0.0 -1.0
  outer loop
    vertex 3.6417226416395083 6.799654042160703 4.139823080911865
    vertex 3.1417226416395083 6.299654042160703 4.139823080911865
    vertex 3.6417226416395083 12.799654042160704 4.139823080911865
  endloop
endfacet
facet normal 0.0 0.0 -1.0
  outer loop
    vertex 3.6417226416395083 6.799654042160703 4.139823080911865
    vertex 3.6417226416395083 12.799654042160704 4.139823080911865
    vertex 3.6417226416395083 12.299654042160704 4.139823080911865
  endloop
endfacet
facet normal 0.0 0.0 -1.0
  outer loop
    vertex 3.6417226416395083 6.799654042160703 4.139823080911865
    vertex 3.6417226416395083 12.299654042160704 4.139823080911865
    vertex 3.6417226416395083 7.299654042160703 4.139823080911865
  endloop
endfacet
facet normal 0.0 0.0 -1.0
  outer loop
    vertex 4.641722641639508 6.299654042160708 4.139823080911865
    vertex 3.6417226416395083 6.799654042160703 4.139823080911865
    vertex 4.141722641639508 6.799654042160703 4.139823080911865
  endloop
endfacet
facet normal 0.0 0.0 -1.0
  outer loop
    vertex 4.641722641639508 6.299654042160708 4.139823080911865
    vertex 4.141722641639508 6.799654042160703 4.139823080911865
    vertex 4.641722641639508 13.29965404216069 4.139823080911865
  endloop
endfacet
facet normal 0.0 0.0 -1.0
  outer loop
    vertex 4.141722641639508 12.299654042160704 4.139823080911865
    vertex 3.6417226416395083 7.299654042160703 4.139823080911865
    vertex 3.6417226416395083 12.299654042160704 4.139823080911865
  endloop
endfacet
facet normal 0.0 0.0 -1.0
  outer loop
    vertex 3.6417226416395083 7.299654042160703 4.139823080911865
    vertex 4.141722641639508 12.299654042160704 4.139823080911865
    vertex 4.141722641639508 7.299654042160703 4.139823080911865
  endloop
endfacet
facet normal 3.806478941571965e-15 -1.0 0.0
  outer loop
    vertex 4.641722641639508 5.799654042160708 4.639823080911865
    vertex 3.1417226416395083 5.799654042160703 0.6398230809118663
    vertex 4.641722641639508 5.799654042160708 0.6398230809118663
  endloop
endfacet
facet normal 3.806478941571965e-15 -1.0 0.0
  outer loop
    vertex 3.1417226416395083 5.799654042160703 0.6398230809118663
    vertex 4.641722641639508 5.799654042160708 4.639823080911865
    vertex 3.1417226416395083 5.799654042160703 4.639823080911865
  endloop
endfacet
facet normal -5.075305255429287e-15 1.0 -7.826001043858973e-33
  outer loop
    vertex 3.1417226416395083 13.799654042160697 4.639823080911865
    vertex 4.641722641639508 13.799654042160704 0.6398230809118663
    vertex 3.1417226416395083 13.799654042160697 0.6398230809118663
  endloop
endfacet
facet normal -5.075305255429287e-15 1.0 -7.826001043858973e-33
  outer loop
    vertex 4.641722641639508 13.799654042160704 0.6398230809118663
    vertex 3.1417226416395083 13.799654042160697 4.639823080911865
    vertex 4.641722641639508 13.799654042160704 4.639823080911865
  endloop
endfacet
facet normal 5.075305255429287e-15 -1.0 0.0
  outer loop
    vertex 4.641722641639508 13.29965404216069 4.139823080911865
    vertex 3.1417226416395083 13.299654042160682 1.1398230809118663
    vertex 4.641722641639508 13.29965404216069 1.1398230809118663
  endloop
endfacet
facet normal 5.075305255429287e-15 -1.0 0.0
  outer loop
    vertex 3.1417226416395083 13.299654042160682 1.1398230809118663
    vertex 4.641722641639508 13.29965404216069 4.139823080911865
    vertex 3.1417226416395083 13.299654042160682 4.139823080911865
  endloop
endfacet
facet normal 8.635067969306795e-17 -1.0663158993574542e-17 1.0
  outer loop
    vertex 3.1417226416395083 6.299654042160703 1.1398230809118663
    vertex 3.6417226416395083 6.799654042160703 1.1398230809118641
    vertex 3.1417226416395083 13.299654042160682 1.1398230809118663
  endloop
endfacet
facet normal 8.635067969306795e-17 -1.0663158993574542e-17 1.0
  outer loop
    vertex 3.6417226416395083 6.799654042160703 1.1398230809118641
    vertex 3.1417226416395083 6.299654042160703 1.1398230809118663
    vertex 4.641722641639508 6.299654042160708 1.1398230809118663
  endloop
endfacet
facet normal 8.635067969306795e-17 -1.0663158993574542e-17 1.0
  outer loop
    vertex 3.6417226416395083 6.799654042160703 1.1398230809118641
    vertex 4.641722641639508 6.299654042160708 1.1398230809118663
    vertex 4.141722641639508 6.799654042160703 1.1398230809118646
  endloop
endfacet
facet normal 8.635067969306795e-17 -1.0663158993574542e-17 1.0
  outer loop
    vertex 4.141722641639508 6.799654042160703 1.1398230809118646
    vertex 4.641722641639508 6.299654042160708 1.1398230809118663
    vertex 4.141722641639508 7.299654042160703 1.1398230809118646
  endloop
endfacet
facet normal 8.635067969306795e-17 -1.0663158993574542e-17 1.0
  outer loop
    vertex 4.141722641639508 7.299654042160703 1.1398230809118646
    vertex 4.641722641639508 6.299654042160708 1.1398230809118663
    vertex 4.141722641639508 12.299654042160704 1.1398230809118646
  endloop
endfacet
facet normal 8.635067969306795e-17 -1.0663158993574542e-17 1.0
  outer loop
    vertex 4.141722641639508 12.299654042160704 1.1398230809118646
    vertex 4.641722641639508 6.299654042160708 1.1398230809118663
    vertex 4.141722641639508 12.799654042160704 1.1398230809118646
  endloop
endfacet
facet normal 8.635067969306795e-17 -1.0663158993574542e-17 1.0
  outer loop
    vertex 3.1417226416395083 13.299654042160682 1.1398230809118663
    vertex 3.6417226416395083 12.799654042160704 1.1398230809118644
    vertex 4.641722641639508 13.29965404216069 1.1398230809118663
  endloop
endfacet
facet normal 8.635067969306795e-17 -1.0663158993574542e-17 1.0
  outer loop
    vertex 3.6417226416395083 12.799654042160704 1.1398230809118644
    vertex 3.1417226416395083 13.299654042160682 1.1398230809118663
    vertex 3.6417226416395083 6.799654042160703 1.1398230809118641
  endloop
endfacet
facet normal 8.635067969306795e-17 -1.0663158993574542e-17 1.0
  outer loop
    vertex 3.6417226416395083 12.799654042160704 1.1398230809118644
    vertex 3.6417226416395083 6.799654042160703 1.1398230809118641
    vertex 3.6417226416395083 7.299654042160703 1.1398230809118641
  endloop
endfacet
facet normal 8.635067969306795e-17 -1.0663158993574542e-17 1.0
  outer loop
    vertex 3.6417226416395083 12.799654042160704 1.1398230809118644
    vertex 3.6417226416395083 7.299654042160703 1.1398230809118641
    vertex 3.6417226416395083 12.299654042160704 1.1398230809118644
  endloop
endfacet
facet normal 8.635067969306795e-17 -1.0663158993574542e-17 1.0
  outer loop
    vertex 4.641722641639508 13.29965404216069 1.1398230809118663
    vertex 3.6417226416395083 12.799654042160704 1.1398230809118644
    vertex 4.141722641639508 12.799654042160704 1.1398230809118646
  endloop
endfacet
facet normal 8.635067969306795e-17 -1.0663158993574542e-17 1.0
  outer loop
    vertex 4.641722641639508 13.29965404216069 1.1398230809118663
    vertex 4.141722641639508 12.799654042160704 1.1398230809118646
    vertex 4.641722641639508 6.299654042160708 1.1398230809118663
  endloop
endfacet
facet normal 8.635067969306795e-17 -1.0663158993574542e-17 1.0
  outer loop
    vertex 4.141722641639508 7.299654042160703 1.1398230809118646
    vertex 3.6417226416395083 12.299654042160704 1.1398230809118644
    vertex 3.6417226416395083 7.299654042160703 1.1398230809118641
  endloop
endfacet
facet normal 8.635067969306795e-17 -1.0663158993574542e-17 1.0
  outer loop
    vertex 3.6417226416395083 12.299654042160704 1.1398230809118644
    vertex 4.141722641639508 7.299654042160703 1.1398230809118646
    vertex 4.141722641639508 12.299654042160704 1.1398230809118646
  endloop
endfacet
facet normal 0.0 0.0 -1.0
  outer loop
    vertex 4.641722641639508 13.799654042160704 0.6398230809118663
    vertex 3.1417226416395083 5.799654042160703 0.6398230809118663
    vertex 3.1417226416395083 13.799654042160697 0.6398230809118663
  endloop
endfacet
facet normal 0.0 0.0 -1.0
  outer loop
    vertex 3.1417226416395083 5.799654042160703 0.6398230809118663
    vertex 4.641722641639508 13.799654042160704 0.6398230809118663
    vertex 4.641722641639508 5.799654042160708 0.6398230809118663
  endloop
endfacet
facet normal -1.0 0.0 0.0
  outer loop
    vertex 3.1417226416395083 5.799654042160703 4.639823080911865
    vertex 3.1417226416395083 6.299654042160703 4.139823080911865
    vertex 3.1417226416395083 5.799654042160703 0.6398230809118663
  endloop
endfacet
facet normal -1.0 0.0 0.0
  outer loop
    vertex 3.1417226416395083 6.299654042160703 4.139823080911865
    vertex 3.1417226416395083 5.799654042160703 4.639823080911865
    vertex 3.1417226416395083 13.799654042160697 4.639823080911865
  endloop
endfacet
facet normal -1.0 0.0 0.0
  outer loop
    vertex 3.1417226416395083 6.299654042160703 4.139823080911865
    vertex 3.1417226416395083 13.799654042160697 4.639823080911865
    vertex 3.1417226416395083 13.299654042160682 4.139823080911865
  endloop
endfacet
facet normal -1.0 0.0 0.0
  outer loop
    vertex 3.1417226416395083 13.299654042160682 4.139823080911865
    vertex 3.1417226416395083 13.799654042160697 4.639823080911865
    vertex 3.1417226416395083 13.299654042160682 1.1398230809118663
  endloop
endfacet
facet normal -1.0 0.0 0.0
  outer loop
    vertex 3.1417226416395083 5.799654042160703 0.6398230809118663
    vertex 3.1417226416395083 6.299654042160703 1.1398230809118663
    vertex 3.1417226416395083 13.799654042160697 0.6398230809118663
  endloop
endfacet
facet normal -1.0 0.0 0.0
  outer loop
    vertex 3.1417226416395083 6.299654042160703 1.1398230809118663
    vertex 3.1417226416395083 5.799654042160703 0.6398230809118663
    vertex 3.1417226416395083 6.299654042160703 4.139823080911865
  endloop
endfacet
facet normal -1.0 0.0 0.0
  outer loop
    vertex 3.1417226416395083 13.799654042160697 0.6398230809118663
    vertex 3.1417226416395083 6.299654042160703 1.1398230809118663
    vertex 3.1417226416395083 13.299654042160682 1.1398230809118663
  endloop
endfacet
facet normal -1.0 0.0 0.0
  outer loop
    vertex 3.1417226416395083 13.799654042160697 0.6398230809118663
    vertex 3.1417226416395083 13.299654042160682 1.1398230809118663
    vertex 3.1417226416395083 13.799654042160697 4.639823080911865
  endloop
endfacet
facet normal 0.0 0.0 1.0
  outer loop
    vertex 4.641722641639508 5.799654042160708 4.639823080911865
    vertex 3.1417226416395083 13.799654042160697 4.639823080911865
    vertex 3.1417226416395083 5.799654042160703 4.639823080911865
  endloop
endfacet
facet normal 0.0 0.0 1.0
  outer loop
    vertex 3.1417226416395083 13.799654042160697 4.639823080911865
    vertex 4.641722641639508 5.799654042160708 4.639823080911865
    vertex 4.641722641639508 13.799654042160704 4.639823080911865
  endloop
endfacet
facet normal -3.806478941571965e-15 1.0 3.707138794510103e-46
  outer loop
    vertex 3.1417226416395083 6.299654042160703 4.139823080911865
    vertex 4.641722641639508 6.299654042160708 1.1398230809118663
    vertex 3.1417226416395083 6.299654042160703 1.1398230809118663
  endloop
endfacet
facet normal -3.806478941571965e-15 1.0 3.707138794510103e-46
  outer loop
    vertex 4.641722641639508 6.299654042160708 1.1398230809118663
    vertex 3.1417226416395083 6.299654042160703 4.139823080911865
    vertex 4.641722641639508 6.299654042160708 4.139823080911865
  endloop
endfacet
facet normal 0.0 1.0 0.0
  outer loop
    vertex 3.6417226416395083 7.299654042160703 4.139823080911865
    vertex 4.141722641639508 7.299654042160703 3.6398230809118646
    vertex 3.6417226416395083 7.299654042160703 3.6398230809118646
  endloop
endfacet
facet normal 0.0 1.0 0.0
  outer loop
    vertex 4.141722641639508 7.299654042160703 3.6398230809118646
    vertex 3.6417226416395083 7.299654042160703 4.139823080911865
    vertex 4.141722641639508 7.299654042160703 4.139823080911865
  endloop
endfacet
facet normal 1.0 0.0 0.0
  outer loop
    vertex 4.141722641639508 7.299654042160703 1.1398230809118646
    vertex 4.141722641639508 6.799654042160703 1.6398230809118644
    vertex 4.141722641639508 6.799654042160703 1.1398230809118646
  endloop
endfacet
facet normal 1.0 0.0 0.0
  outer loop
    vertex 4.141722641639508 6.799654042160703 1.6398230809118644
    vertex 4.141722641639508 7.299654042160703 1.1398230809118646
    vertex 4.141722641639508 7.299654042160703 1.6398230809118644
  endloop
endfacet
facet normal 0.0 1.0 0.0
  outer loop
    vertex 3.6417226416395083 12.799654042160704 1.6398230809118646
    vertex 4.141722641639508 12.799654042160704 1.1398230809118646
    vertex 3.6417226416395083 12.799654042160704 1.1398230809118644
  endloop
endfacet
facet normal 0.0 1.0 0.0
  outer loop
    vertex 4.141722641639508 12.799654042160704 1.1398230809118646
    vertex 3.6417226416395083 12.799654042160704 1.6398230809118646
    vertex 4.141722641639508 12.799654042160704 1.6398230809118646
  endloop
endfacet
facet normal 0.0 1.0 0.0
  outer loop
    vertex 3.6417226416395083 12.799654042160704 4.139823080911865
    vertex 4.141722641639508 12.799654042160704 3.6398230809118646
    vertex 3.6417226416395083 12.799654042160704 3.6398230809118646
  endloop
endfacet
facet normal 0.0 1.0 0.0
  outer loop
    vertex 4.141722641639508 12.799654042160704 3.6398230809118646
    vertex 3.6417226416395083 12.799654042160704 4.139823080911865
    vertex 4.141722641639508 12.799654042160704 4.139823080911865
  endloop
endfacet
facet normal 0.0 -1.0 0.0
  outer loop
    vertex 4.141722641639508 6.799654042160703 4.139823080911865
    vertex 3.6417226416395083 6.799654042160703 3.6398230809118646
    vertex 4.141722641639508 6.799654042160703 3.6398230809118646
  endloop
endfacet
facet normal 0.0 -1.0 0.0
  outer loop
    vertex 3.6417226416395083 6.799654042160703 3.6398230809118646
    vertex 4.141722641639508 6.799654042160703 4.139823080911865
    vertex 3.6417226416395083 6.799654042160703 4.139823080911865
  endloop
endfacet
facet normal 0.0 0.0 1.0
  outer loop
    vertex 4.141722641639508 12.299654042160704 1.6398230809118646
    vertex 3.6417226416395083 12.799654042160704 1.6398230809118646
    vertex 3.6417226416395083 12.299654042160704 1.6398230809118646
  endloop
endfacet
facet normal 0.0 0.0 1.0
  outer loop
    vertex 3.6417226416395083 12.799654042160704 1.6398230809118646
    vertex 4.141722641639508 12.299654042160704 1.6398230809118646
    vertex 4.141722641639508 12.799654042160704 1.6398230809118646
  endloop
endfacet
facet normal -0.0 -0.0 -1.0
  outer loop
    vertex 4.141722641639508 7.299654042160703 3.6398230809118646
    vertex 3.6417226416395083 6.799654042160703 3.6398230809118646
    vertex 3.6417226416395083 7.299654042160703 3.6398230809118646
  endloop
endfacet
facet normal -0.0 -0.0 -1.0
  outer loop
    vertex 3.6417226416395083 6.799654042160703 3.6398230809118646
    vertex 4.141722641639508 7.299654042160703 3.6398230809118646
    vertex 4.141722641639508 6.799654042160703 3.6398230809118646
  endloop
endfacet
facet normal 1.0 0.0 0.0
  outer loop
    vertex 4.141722641639508 7.299654042160703 3.6398230809118646
    vertex 4.141722641639508 6.799654042160703 4.139823080911865
    vertex 4.141722641639508 6.799654042160703 3.6398230809118646
  endloop
endfacet
facet normal 1.0 0.0 0.0
  outer loop
    vertex 4.141722641639508 6.799654042160703 4.139823080911865
    vertex 4.141722641639508 7.299654042160703 3.6398230809118646
    vertex 4.141722641639508 7.299654042160703 4.139823080911865
  endloop
endfacet
facet normal 0.0 -1.0 0.0
  outer loop
    vertex 4.141722641639508 12.299654042160704 4.139823080911865
    vertex 3.6417226416395083 12.299654042160704 3.6398230809118646
    vertex 4.141722641639508 12.299654042160704 3.6398230809118646
  endloop
endfacet
facet normal 0.0 -1.0 0.0
  outer loop
    vertex 3.6417226416395083 12.299654042160704 3.6398230809118646
    vertex 4.141722641639508 12.299654042160704 4.139823080911865
    vertex 3.6417226416395083 12.299654042160704 4.139823080911865
  endloop
endfacet
facet normal -0.0 -0.0 -1.0
  outer loop
    vertex 4.141722641639508 12.799654042160704 3.6398230809118646
    vertex 3.6417226416395083 12.299654042160704 3.6398230809118646
    vertex 3.6417226416395083 12.799654042160704 3.6398230809118646
  endloop
endfacet
facet normal -0.0 -0.0 -1.0
  outer loop
    vertex 3.6417226416395083 12.299654042160704 3.6398230809118646
    vertex 4.141722641639508 12.799654042160704 3.6398230809118646
    vertex 4.141722641639508 12.299654042160704 3.6398230809118646
  endloop
endfacet
facet normal 0.0 -1.0 0.0
  outer loop
    vertex 4.141722641639508 6.799654042160703 1.1398230809118646
    vertex 3.6417226416395083 6.799654042160703 1.6398230809118644
    vertex 3.6417226416395083 6.799654042160703 1.1398230809118641
  endloop
endfacet
facet normal 0.0 -1.0 0.0
  outer loop
    vertex 3.6417226416395083 6.799654042160703 1.6398230809118644
    vertex 4.141722641639508 6.799654042160703 1.1398230809118646
    vertex 4.141722641639508 6.799654042160703 1.6398230809118644
  endloop
endfacet
facet normal 0.0 1.0 0.0
  outer loop
    vertex 3.6417226416395083 7.299654042160703 1.6398230809118644
    vertex 4.141722641639508 7.299654042160703 1.1398230809118646
    vertex 3.6417226416395083 7.299654042160703 1.1398230809118641
  endloop
endfacet
facet normal 0.0 1.0 0.0
  outer loop
    vertex 4.141722641639508 7.299654042160703 1.1398230809118646
    vertex 3.6417226416395083 7.299654042160703 1.6398230809118644
    vertex 4.141722641639508 7.299654042160703 1.6398230809118644
  endloop
endfacet
facet normal 1.0 0.0 0.0
  outer loop
    vertex 4.141722641639508 12.799654042160704 3.6398230809118646
    vertex 4.141722641639508 12.299654042160704 4.139823080911865
    vertex 4.141722641639508 12.299654042160704 3.6398230809118646
  endloop
endfacet
facet normal 1.0 0.0 0.0
  outer loop
    vertex 4.141722641639508 12.299654042160704 4.139823080911865
    vertex 4.141722641639508 12.799654042160704 3.6398230809118646
    vertex 4.141722641639508 12.799654042160704 4.139823080911865
  endloop
endfacet
facet normal 1.0 0.0 0.0
  outer loop
    vertex 4.141722641639508 12.799654042160704 1.1398230809118646
    vertex 4.141722641639508 12.299654042160704 1.6398230809118646
    vertex 4.141722641639508 12.299654042160704 1.1398230809118646
  endloop
endfacet
facet normal 1.0 0.0 0.0
  outer loop
    vertex 4.141722641639508 12.299654042160704 1.6398230809118646
    vertex 4.141722641639508 12.799654042160704 1.1398230809118646
    vertex 4.141722641639508 12.799654042160704 1.6398230809118646
  endloop
endfacet
facet normal 0.0 -2.220446049250313e-16 1.0
  outer loop
    vertex 4.141722641639508 6.799654042160703 1.6398230809118644
    vertex 3.6417226416395083 7.299654042160703 1.6398230809118644
    vertex 3.6417226416395083 6.799654042160703 1.6398230809118644
  endloop
endfacet
facet normal 0.0 -2.220446049250313e-16 1.0
  outer loop
    vertex 3.6417226416395083 7.299654042160703 1.6398230809118644
    vertex 4.141722641639508 6.799654042160703 1.6398230809118644
    vertex 4.141722641639508 7.299654042160703 1.6398230809118644
  endloop
endfacet
facet normal 1.0 0.0 0.0
  outer loop
    vertex 4.641722641639508 5.799654042160708 0.6398230809118663
    vertex 4.641722641639508 6.299654042160708 1.1398230809118663
    vertex 4.641722641639508 5.799654042160708 4.639823080911865
  endloop
endfacet
facet normal 1.0 0.0 0.0
  outer loop
    vertex 4.641722641639508 6.299654042160708 1.1398230809118663
    vertex 4.641722641639508 5.799654042160708 0.6398230809118663
    vertex 4.641722641639508 13.799654042160704 0.6398230809118663
  endloop
endfacet
facet normal 1.0 0.0 0.0
  outer loop
    vertex 4.641722641639508 6.299654042160708 1.1398230809118663
    vertex 4.641722641639508 13.799654042160704 0.6398230809118663
    vertex 4.641722641639508 13.29965404216069 1.1398230809118663
  endloop
endfacet
facet normal 1.0 0.0 0.0
  outer loop
    vertex 4.641722641639508 13.29965404216069 1.1398230809118663
    vertex 4.641722641639508 13.799654042160704 0.6398230809118663
    vertex 4.641722641639508 13.29965404216069 4.139823080911865
  endloop
endfacet
facet normal 1.0 0.0 0.0
  outer loop
    vertex 4.641722641639508 5.799654042160708 4.639823080911865
    vertex 4.641722641639508 6.299654042160708 4.139823080911865
    vertex 4.641722641639508 13.799654042160704 4.639823080911865
  endloop
endfacet
facet normal 1.0 0.0 0.0
  outer loop
    vertex 4.641722641639508 6.299654042160708 4.139823080911865
    vertex 4.641722641639508 5.799654042160708 4.639823080911865
    vertex 4.641722641639508 6.299654042160708 1.1398230809118663
  endloop
endfacet
facet normal 1.0 0.0 0.0
  outer loop
    vertex 4.641722641639508 13.799654042160704 4.639823080911865
    vertex 4.641722641639508 6.299654042160708 4.139823080911865
    vertex 4.641722641639508 13.29965404216069 4.139823080911865
  endloop
endfacet
facet normal 1.0 0.0 0.0
  outer loop
    vertex 4.641722641639508 13.799654042160704 4.639823080911865
    vertex 4.641722641639508 13.29965404216069 4.139823080911865
    vertex 4.641722641639508 13.799654042160704 0.6398230809118663
  endloop
endfacet
facet normal 0.0 -1.0 0.0
  outer loop
    vertex 4.141722641639508 12.299654042160704 1.1398230809118646
    vertex 3.6417226416395083 12.299654042160704 1.6398230809118646
    vertex 3.6417226416395083 12.299654042160704 1.1398230809118644
  endloop
endfacet
facet normal 0.0 -1.0 0.0
  outer loop
    vertex 3.6417226416395083 12.299654042160704 1.6398230809118646
    vertex 4.141722641639508 12.299654042160704 1.1398230809118646
    vertex 4.141722641639508 12.299654042160704 1.6398230809118646
  endloop
endfacet
facet normal -1.0 0.0 0.0
  outer loop
    vertex 3.6417226416395083 12.799654042160704 1.6398230809118646
    vertex 3.6417226416395083 12.299654042160704 1.1398230809118644
    vertex 3.6417226416395083 12.299654042160704 1.6398230809118646
  endloop
endfacet
facet normal -1.0 0.0 0.0
  outer loop
    vertex 3.6417226416395083 12.299654042160704 1.1398230809118644
    vertex 3.6417226416395083 12.799654042160704 1.6398230809118646
    vertex 3.6417226416395083 12.799654042160704 1.1398230809118644
  endloop
endfacet
facet normal -1.0 0.0 0.0
  outer loop
    vertex 3.6417226416395083 7.299654042160703 4.139823080911865
    vertex 3.6417226416395083 6.799654042160703 3.6398230809118646
    vertex 3.6417226416395083 6.799654042160703 4.139823080911865
  endloop
endfacet
facet normal -1.0 0.0 0.0
  outer loop
    vertex 3.6417226416395083 6.799654042160703 3.6398230809118646
    vertex 3.6417226416395083 7.299654042160703 4.139823080911865
    vertex 3.6417226416395083 7.299654042160703 3.6398230809118646
  endloop
endfacet
facet normal -1.0 0.0 0.0
  outer loop
    vertex 3.6417226416395083 7.299654042160703 1.6398230809118644
    vertex 3.6417226416395083 6.799654042160703 1.1398230809118641
    vertex 3.6417226416395083 6.799654042160703 1.6398230809118644
  endloop
endfacet
facet normal -1.0 0.0 0.0
  outer loop
    vertex 3.6417226416395083 6.799654042160703 1.1398230809118641
    vertex 3.6417226416395083 7.299654042160703 1.6398230809118644
    vertex 3.6417226416395083 7.299654042160703 1.1398230809118641
  endloop
endfacet
facet normal -1.0 0.0 0.0
  outer loop
    vertex 3.6417226416395083 12.799654042160704 4.139823080911865
    vertex 3.6417226416395083 12.299654042160704 3.6398230809118646
    vertex 3.6417226416395083 12.299654042160704 4.139823080911865
  endloop
endfacet
facet normal -1.0 0.0 0.0
  outer loop
    vertex 3.6417226416395083 12.299654042160704 3.6398230809118646
    vertex 3.6417226416395083 12.799654042160704 4.139823080911865
    vertex 3.6417226416395083 12.799654042160704 3.6398230809118646
  endloop
endfacet
endsolid Spring System
